<svg width="194" height="73" viewBox="0 0 194 73" fill="none" xmlns="http://www.w3.org/2000/svg">
<g filter="url(#filter0_ii_637_2014)">
<path d="M6 55.642V16.542H187.965V55.642H6Z" fill="#6B3C24"/>
</g>
<path d="M5.24808 55.642V56.3939H6H187.965H188.717V55.642V16.542V15.7901H187.965H6H5.24808V16.542V55.642Z" stroke="#9D8C77" stroke-width="1.50385"/>
<path d="M1.50388 28.5739H4.51163V15.039H13.5349V12.0312H12.031V10.5273H0V27.07H1.50388V28.5739Z" fill="#D9D9D9"/>
<path d="M192.492 28.5739H189.484V15.039H180.461V12.0312H181.965V10.5273H193.996V27.07H192.492V28.5739Z" fill="#D9D9D9"/>
<path d="M192.492 43.6117L189.484 43.6117L189.484 57.1466L180.461 57.1466L180.461 60.1543L181.965 60.1543L181.965 61.6582L193.996 61.6582L193.996 45.1156L192.492 45.1156L192.492 43.6117Z" fill="#D9D9D9"/>
<path d="M1.50388 43.6117L4.51163 43.6117L4.51163 57.1466L13.5349 57.1466L13.5349 60.1543L12.031 60.1543L12.031 61.6582L0 61.6582L1.4462e-06 45.1156L1.50388 45.1156L1.50388 43.6117Z" fill="#D9D9D9"/>
<path d="M88.5498 0H90.5249V1.87919H88.5498V0Z" fill="#D9D9D9"/>
<path d="M94.4766 0H96.4516V1.87919H94.4766V0Z" fill="#D9D9D9"/>
<path d="M96.4527 0H98.4277V1.87919H96.4527V0Z" fill="#D9D9D9"/>
<path d="M102.378 0H104.353V1.87919H102.378V0Z" fill="#D9D9D9"/>
<path d="M86.5738 1.87954H88.5488V3.75873H86.5738V1.87954Z" fill="#D9D9D9"/>
<path d="M92.5005 1.87954H94.4755V3.75873H92.5005V1.87954Z" fill="#D9D9D9"/>
<path d="M94.4766 1.87919H96.4516V3.75873H94.4766V1.87919Z" fill="#D9D9D9"/>
<path d="M96.4527 1.87919H98.4277V3.75873H96.4527V1.87919Z" fill="#D9D9D9"/>
<path d="M98.4288 1.87954H100.404V3.75873H98.4288V1.87954Z" fill="#D9D9D9"/>
<path d="M104.356 1.87954H106.331V3.75873H104.356V1.87954Z" fill="#D9D9D9"/>
<path d="M84.5991 3.75908L86.5738 3.75873L86.5742 5.63827H84.5991V3.75908Z" fill="#D9D9D9"/>
<path d="M90.5259 3.75908L92.5005 3.75873L92.5009 5.63827H90.5259V3.75908Z" fill="#D9D9D9"/>
<path d="M92.5005 3.75873H94.4755V5.63827H92.5009L92.5005 3.75873Z" fill="#D9D9D9"/>
<path d="M94.4766 3.75873H96.4516V5.63827H94.4766V3.75873Z" fill="#D9D9D9"/>
<path d="M96.4527 3.75873H98.4277V5.63827H96.4527V3.75873Z" fill="#D9D9D9"/>
<path d="M98.4288 3.75873H100.404V5.63827H98.4288V3.75873Z" fill="#D9D9D9"/>
<path d="M100.404 3.75873L102.378 3.75908V5.63827H100.404V3.75873Z" fill="#D9D9D9"/>
<path d="M106.331 3.75873L108.305 3.75908V5.63827H106.33L106.331 3.75873Z" fill="#D9D9D9"/>
<path d="M88.5498 5.64008H90.5249V7.51927H88.5498V5.64008Z" fill="#D9D9D9"/>
<path d="M90.5259 5.64008H92.5009V7.51927H90.5259V5.64008Z" fill="#D9D9D9"/>
<path d="M92.5009 5.64008H94.4755V7.51927H92.5009V5.64008Z" fill="#D9D9D9"/>
<path d="M98.4288 5.64008H100.404V7.51927H98.4288V5.64008Z" fill="#D9D9D9"/>
<path d="M100.404 5.64008H102.378V7.51927H100.404V5.64008Z" fill="#D9D9D9"/>
<path d="M102.378 5.64008H104.353V7.51927H102.378V5.64008Z" fill="#D9D9D9"/>
<path d="M86.5738 7.51963H88.5488V9.39881H86.5738V7.51963Z" fill="#D9D9D9"/>
<path d="M88.5498 7.51927H90.5249V9.39881H88.5498V7.51927Z" fill="#D9D9D9"/>
<path d="M90.5259 7.51927H92.5009V9.39881H90.5259V7.51927Z" fill="#D9D9D9"/>
<path d="M100.404 7.51927H102.378V9.39881H100.403L100.404 7.51927Z" fill="#D9D9D9"/>
<path d="M102.378 7.51927H104.353V9.39881H102.378V7.51927Z" fill="#D9D9D9"/>
<path d="M104.356 7.51963H106.331V9.39881H104.356V7.51963Z" fill="#D9D9D9"/>
<path d="M82.6231 9.40063H84.5981V11.2798H82.6231V9.40063Z" fill="#D9D9D9"/>
<path d="M84.5991 9.40063H86.5742V11.2798H84.5991V9.40063Z" fill="#D9D9D9"/>
<path d="M86.5742 9.40063H88.5488V11.2798H86.5742V9.40063Z" fill="#D9D9D9"/>
<path d="M88.5498 9.40063H90.5249V11.2798H88.5498V9.40063Z" fill="#D9D9D9"/>
<path d="M102.378 9.40063H104.353V11.2798H102.378V9.40063Z" fill="#D9D9D9"/>
<path d="M104.356 9.40063H106.331V11.2798H104.356V9.40063Z" fill="#D9D9D9"/>
<path d="M106.331 9.40063H108.305V11.2798H106.331V9.40063Z" fill="#D9D9D9"/>
<path d="M108.306 9.40063H110.281V11.2798H108.306V9.40063Z" fill="#D9D9D9"/>
<path d="M78.6709 11.2787H80.6459V13.1579H78.6709V11.2787Z" fill="#D9D9D9"/>
<path d="M80.647 11.2787H82.622V13.1579H80.647V11.2787Z" fill="#D9D9D9"/>
<path d="M82.6231 11.2787H84.5981V13.1579H82.6231V11.2787Z" fill="#D9D9D9"/>
<path d="M84.5991 11.2787H86.5742V13.1579H84.5991V11.2787Z" fill="#D9D9D9"/>
<path d="M86.5742 11.2787H88.5488V13.1579H86.5742V11.2787Z" fill="#D9D9D9"/>
<path d="M88.5498 11.2787H90.5249V13.1579H88.5498V11.2787Z" fill="#D9D9D9"/>
<path d="M90.5259 11.2787H92.5009V13.1579H90.5259V11.2787Z" fill="#D9D9D9"/>
<path d="M92.5009 11.2787H94.4755V13.1579H92.5009V11.2787Z" fill="#D9D9D9"/>
<path d="M94.4766 11.2787H96.4516V13.1579H94.4766V11.2787Z" fill="#D9D9D9"/>
<path d="M96.4527 11.2787H98.4277V13.1579H96.4527V11.2787Z" fill="#D9D9D9"/>
<path d="M98.4288 11.2787H100.404V13.1579H98.4288V11.2787Z" fill="#D9D9D9"/>
<path d="M100.404 11.2787H102.378V13.1579H100.404V11.2787Z" fill="#D9D9D9"/>
<path d="M102.378 11.2787H104.353V13.1579H102.378V11.2787Z" fill="#D9D9D9"/>
<path d="M104.356 11.2787H106.331V13.1579H104.356V11.2787Z" fill="#D9D9D9"/>
<path d="M106.331 11.2787H108.305V13.1579H106.331V11.2787Z" fill="#D9D9D9"/>
<path d="M108.306 11.2787H110.281V13.1579H108.306V11.2787Z" fill="#D9D9D9"/>
<path d="M110.281 11.2787H112.256V13.1579H110.281V11.2787Z" fill="#D9D9D9"/>
<path d="M112.257 11.2787H114.232V13.1579H112.257V11.2787Z" fill="#D9D9D9"/>
<path d="M76.6963 13.1597H78.6713V15.0389H76.6963V13.1597Z" fill="#D9D9D9"/>
<path d="M78.6713 13.1597H80.6459V15.0389H78.6713V13.1597Z" fill="#D9D9D9"/>
<path d="M80.647 13.1597H82.622V15.0389H80.647V13.1597Z" fill="#D9D9D9"/>
<path d="M82.6231 13.1597H84.5981V15.0389H82.6231V13.1597Z" fill="#D9D9D9"/>
<path d="M84.5991 13.1597H86.5742V15.0389H84.5991V13.1597Z" fill="#D9D9D9"/>
<path d="M86.5742 13.1597H88.5488V15.0389H86.5742V13.1597Z" fill="#D9D9D9"/>
<path d="M88.5498 13.1597H90.5249V15.0389H88.5498V13.1597Z" fill="#D9D9D9"/>
<path d="M90.5259 13.1597H92.5009V15.0389H90.5259V13.1597Z" fill="#D9D9D9"/>
<path d="M92.5009 13.1597H94.4755V15.0389H92.5009V13.1597Z" fill="#D9D9D9"/>
<path d="M94.4766 13.1597H96.4516V15.0389H94.4766V13.1597Z" fill="#D9D9D9"/>
<path d="M96.4527 13.1597H98.4277V15.0389H96.4527V13.1597Z" fill="#D9D9D9"/>
<path d="M98.4288 13.1597H100.404V15.0389H98.4288V13.1597Z" fill="#D9D9D9"/>
<path d="M100.404 13.1597H102.378V15.0389H100.404V13.1597Z" fill="#D9D9D9"/>
<path d="M102.378 13.1597H104.353V15.0389H102.378V13.1597Z" fill="#D9D9D9"/>
<path d="M104.356 13.1597H106.331V15.0389H104.356V13.1597Z" fill="#D9D9D9"/>
<path d="M106.331 13.1597H108.305V15.0389H106.331V13.1597Z" fill="#D9D9D9"/>
<path d="M108.306 13.1597H110.281V15.0389H108.306V13.1597Z" fill="#D9D9D9"/>
<path d="M110.281 13.1597H112.256V15.0389H110.281V13.1597Z" fill="#D9D9D9"/>
<path d="M112.257 13.1597H114.232V15.0389H112.257V13.1597Z" fill="#D9D9D9"/>
<path d="M114.233 13.1597H116.208V15.0389H114.233V13.1597Z" fill="#D9D9D9"/>
<path d="M104.355 72.1844H102.38V70.3052H104.355V72.1844Z" fill="#D9D9D9"/>
<path d="M98.4287 72.1844H96.4537V70.3052H98.4287V72.1844Z" fill="#D9D9D9"/>
<path d="M96.4526 72.1844H94.4776V70.3052H96.4526V72.1844Z" fill="#D9D9D9"/>
<path d="M90.5258 72.1844H88.5508V70.3052H90.5258V72.1844Z" fill="#D9D9D9"/>
<path d="M106.332 70.3034H104.357L104.357 68.4242H106.332V70.3034Z" fill="#D9D9D9"/>
<path d="M100.405 70.3034H98.4297L98.4297 68.4242H100.405V70.3034Z" fill="#D9D9D9"/>
<path d="M98.4287 70.3034H96.4537L96.4537 68.4242H98.4287V70.3034Z" fill="#D9D9D9"/>
<path d="M96.4526 70.3034H94.4776L94.4776 68.4242H96.4526V70.3034Z" fill="#D9D9D9"/>
<path d="M94.4765 70.3034H92.5015V68.4242H94.4765V70.3034Z" fill="#D9D9D9"/>
<path d="M88.5498 70.3034H86.5747V68.4242H88.5498V70.3034Z" fill="#D9D9D9"/>
<path d="M108.306 68.4253H106.331V66.5461H108.306V68.4253Z" fill="#D9D9D9"/>
<path d="M102.379 68.4253H100.404V66.5461H102.379V68.4253Z" fill="#D9D9D9"/>
<path d="M100.404 68.4253H98.4297V66.5461H100.404V68.4253Z" fill="#D9D9D9"/>
<path d="M98.4287 68.4253H96.4537V66.5461H98.4287V68.4253Z" fill="#D9D9D9"/>
<path d="M96.4526 68.4253H94.4776V66.5461H96.4526V68.4253Z" fill="#D9D9D9"/>
<path d="M94.4765 68.4253H92.5015V66.5461H94.4765V68.4253Z" fill="#D9D9D9"/>
<path d="M92.5005 68.4253H90.5254V66.5461H92.5005L92.5005 68.4253Z" fill="#D9D9D9"/>
<path d="M86.5751 68.4253H84.6001L84.6001 66.5461H86.5751L86.5751 68.4253Z" fill="#D9D9D9"/>
<path d="M104.355 66.5443L102.38 66.5443V64.6651H104.355V66.5443Z" fill="#D9D9D9"/>
<path d="M102.379 66.5443H100.404V64.6651H102.379V66.5443Z" fill="#D9D9D9"/>
<path d="M100.404 66.5443H98.4297V64.6651L100.404 64.6651V66.5443Z" fill="#D9D9D9"/>
<path d="M94.4765 66.5443H92.5015V64.6651L94.4765 64.6651V66.5443Z" fill="#D9D9D9"/>
<path d="M92.5005 66.5443H90.5254V64.6651H92.5005V66.5443Z" fill="#D9D9D9"/>
<path d="M90.5254 66.5443H88.5508V64.6651L90.5254 64.6651V66.5443Z" fill="#D9D9D9"/>
<path d="M106.33 64.6662L104.355 64.6662V62.7871L106.33 62.7871V64.6662Z" fill="#D9D9D9"/>
<path d="M104.355 64.6662H102.38V62.7871H104.355V64.6662Z" fill="#D9D9D9"/>
<path d="M102.379 64.6662H100.404V62.7871H102.379V64.6662Z" fill="#D9D9D9"/>
<path d="M92.5005 64.6662H90.5254L90.5254 62.7871H92.5005V64.6662Z" fill="#D9D9D9"/>
<path d="M90.5254 64.6662L88.5508 64.6662L88.5508 62.7871L90.5254 62.7871L90.5254 64.6662Z" fill="#D9D9D9"/>
<path d="M88.5498 64.6662H86.5747L86.5747 62.7871H88.5498V64.6662Z" fill="#D9D9D9"/>
<path d="M110.282 62.7838H108.307V60.9046L110.282 60.9046V62.7838Z" fill="#D9D9D9"/>
<path d="M108.306 62.7838H106.331V60.9046L108.306 60.9046V62.7838Z" fill="#D9D9D9"/>
<path d="M106.331 62.7838L104.357 62.7838V60.9046H106.331V62.7838Z" fill="#D9D9D9"/>
<path d="M104.355 62.7838H102.38V60.9046L104.355 60.9046V62.7838Z" fill="#D9D9D9"/>
<path d="M90.5258 62.7838L88.5508 62.7838V60.9046L90.5258 60.9046V62.7838Z" fill="#D9D9D9"/>
<path d="M88.5498 62.7838H86.5747V60.9046L88.5498 60.9046V62.7838Z" fill="#D9D9D9"/>
<path d="M86.5747 62.7838L84.6001 62.7838L84.6001 60.9046L86.5747 60.9046V62.7838Z" fill="#D9D9D9"/>
<path d="M84.5991 62.7838L82.624 62.7838L82.624 60.9046H84.5991V62.7838Z" fill="#D9D9D9"/>
<path d="M114.233 60.9057H112.258V59.0265L114.233 59.0265V60.9057Z" fill="#D9D9D9"/>
<path d="M112.257 60.9057L110.282 60.9057V59.0265L112.257 59.0265V60.9057Z" fill="#D9D9D9"/>
<path d="M110.282 60.9057L108.307 60.9057V59.0265L110.282 59.0265V60.9057Z" fill="#D9D9D9"/>
<path d="M108.306 60.9057L106.331 60.9057V59.0265L108.306 59.0265V60.9057Z" fill="#D9D9D9"/>
<path d="M106.331 60.9057H104.357V59.0265L106.331 59.0265V60.9057Z" fill="#D9D9D9"/>
<path d="M104.355 60.9057L102.38 60.9057V59.0265L104.355 59.0265V60.9057Z" fill="#D9D9D9"/>
<path d="M102.379 60.9057L100.404 60.9057V59.0265L102.379 59.0265V60.9057Z" fill="#D9D9D9"/>
<path d="M100.404 60.9057H98.4297V59.0265L100.404 59.0265V60.9057Z" fill="#D9D9D9"/>
<path d="M98.4287 60.9057L96.4537 60.9057V59.0265L98.4287 59.0265V60.9057Z" fill="#D9D9D9"/>
<path d="M96.4526 60.9057L94.4776 60.9057V59.0265L96.4526 59.0265V60.9057Z" fill="#D9D9D9"/>
<path d="M94.4765 60.9057L92.5015 60.9057V59.0265L94.4765 59.0265V60.9057Z" fill="#D9D9D9"/>
<path d="M92.5005 60.9057H90.5254V59.0265L92.5005 59.0265V60.9057Z" fill="#D9D9D9"/>
<path d="M90.5254 60.9057L88.5508 60.9057V59.0265L90.5254 59.0265V60.9057Z" fill="#D9D9D9"/>
<path d="M88.5498 60.9057L86.5747 60.9057V59.0265L88.5498 59.0265V60.9057Z" fill="#D9D9D9"/>
<path d="M86.5747 60.9057L84.6001 60.9057V59.0265L86.5747 59.0265V60.9057Z" fill="#D9D9D9"/>
<path d="M84.5991 60.9057H82.624V59.0265L84.5991 59.0265V60.9057Z" fill="#D9D9D9"/>
<path d="M82.624 60.9057L80.6494 60.9057L80.6494 59.0265L82.624 59.0265V60.9057Z" fill="#D9D9D9"/>
<path d="M80.6469 60.9057L78.6719 60.9057L78.6719 59.0265L80.6469 59.0265L80.6469 60.9057Z" fill="#D9D9D9"/>
<path d="M116.209 59.0247L114.234 59.0247V57.1455L116.209 57.1455V59.0247Z" fill="#D9D9D9"/>
<path d="M114.233 59.0247L112.258 59.0247V57.1455L114.233 57.1455V59.0247Z" fill="#D9D9D9"/>
<path d="M112.257 59.0247L110.282 59.0247V57.1455L112.257 57.1455V59.0247Z" fill="#D9D9D9"/>
<path d="M110.282 59.0247L108.307 59.0247V57.1455L110.282 57.1455V59.0247Z" fill="#D9D9D9"/>
<path d="M108.306 59.0247L106.331 59.0247V57.1455L108.306 57.1455V59.0247Z" fill="#D9D9D9"/>
<path d="M106.33 59.0247L104.355 59.0247L104.355 57.1455L106.33 57.1455V59.0247Z" fill="#D9D9D9"/>
<path d="M104.355 59.0247L102.38 59.0247V57.1455L104.355 57.1455L104.355 59.0247Z" fill="#D9D9D9"/>
<path d="M102.379 59.0247L100.404 59.0247V57.1455L102.379 57.1455V59.0247Z" fill="#D9D9D9"/>
<path d="M100.404 59.0247L98.4297 59.0247V57.1455L100.404 57.1455V59.0247Z" fill="#D9D9D9"/>
<path d="M98.4287 59.0247L96.4537 59.0247V57.1455L98.4287 57.1455V59.0247Z" fill="#D9D9D9"/>
<path d="M96.4526 59.0247L94.4776 59.0247V57.1455L96.4526 57.1455V59.0247Z" fill="#D9D9D9"/>
<path d="M94.4765 59.0247L92.5015 59.0247V57.1455L94.4765 57.1455V59.0247Z" fill="#D9D9D9"/>
<path d="M92.5005 59.0247L90.5254 59.0247V57.1455L92.5005 57.1455V59.0247Z" fill="#D9D9D9"/>
<path d="M90.5254 59.0247L88.5508 59.0247V57.1455L90.5254 57.1455V59.0247Z" fill="#D9D9D9"/>
<path d="M88.5498 59.0247L86.5747 59.0247V57.1455L88.5498 57.1455V59.0247Z" fill="#D9D9D9"/>
<path d="M86.5747 59.0247L84.6001 59.0247V57.1455L86.5747 57.1455V59.0247Z" fill="#D9D9D9"/>
<path d="M84.5991 59.0247L82.624 59.0247V57.1455L84.5991 57.1455L84.5991 59.0247Z" fill="#D9D9D9"/>
<path d="M82.624 59.0247L80.6494 59.0247L80.6494 57.1455L82.624 57.1455V59.0247Z" fill="#D9D9D9"/>
<path d="M80.6469 59.0247L78.6719 59.0247L78.6719 57.1455L80.6469 57.1455L80.6469 59.0247Z" fill="#D9D9D9"/>
<path d="M78.6719 59.0247L76.6973 59.0247L76.6973 57.1455L78.6719 57.1455L78.6719 59.0247Z" fill="#D9D9D9"/>
<path d="M36.794 41.5586V41.2699L38.328 40.53V30.6768L36.794 29.9369V29.6481H42.5688C43.435 29.6481 44.205 29.7504 44.8787 29.9549C45.5645 30.1474 46.0998 30.4422 46.4848 30.8392C46.8818 31.2242 47.0803 31.7174 47.0803 32.319C47.0803 32.9325 46.8457 33.498 46.3765 34.0153C45.9194 34.5326 45.2577 34.8935 44.3915 35.0981C45.5584 35.2545 46.4728 35.5973 47.1345 36.1267C47.8082 36.644 48.1451 37.2997 48.1451 38.0937C48.1451 38.7554 47.9225 39.3509 47.4774 39.8803C47.0322 40.3976 46.4186 40.8067 45.6366 41.1074C44.8667 41.4082 43.9884 41.5586 43.0019 41.5586H36.794ZM41.6665 30.6407H41.0529V34.9717H41.7748C42.5688 34.9717 43.1884 34.7853 43.6335 34.4123C44.0787 34.0273 44.3012 33.51 44.3012 32.8603C44.3012 31.3806 43.423 30.6407 41.6665 30.6407ZM42.2981 35.856H41.0529V40.5661H42.4244C43.3147 40.5661 44.0065 40.3435 44.4997 39.8983C45.005 39.4532 45.2577 38.8817 45.2577 38.184C45.2577 37.3899 44.999 36.8064 44.4817 36.4335C43.9764 36.0485 43.2485 35.856 42.2981 35.856ZM56.169 41.7391C55.2787 41.7391 54.4546 41.5887 53.6966 41.2879C52.9387 40.9751 52.277 40.548 51.7116 40.0066C51.1582 39.4532 50.725 38.8035 50.4122 38.0576C50.0994 37.3117 49.943 36.4936 49.943 35.6034C49.943 34.7131 50.0994 33.895 50.4122 33.1491C50.725 32.4032 51.1582 31.7595 51.7116 31.2181C52.277 30.6647 52.9387 30.2376 53.6966 29.9369C54.4546 29.6241 55.2787 29.4677 56.169 29.4677C57.0713 29.4677 57.9014 29.6241 58.6593 29.9369C59.4173 30.2376 60.073 30.6647 60.6264 31.2181C61.1918 31.7595 61.6309 32.4032 61.9437 33.1491C62.2565 33.895 62.4129 34.7131 62.4129 35.6034C62.4129 36.4936 62.2565 37.3117 61.9437 38.0576C61.6309 38.8035 61.1918 39.4532 60.6264 40.0066C60.073 40.548 59.4173 40.9751 58.6593 41.2879C57.9014 41.5887 57.0713 41.7391 56.169 41.7391ZM56.4577 40.8007C57.0592 40.8007 57.5886 40.6082 58.0458 40.2232C58.515 39.8382 58.8759 39.2968 59.1285 38.599C59.3932 37.9012 59.5256 37.0831 59.5256 36.1447C59.5256 34.9898 59.3631 33.9792 59.0383 33.113C58.7255 32.2468 58.2984 31.5791 57.757 31.1099C57.2156 30.6286 56.6081 30.388 55.9344 30.388C55.3328 30.388 54.7975 30.5805 54.3283 30.9655C53.8591 31.3385 53.4861 31.8738 53.2094 32.5716C52.9447 33.2694 52.8124 34.0875 52.8124 35.0259C52.8124 36.1808 52.9748 37.1914 53.2996 38.0576C53.6245 38.9239 54.0636 39.5976 54.617 40.0788C55.1704 40.56 55.784 40.8007 56.4577 40.8007ZM64.0563 41.5586V41.2699L65.5902 40.53V30.6948L64.0563 29.9369V29.6481H67.485L74.4869 37.5523V30.6587L72.4297 29.9369V29.6481H77.266V29.9369L75.7502 30.6768V41.6488H74.6313L66.8534 32.9506V40.53L68.9107 41.2699V41.5586H64.0563ZM78.7549 41.5586V41.2699L80.2888 40.53V30.6768L78.7549 29.9369V29.6481H84.5477V29.9369L83.0137 30.6768V40.53L84.5477 41.2699V41.5586H78.7549ZM83.0137 35.5492L87.9584 30.6046L86.623 29.9369V29.6481H90.8819V29.9369L89.6908 30.4422L85.5041 34.4665L90.5209 40.7465L91.7842 41.2699V41.5586H87.7779L83.0137 35.5492ZM97.2416 41.5586V41.2699L98.7755 40.53V30.6768L97.2416 29.9369V29.6481H103.413C104.677 29.6481 105.669 29.9128 106.391 30.4422C107.125 30.9595 107.492 31.6753 107.492 32.5897C107.492 33.2513 107.269 33.8228 106.824 34.304C106.379 34.7732 105.795 35.1462 105.074 35.4229L108.412 40.548L109.711 41.2699V41.5586H105.795L102.457 36.0365H101.5V40.5119L102.854 41.2699V41.5586H97.2416ZM102.222 30.6407H101.5V35.1522H102.331C103.077 35.1522 103.666 34.9417 104.099 34.5206C104.532 34.0995 104.749 33.5521 104.749 32.8784C104.749 32.1686 104.532 31.6212 104.099 31.2362C103.678 30.8392 103.052 30.6407 102.222 30.6407ZM116.717 41.7391C115.67 41.7391 114.75 41.5706 113.956 41.2338C113.162 40.8849 112.542 40.3254 112.097 39.5555C111.652 38.7735 111.429 37.7328 111.429 36.4335V30.6768L109.877 29.9369V29.6481H115.706V29.9369L114.154 30.6768V36.4515C114.154 37.4501 114.305 38.2381 114.606 38.8156C114.918 39.381 115.333 39.7841 115.851 40.0247C116.38 40.2653 116.964 40.3856 117.601 40.3856C118.131 40.3856 118.624 40.2773 119.081 40.0608C119.538 39.8442 119.905 39.4953 120.182 39.0141C120.458 38.5208 120.597 37.8772 120.597 37.0831V30.6407L118.9 29.9369V29.6481H123.412V29.9369L121.86 30.6587V36.4335C121.86 37.7328 121.644 38.7735 121.21 39.5555C120.777 40.3254 120.176 40.8849 119.406 41.2338C118.636 41.5706 117.74 41.7391 116.717 41.7391ZM125.034 41.5586V41.2699L126.568 40.53V30.6768L125.034 29.9369V29.6481H130.827V29.9369L129.293 30.6768V40.53L130.827 41.2699V41.5586H125.034ZM132.417 41.5586V41.2699L133.951 40.53V30.6948L132.417 29.9369V29.6481H135.845L142.847 37.5523V30.6587L140.79 29.9369V29.6481H145.626V29.9369L144.111 30.6768V41.6488H142.992L135.214 32.9506V40.53L137.271 41.2699V41.5586H132.417ZM151.282 41.7391C150.488 41.7391 149.784 41.6609 149.171 41.5045C148.569 41.336 147.986 41.1074 147.42 40.8187L147.24 37.7689H147.565L148.846 39.9886C149.171 40.2533 149.52 40.4578 149.893 40.6021C150.278 40.7465 150.669 40.8187 151.066 40.8187C151.715 40.8187 152.245 40.6683 152.654 40.3675C153.063 40.0547 153.267 39.5976 153.267 38.996C153.267 38.587 153.171 38.2501 152.979 37.9855C152.798 37.7208 152.491 37.4741 152.058 37.2456C151.625 37.0049 151.03 36.7162 150.272 36.3793C149.417 36.0064 148.762 35.5613 148.305 35.0439C147.847 34.5266 147.619 33.883 147.619 33.113C147.619 32.6318 147.739 32.1746 147.98 31.7415C148.232 31.2963 148.563 30.9053 148.972 30.5685C149.393 30.2196 149.857 29.9489 150.362 29.7564C150.879 29.5639 151.409 29.4677 151.95 29.4677C152.563 29.4677 153.153 29.5399 153.718 29.6842C154.284 29.8286 154.807 30.0331 155.288 30.2978L155.469 33.1852H155.162L153.899 31.146C153.586 30.9053 153.279 30.7249 152.979 30.6046C152.69 30.4722 152.359 30.4061 151.986 30.4061C151.493 30.4061 151.084 30.5625 150.759 30.8753C150.434 31.1881 150.272 31.6031 150.272 32.1205C150.272 32.6137 150.446 33.0228 150.795 33.3476C151.156 33.6604 151.775 34.0153 152.654 34.4123C153.748 34.9176 154.555 35.4349 155.072 35.9643C155.589 36.4936 155.848 37.1914 155.848 38.0576C155.848 38.8276 155.625 39.4893 155.18 40.0427C154.735 40.5961 154.164 41.0172 153.466 41.3059C152.768 41.5947 152.04 41.7391 151.282 41.7391Z" fill="white"/>
<defs>
<filter id="filter0_ii_637_2014" x="1.4884" y="12.0304" width="192.492" height="49.6267" filterUnits="userSpaceOnUse" color-interpolation-filters="sRGB">
<feFlood flood-opacity="0" result="BackgroundImageFix"/>
<feBlend mode="normal" in="SourceGraphic" in2="BackgroundImageFix" result="shape"/>
<feColorMatrix in="SourceAlpha" type="matrix" values="0 0 0 0 0 0 0 0 0 0 0 0 0 0 0 0 0 0 127 0" result="hardAlpha"/>
<feOffset dx="-3.00769" dy="-3.00769"/>
<feGaussianBlur stdDeviation="2.47167"/>
<feComposite in2="hardAlpha" operator="arithmetic" k2="-1" k3="1"/>
<feColorMatrix type="matrix" values="0 0 0 0 0.176471 0 0 0 0 0.133333 0 0 0 0 0.105882 0 0 0 0.25 0"/>
<feBlend mode="normal" in2="shape" result="effect1_innerShadow_637_2014"/>
<feColorMatrix in="SourceAlpha" type="matrix" values="0 0 0 0 0 0 0 0 0 0 0 0 0 0 0 0 0 0 127 0" result="hardAlpha"/>
<feOffset dx="4.51154" dy="4.51154"/>
<feGaussianBlur stdDeviation="2.47167"/>
<feComposite in2="hardAlpha" operator="arithmetic" k2="-1" k3="1"/>
<feColorMatrix type="matrix" values="0 0 0 0 0.176471 0 0 0 0 0.133333 0 0 0 0 0.105882 0 0 0 0.25 0"/>
<feBlend mode="normal" in2="effect1_innerShadow_637_2014" result="effect2_innerShadow_637_2014"/>
</filter>
</defs>
</svg>
