<svg width="34" height="32" viewBox="0 0 34 32" fill="none" xmlns="http://www.w3.org/2000/svg">
<mask id="path-1-outside-1_637_1465" maskUnits="userSpaceOnUse" x="0" y="0" width="34" height="32" fill="black">
<rect fill="white" width="34" height="32"/>
<path fill-rule="evenodd" clip-rule="evenodd" d="M2 4.625V26.875H3.875C4.28921 26.875 4.625 27.2108 4.625 27.625V30H17H29.375V27.625C29.375 27.2108 29.7108 26.875 30.125 26.875H32V4.625H30.125C29.7108 4.625 29.375 4.28921 29.375 3.875V2H17H4.625V3.875C4.625 4.28921 4.28921 4.625 3.875 4.625H2Z"/>
</mask>
<g filter="url(#filter0_ii_637_1465)">
<path fill-rule="evenodd" clip-rule="evenodd" d="M2 4.625V26.875H3.875C4.28921 26.875 4.625 27.2108 4.625 27.625V30H17H29.375V27.625C29.375 27.2108 29.7108 26.875 30.125 26.875H32V4.625H30.125C29.7108 4.625 29.375 4.28921 29.375 3.875V2H17H4.625V3.875C4.625 4.28921 4.28921 4.625 3.875 4.625H2Z" fill="#454545"/>
</g>
<path d="M2 26.875H0.727273V28.1477H2V26.875ZM2 4.625V3.35227H0.727273V4.625H2ZM4.625 30H3.35227V31.2727H4.625V30ZM29.375 30V31.2727H30.6477V30H29.375ZM32 26.875V28.1477H33.2727V26.875H32ZM32 4.625H33.2727V3.35227H32V4.625ZM29.375 2H30.6477V0.727273H29.375V2ZM4.625 2V0.727273H3.35227V2H4.625ZM3.27273 26.875V4.625H0.727273V26.875H3.27273ZM3.875 25.6023H2V28.1477H3.875V25.6023ZM5.89773 27.625C5.89773 26.5079 4.99212 25.6023 3.875 25.6023V28.1477C3.58631 28.1477 3.35227 27.9137 3.35227 27.625H5.89773ZM5.89773 30V27.625H3.35227V30H5.89773ZM17 28.7273H4.625V31.2727H17V28.7273ZM17 31.2727H29.375V28.7273H17V31.2727ZM30.6477 30V27.625H28.1023V30H30.6477ZM30.6477 27.625C30.6477 27.9137 30.4137 28.1477 30.125 28.1477V25.6023C29.0079 25.6023 28.1023 26.5079 28.1023 27.625H30.6477ZM30.125 28.1477H32V25.6023H30.125V28.1477ZM33.2727 26.875V4.625H30.7273V26.875H33.2727ZM32 3.35227H30.125V5.89773H32V3.35227ZM30.125 3.35227C30.4137 3.35227 30.6477 3.58631 30.6477 3.875H28.1023C28.1023 4.99212 29.0079 5.89773 30.125 5.89773V3.35227ZM30.6477 3.875V2H28.1023V3.875H30.6477ZM29.375 0.727273H17V3.27273H29.375V0.727273ZM4.625 3.27273H17V0.727273H4.625V3.27273ZM5.89773 3.875V2H3.35227V3.875H5.89773ZM3.875 5.89773C4.99212 5.89773 5.89773 4.99212 5.89773 3.875H3.35227C3.35227 3.58631 3.58631 3.35227 3.875 3.35227V5.89773ZM2 5.89773H3.875V3.35227H2V5.89773Z" fill="#ACADB2" mask="url(#path-1-outside-1_637_1465)"/>
<path d="M23.7502 7L16.9992 13.75L10.2498 7L8 9.25L14.7494 16L8 22.75L10.2498 25L16.9992 18.25L23.7502 25L26 22.75L19.2506 16L26 9.25L23.7502 7Z" fill="white"/>
<defs>
<filter id="filter0_ii_637_1465" x="-0.46058" y="-0.46058" width="34.9212" height="32.9212" filterUnits="userSpaceOnUse" color-interpolation-filters="sRGB">
<feFlood flood-opacity="0" result="BackgroundImageFix"/>
<feBlend mode="normal" in="SourceGraphic" in2="BackgroundImageFix" result="shape"/>
<feColorMatrix in="SourceAlpha" type="matrix" values="0 0 0 0 0 0 0 0 0 0 0 0 0 0 0 0 0 0 127 0" result="hardAlpha"/>
<feOffset dx="2.9703" dy="2.9703"/>
<feGaussianBlur stdDeviation="0.594059"/>
<feComposite in2="hardAlpha" operator="arithmetic" k2="-1" k3="1"/>
<feColorMatrix type="matrix" values="0 0 0 0 0.176471 0 0 0 0 0.133333 0 0 0 0 0.105882 0 0 0 0.25 0"/>
<feBlend mode="normal" in2="shape" result="effect1_innerShadow_637_1465"/>
<feColorMatrix in="SourceAlpha" type="matrix" values="0 0 0 0 0 0 0 0 0 0 0 0 0 0 0 0 0 0 127 0" result="hardAlpha"/>
<feOffset dx="-2.9703" dy="-2.9703"/>
<feGaussianBlur stdDeviation="0.594059"/>
<feComposite in2="hardAlpha" operator="arithmetic" k2="-1" k3="1"/>
<feColorMatrix type="matrix" values="0 0 0 0 0.176471 0 0 0 0 0.133333 0 0 0 0 0.105882 0 0 0 0.25 0"/>
<feBlend mode="normal" in2="effect1_innerShadow_637_1465" result="effect2_innerShadow_637_1465"/>
</filter>
</defs>
</svg>
