<svg width="194" height="73" viewBox="0 0 194 73" fill="none" xmlns="http://www.w3.org/2000/svg">
<g filter="url(#filter0_ii_637_2028)">
<path d="M6 55.642V16.542H187.965V55.642H6Z" fill="#6B3C24"/>
</g>
<path d="M5.24808 55.642V56.3939H6H187.965H188.717V55.642V16.542V15.7901H187.965H6H5.24808V16.542V55.642Z" stroke="#9D8C77" stroke-width="1.50385"/>
<path d="M1.50388 28.5739H4.51163V15.039H13.5349V12.0312H12.031V10.5273H0V27.07H1.50388V28.5739Z" fill="#D9D9D9"/>
<path d="M192.492 28.5739H189.484V15.039H180.461V12.0312H181.965V10.5273H193.996V27.07H192.492V28.5739Z" fill="#D9D9D9"/>
<path d="M192.492 43.6117L189.484 43.6117L189.484 57.1466L180.461 57.1466L180.461 60.1543L181.965 60.1543L181.965 61.6582L193.996 61.6582L193.996 45.1156L192.492 45.1156L192.492 43.6117Z" fill="#D9D9D9"/>
<path d="M1.50388 43.6117L4.51163 43.6117L4.51163 57.1466L13.5349 57.1466L13.5349 60.1543L12.031 60.1543L12.031 61.6582L0 61.6582L1.4462e-06 45.1156L1.50388 45.1156L1.50388 43.6117Z" fill="#D9D9D9"/>
<path d="M88.5498 0H90.5249V1.87919H88.5498V0Z" fill="#D9D9D9"/>
<path d="M94.4766 0H96.4516V1.87919H94.4766V0Z" fill="#D9D9D9"/>
<path d="M96.4527 0H98.4277V1.87919H96.4527V0Z" fill="#D9D9D9"/>
<path d="M102.378 0H104.353V1.87919H102.378V0Z" fill="#D9D9D9"/>
<path d="M86.5738 1.87954H88.5488V3.75873H86.5738V1.87954Z" fill="#D9D9D9"/>
<path d="M92.5005 1.87954H94.4755V3.75873H92.5005V1.87954Z" fill="#D9D9D9"/>
<path d="M94.4766 1.87919H96.4516V3.75873H94.4766V1.87919Z" fill="#D9D9D9"/>
<path d="M96.4527 1.87919H98.4277V3.75873H96.4527V1.87919Z" fill="#D9D9D9"/>
<path d="M98.4288 1.87954H100.404V3.75873H98.4288V1.87954Z" fill="#D9D9D9"/>
<path d="M104.356 1.87954H106.331V3.75873H104.356V1.87954Z" fill="#D9D9D9"/>
<path d="M84.5991 3.75908L86.5738 3.75873L86.5742 5.63827H84.5991V3.75908Z" fill="#D9D9D9"/>
<path d="M90.5259 3.75908L92.5005 3.75873L92.5009 5.63827H90.5259V3.75908Z" fill="#D9D9D9"/>
<path d="M92.5005 3.75873H94.4755V5.63827H92.5009L92.5005 3.75873Z" fill="#D9D9D9"/>
<path d="M94.4766 3.75873H96.4516V5.63827H94.4766V3.75873Z" fill="#D9D9D9"/>
<path d="M96.4527 3.75873H98.4277V5.63827H96.4527V3.75873Z" fill="#D9D9D9"/>
<path d="M98.4288 3.75873H100.404V5.63827H98.4288V3.75873Z" fill="#D9D9D9"/>
<path d="M100.404 3.75873L102.378 3.75908V5.63827H100.404V3.75873Z" fill="#D9D9D9"/>
<path d="M106.331 3.75873L108.305 3.75908V5.63827H106.33L106.331 3.75873Z" fill="#D9D9D9"/>
<path d="M88.5498 5.64008H90.5249V7.51927H88.5498V5.64008Z" fill="#D9D9D9"/>
<path d="M90.5259 5.64008H92.5009V7.51927H90.5259V5.64008Z" fill="#D9D9D9"/>
<path d="M92.5009 5.64008H94.4755V7.51927H92.5009V5.64008Z" fill="#D9D9D9"/>
<path d="M98.4288 5.64008H100.404V7.51927H98.4288V5.64008Z" fill="#D9D9D9"/>
<path d="M100.404 5.64008H102.378V7.51927H100.404V5.64008Z" fill="#D9D9D9"/>
<path d="M102.378 5.64008H104.353V7.51927H102.378V5.64008Z" fill="#D9D9D9"/>
<path d="M86.5738 7.51963H88.5488V9.39881H86.5738V7.51963Z" fill="#D9D9D9"/>
<path d="M88.5498 7.51927H90.5249V9.39881H88.5498V7.51927Z" fill="#D9D9D9"/>
<path d="M90.5259 7.51927H92.5009V9.39881H90.5259V7.51927Z" fill="#D9D9D9"/>
<path d="M100.404 7.51927H102.378V9.39881H100.403L100.404 7.51927Z" fill="#D9D9D9"/>
<path d="M102.378 7.51927H104.353V9.39881H102.378V7.51927Z" fill="#D9D9D9"/>
<path d="M104.356 7.51963H106.331V9.39881H104.356V7.51963Z" fill="#D9D9D9"/>
<path d="M82.6231 9.40063H84.5981V11.2798H82.6231V9.40063Z" fill="#D9D9D9"/>
<path d="M84.5991 9.40063H86.5742V11.2798H84.5991V9.40063Z" fill="#D9D9D9"/>
<path d="M86.5742 9.40063H88.5488V11.2798H86.5742V9.40063Z" fill="#D9D9D9"/>
<path d="M88.5498 9.40063H90.5249V11.2798H88.5498V9.40063Z" fill="#D9D9D9"/>
<path d="M102.378 9.40063H104.353V11.2798H102.378V9.40063Z" fill="#D9D9D9"/>
<path d="M104.356 9.40063H106.331V11.2798H104.356V9.40063Z" fill="#D9D9D9"/>
<path d="M106.331 9.40063H108.305V11.2798H106.331V9.40063Z" fill="#D9D9D9"/>
<path d="M108.306 9.40063H110.281V11.2798H108.306V9.40063Z" fill="#D9D9D9"/>
<path d="M78.6709 11.2787H80.6459V13.1579H78.6709V11.2787Z" fill="#D9D9D9"/>
<path d="M80.647 11.2787H82.622V13.1579H80.647V11.2787Z" fill="#D9D9D9"/>
<path d="M82.6231 11.2787H84.5981V13.1579H82.6231V11.2787Z" fill="#D9D9D9"/>
<path d="M84.5991 11.2787H86.5742V13.1579H84.5991V11.2787Z" fill="#D9D9D9"/>
<path d="M86.5742 11.2787H88.5488V13.1579H86.5742V11.2787Z" fill="#D9D9D9"/>
<path d="M88.5498 11.2787H90.5249V13.1579H88.5498V11.2787Z" fill="#D9D9D9"/>
<path d="M90.5259 11.2787H92.5009V13.1579H90.5259V11.2787Z" fill="#D9D9D9"/>
<path d="M92.5009 11.2787H94.4755V13.1579H92.5009V11.2787Z" fill="#D9D9D9"/>
<path d="M94.4766 11.2787H96.4516V13.1579H94.4766V11.2787Z" fill="#D9D9D9"/>
<path d="M96.4527 11.2787H98.4277V13.1579H96.4527V11.2787Z" fill="#D9D9D9"/>
<path d="M98.4288 11.2787H100.404V13.1579H98.4288V11.2787Z" fill="#D9D9D9"/>
<path d="M100.404 11.2787H102.378V13.1579H100.404V11.2787Z" fill="#D9D9D9"/>
<path d="M102.378 11.2787H104.353V13.1579H102.378V11.2787Z" fill="#D9D9D9"/>
<path d="M104.356 11.2787H106.331V13.1579H104.356V11.2787Z" fill="#D9D9D9"/>
<path d="M106.331 11.2787H108.305V13.1579H106.331V11.2787Z" fill="#D9D9D9"/>
<path d="M108.306 11.2787H110.281V13.1579H108.306V11.2787Z" fill="#D9D9D9"/>
<path d="M110.281 11.2787H112.256V13.1579H110.281V11.2787Z" fill="#D9D9D9"/>
<path d="M112.257 11.2787H114.232V13.1579H112.257V11.2787Z" fill="#D9D9D9"/>
<path d="M76.6963 13.1597H78.6713V15.0389H76.6963V13.1597Z" fill="#D9D9D9"/>
<path d="M78.6713 13.1597H80.6459V15.0389H78.6713V13.1597Z" fill="#D9D9D9"/>
<path d="M80.647 13.1597H82.622V15.0389H80.647V13.1597Z" fill="#D9D9D9"/>
<path d="M82.6231 13.1597H84.5981V15.0389H82.6231V13.1597Z" fill="#D9D9D9"/>
<path d="M84.5991 13.1597H86.5742V15.0389H84.5991V13.1597Z" fill="#D9D9D9"/>
<path d="M86.5742 13.1597H88.5488V15.0389H86.5742V13.1597Z" fill="#D9D9D9"/>
<path d="M88.5498 13.1597H90.5249V15.0389H88.5498V13.1597Z" fill="#D9D9D9"/>
<path d="M90.5259 13.1597H92.5009V15.0389H90.5259V13.1597Z" fill="#D9D9D9"/>
<path d="M92.5009 13.1597H94.4755V15.0389H92.5009V13.1597Z" fill="#D9D9D9"/>
<path d="M94.4766 13.1597H96.4516V15.0389H94.4766V13.1597Z" fill="#D9D9D9"/>
<path d="M96.4527 13.1597H98.4277V15.0389H96.4527V13.1597Z" fill="#D9D9D9"/>
<path d="M98.4288 13.1597H100.404V15.0389H98.4288V13.1597Z" fill="#D9D9D9"/>
<path d="M100.404 13.1597H102.378V15.0389H100.404V13.1597Z" fill="#D9D9D9"/>
<path d="M102.378 13.1597H104.353V15.0389H102.378V13.1597Z" fill="#D9D9D9"/>
<path d="M104.356 13.1597H106.331V15.0389H104.356V13.1597Z" fill="#D9D9D9"/>
<path d="M106.331 13.1597H108.305V15.0389H106.331V13.1597Z" fill="#D9D9D9"/>
<path d="M108.306 13.1597H110.281V15.0389H108.306V13.1597Z" fill="#D9D9D9"/>
<path d="M110.281 13.1597H112.256V15.0389H110.281V13.1597Z" fill="#D9D9D9"/>
<path d="M112.257 13.1597H114.232V15.0389H112.257V13.1597Z" fill="#D9D9D9"/>
<path d="M114.233 13.1597H116.208V15.0389H114.233V13.1597Z" fill="#D9D9D9"/>
<path d="M104.355 72.1844H102.38V70.3052H104.355V72.1844Z" fill="#D9D9D9"/>
<path d="M98.4287 72.1844H96.4537V70.3052H98.4287V72.1844Z" fill="#D9D9D9"/>
<path d="M96.4526 72.1844H94.4776V70.3052H96.4526V72.1844Z" fill="#D9D9D9"/>
<path d="M90.5258 72.1844H88.5508V70.3052H90.5258V72.1844Z" fill="#D9D9D9"/>
<path d="M106.332 70.3034H104.357L104.357 68.4242H106.332V70.3034Z" fill="#D9D9D9"/>
<path d="M100.405 70.3034H98.4297L98.4297 68.4242H100.405V70.3034Z" fill="#D9D9D9"/>
<path d="M98.4287 70.3034H96.4537L96.4537 68.4242H98.4287V70.3034Z" fill="#D9D9D9"/>
<path d="M96.4526 70.3034H94.4776L94.4776 68.4242H96.4526V70.3034Z" fill="#D9D9D9"/>
<path d="M94.4765 70.3034H92.5015V68.4242H94.4765V70.3034Z" fill="#D9D9D9"/>
<path d="M88.5498 70.3034H86.5747V68.4242H88.5498V70.3034Z" fill="#D9D9D9"/>
<path d="M108.306 68.4253H106.331V66.5461H108.306V68.4253Z" fill="#D9D9D9"/>
<path d="M102.379 68.4253H100.404V66.5461H102.379V68.4253Z" fill="#D9D9D9"/>
<path d="M100.404 68.4253H98.4297V66.5461H100.404V68.4253Z" fill="#D9D9D9"/>
<path d="M98.4287 68.4253H96.4537V66.5461H98.4287V68.4253Z" fill="#D9D9D9"/>
<path d="M96.4526 68.4253H94.4776V66.5461H96.4526V68.4253Z" fill="#D9D9D9"/>
<path d="M94.4765 68.4253H92.5015V66.5461H94.4765V68.4253Z" fill="#D9D9D9"/>
<path d="M92.5005 68.4253H90.5254V66.5461H92.5005L92.5005 68.4253Z" fill="#D9D9D9"/>
<path d="M86.5751 68.4253H84.6001L84.6001 66.5461H86.5751L86.5751 68.4253Z" fill="#D9D9D9"/>
<path d="M104.355 66.5443L102.38 66.5443V64.6651H104.355V66.5443Z" fill="#D9D9D9"/>
<path d="M102.379 66.5443H100.404V64.6651H102.379V66.5443Z" fill="#D9D9D9"/>
<path d="M100.404 66.5443H98.4297V64.6651L100.404 64.6651V66.5443Z" fill="#D9D9D9"/>
<path d="M94.4765 66.5443H92.5015V64.6651L94.4765 64.6651V66.5443Z" fill="#D9D9D9"/>
<path d="M92.5005 66.5443H90.5254V64.6651H92.5005V66.5443Z" fill="#D9D9D9"/>
<path d="M90.5254 66.5443H88.5508V64.6651L90.5254 64.6651V66.5443Z" fill="#D9D9D9"/>
<path d="M106.33 64.6662L104.355 64.6662V62.7871L106.33 62.7871V64.6662Z" fill="#D9D9D9"/>
<path d="M104.355 64.6662H102.38V62.7871H104.355V64.6662Z" fill="#D9D9D9"/>
<path d="M102.379 64.6662H100.404V62.7871H102.379V64.6662Z" fill="#D9D9D9"/>
<path d="M92.5005 64.6662H90.5254L90.5254 62.7871H92.5005V64.6662Z" fill="#D9D9D9"/>
<path d="M90.5254 64.6662L88.5508 64.6662L88.5508 62.7871L90.5254 62.7871L90.5254 64.6662Z" fill="#D9D9D9"/>
<path d="M88.5498 64.6662H86.5747L86.5747 62.7871H88.5498V64.6662Z" fill="#D9D9D9"/>
<path d="M110.282 62.7838H108.307V60.9046L110.282 60.9046V62.7838Z" fill="#D9D9D9"/>
<path d="M108.306 62.7838H106.331V60.9046L108.306 60.9046V62.7838Z" fill="#D9D9D9"/>
<path d="M106.331 62.7838L104.357 62.7838V60.9046H106.331V62.7838Z" fill="#D9D9D9"/>
<path d="M104.355 62.7838H102.38V60.9046L104.355 60.9046V62.7838Z" fill="#D9D9D9"/>
<path d="M90.5258 62.7838L88.5508 62.7838V60.9046L90.5258 60.9046V62.7838Z" fill="#D9D9D9"/>
<path d="M88.5498 62.7838H86.5747V60.9046L88.5498 60.9046V62.7838Z" fill="#D9D9D9"/>
<path d="M86.5747 62.7838L84.6001 62.7838L84.6001 60.9046L86.5747 60.9046V62.7838Z" fill="#D9D9D9"/>
<path d="M84.5991 62.7838L82.624 62.7838L82.624 60.9046H84.5991V62.7838Z" fill="#D9D9D9"/>
<path d="M114.233 60.9057H112.258V59.0265L114.233 59.0265V60.9057Z" fill="#D9D9D9"/>
<path d="M112.257 60.9057L110.282 60.9057V59.0265L112.257 59.0265V60.9057Z" fill="#D9D9D9"/>
<path d="M110.282 60.9057L108.307 60.9057V59.0265L110.282 59.0265V60.9057Z" fill="#D9D9D9"/>
<path d="M108.306 60.9057L106.331 60.9057V59.0265L108.306 59.0265V60.9057Z" fill="#D9D9D9"/>
<path d="M106.331 60.9057H104.357V59.0265L106.331 59.0265V60.9057Z" fill="#D9D9D9"/>
<path d="M104.355 60.9057L102.38 60.9057V59.0265L104.355 59.0265V60.9057Z" fill="#D9D9D9"/>
<path d="M102.379 60.9057L100.404 60.9057V59.0265L102.379 59.0265V60.9057Z" fill="#D9D9D9"/>
<path d="M100.404 60.9057H98.4297V59.0265L100.404 59.0265V60.9057Z" fill="#D9D9D9"/>
<path d="M98.4287 60.9057L96.4537 60.9057V59.0265L98.4287 59.0265V60.9057Z" fill="#D9D9D9"/>
<path d="M96.4526 60.9057L94.4776 60.9057V59.0265L96.4526 59.0265V60.9057Z" fill="#D9D9D9"/>
<path d="M94.4765 60.9057L92.5015 60.9057V59.0265L94.4765 59.0265V60.9057Z" fill="#D9D9D9"/>
<path d="M92.5005 60.9057H90.5254V59.0265L92.5005 59.0265V60.9057Z" fill="#D9D9D9"/>
<path d="M90.5254 60.9057L88.5508 60.9057V59.0265L90.5254 59.0265V60.9057Z" fill="#D9D9D9"/>
<path d="M88.5498 60.9057L86.5747 60.9057V59.0265L88.5498 59.0265V60.9057Z" fill="#D9D9D9"/>
<path d="M86.5747 60.9057L84.6001 60.9057V59.0265L86.5747 59.0265V60.9057Z" fill="#D9D9D9"/>
<path d="M84.5991 60.9057H82.624V59.0265L84.5991 59.0265V60.9057Z" fill="#D9D9D9"/>
<path d="M82.624 60.9057L80.6494 60.9057L80.6494 59.0265L82.624 59.0265V60.9057Z" fill="#D9D9D9"/>
<path d="M80.6469 60.9057L78.6719 60.9057L78.6719 59.0265L80.6469 59.0265L80.6469 60.9057Z" fill="#D9D9D9"/>
<path d="M116.209 59.0247L114.234 59.0247V57.1455L116.209 57.1455V59.0247Z" fill="#D9D9D9"/>
<path d="M114.233 59.0247L112.258 59.0247V57.1455L114.233 57.1455V59.0247Z" fill="#D9D9D9"/>
<path d="M112.257 59.0247L110.282 59.0247V57.1455L112.257 57.1455V59.0247Z" fill="#D9D9D9"/>
<path d="M110.282 59.0247L108.307 59.0247V57.1455L110.282 57.1455V59.0247Z" fill="#D9D9D9"/>
<path d="M108.306 59.0247L106.331 59.0247V57.1455L108.306 57.1455V59.0247Z" fill="#D9D9D9"/>
<path d="M106.33 59.0247L104.355 59.0247L104.355 57.1455L106.33 57.1455V59.0247Z" fill="#D9D9D9"/>
<path d="M104.355 59.0247L102.38 59.0247V57.1455L104.355 57.1455L104.355 59.0247Z" fill="#D9D9D9"/>
<path d="M102.379 59.0247L100.404 59.0247V57.1455L102.379 57.1455V59.0247Z" fill="#D9D9D9"/>
<path d="M100.404 59.0247L98.4297 59.0247V57.1455L100.404 57.1455V59.0247Z" fill="#D9D9D9"/>
<path d="M98.4287 59.0247L96.4537 59.0247V57.1455L98.4287 57.1455V59.0247Z" fill="#D9D9D9"/>
<path d="M96.4526 59.0247L94.4776 59.0247V57.1455L96.4526 57.1455V59.0247Z" fill="#D9D9D9"/>
<path d="M94.4765 59.0247L92.5015 59.0247V57.1455L94.4765 57.1455V59.0247Z" fill="#D9D9D9"/>
<path d="M92.5005 59.0247L90.5254 59.0247V57.1455L92.5005 57.1455V59.0247Z" fill="#D9D9D9"/>
<path d="M90.5254 59.0247L88.5508 59.0247V57.1455L90.5254 57.1455V59.0247Z" fill="#D9D9D9"/>
<path d="M88.5498 59.0247L86.5747 59.0247V57.1455L88.5498 57.1455V59.0247Z" fill="#D9D9D9"/>
<path d="M86.5747 59.0247L84.6001 59.0247V57.1455L86.5747 57.1455V59.0247Z" fill="#D9D9D9"/>
<path d="M84.5991 59.0247L82.624 59.0247V57.1455L84.5991 57.1455L84.5991 59.0247Z" fill="#D9D9D9"/>
<path d="M82.624 59.0247L80.6494 59.0247L80.6494 57.1455L82.624 57.1455V59.0247Z" fill="#D9D9D9"/>
<path d="M80.6469 59.0247L78.6719 59.0247L78.6719 57.1455L80.6469 57.1455L80.6469 59.0247Z" fill="#D9D9D9"/>
<path d="M78.6719 59.0247L76.6973 59.0247L76.6973 57.1455L78.6719 57.1455L78.6719 59.0247Z" fill="#D9D9D9"/>
<path d="M20.794 41.5586V41.2699L22.328 40.53V30.6768L20.794 29.9369V29.6481H30.6292V32.7701H30.3404L29.005 30.6407H25.0529V34.9176H27.832L28.8426 33.3656H29.1314V37.426H28.8426L27.832 35.9101H25.0529V40.5661H29.4381L30.8457 37.8772H31.1345V41.5586H20.794ZM32.6262 41.5586V41.2699L33.7271 40.6563L38.4371 29.5579H40.0252L44.6811 40.6202L45.9082 41.2699V41.5586H40.2056V41.2699L41.7756 40.6202L40.5485 37.6245H36.2716L35.0444 40.6202L36.5423 41.2699V41.5586H32.6262ZM36.6866 36.632H40.1334L38.4191 32.4272L36.6866 36.632ZM51.1491 41.7391C50.355 41.7391 49.6512 41.6609 49.0377 41.5045C48.4361 41.336 47.8526 41.1074 47.2872 40.8187L47.1067 37.7689H47.4316L48.7128 39.9886C49.0377 40.2533 49.3866 40.4578 49.7595 40.6021C50.1445 40.7465 50.5355 40.8187 50.9325 40.8187C51.5822 40.8187 52.1115 40.6683 52.5206 40.3675C52.9296 40.0547 53.1341 39.5976 53.1341 38.996C53.1341 38.587 53.0379 38.2501 52.8454 37.9855C52.6649 37.7208 52.3582 37.4741 51.925 37.2456C51.4919 37.0049 50.8964 36.7162 50.1385 36.3793C49.2843 36.0064 48.6286 35.5613 48.1715 35.0439C47.7143 34.5266 47.4857 33.883 47.4857 33.113C47.4857 32.6318 47.606 32.1746 47.8466 31.7415C48.0993 31.2963 48.4301 30.9053 48.8392 30.5685C49.2602 30.2196 49.7234 29.9489 50.2287 29.7564C50.746 29.5639 51.2754 29.4677 51.8168 29.4677C52.4303 29.4677 53.0198 29.5399 53.5853 29.6842C54.1507 29.8286 54.6741 30.0331 55.1553 30.2978L55.3358 33.1852H55.029L53.7658 31.146C53.453 30.9053 53.1462 30.7249 52.8454 30.6046C52.5567 30.4722 52.2258 30.4061 51.8529 30.4061C51.3596 30.4061 50.9506 30.5625 50.6257 30.8753C50.3009 31.1881 50.1385 31.6031 50.1385 32.1205C50.1385 32.6137 50.3129 33.0228 50.6618 33.3476C51.0227 33.6604 51.6423 34.0153 52.5206 34.4123C53.6154 34.9176 54.4214 35.4349 54.9388 35.9643C55.4561 36.4936 55.7147 37.1914 55.7147 38.0576C55.7147 38.8276 55.4922 39.4893 55.047 40.0427C54.6019 40.5961 54.0304 41.0172 53.3326 41.3059C52.6349 41.5947 51.907 41.7391 51.1491 41.7391ZM59.6356 41.5586V41.2699L61.5484 40.53V30.6407H58.9678L57.5242 33.6183H57.2354V29.6481H68.5864V33.6183H68.2977L66.854 30.6407H64.2734V40.53L66.1863 41.2699V41.5586H59.6356ZM74.5448 41.5586V41.2699L76.0787 40.53V30.6768L74.5448 29.9369V29.6481H80.6985C82.1302 29.6481 83.3453 29.8827 84.3438 30.3519C85.3424 30.8211 86.1003 31.4648 86.6176 32.2829C87.147 33.101 87.4117 34.0273 87.4117 35.062C87.4117 36.0004 87.2372 36.8666 86.8883 37.6606C86.5515 38.4547 86.0763 39.1404 85.4627 39.7179C84.8491 40.2954 84.1273 40.7465 83.2972 41.0713C82.467 41.3962 81.5587 41.5586 80.5722 41.5586H74.5448ZM79.9586 30.6407H78.8037V40.5661H80.2113C81.6068 40.5661 82.6836 40.1209 83.4415 39.2306C84.1995 38.3283 84.5784 37.1253 84.5784 35.6214C84.5784 34.1055 84.1874 32.8964 83.4054 31.9941C82.6355 31.0918 81.4865 30.6407 79.9586 30.6407ZM95.7824 41.7391C94.7357 41.7391 93.8154 41.5706 93.0213 41.2338C92.2273 40.8849 91.6077 40.3254 91.1626 39.5555C90.7175 38.7735 90.4949 37.7328 90.4949 36.4335V30.6768L88.9429 29.9369V29.6481H94.7718V29.9369L93.2199 30.6768V36.4515C93.2199 37.4501 93.3702 38.2381 93.671 38.8156C93.9838 39.381 94.3989 39.7841 94.9162 40.0247C95.4455 40.2653 96.029 40.3856 96.6667 40.3856C97.196 40.3856 97.6893 40.2773 98.1465 40.0608C98.6036 39.8442 98.9706 39.4953 99.2473 39.0141C99.524 38.5208 99.6623 37.8772 99.6623 37.0831V30.6407L97.966 29.9369V29.6481H102.478V29.9369L100.926 30.6587V36.4335C100.926 37.7328 100.709 38.7735 100.276 39.5555C99.8428 40.3254 99.2413 40.8849 98.4713 41.2338C97.7013 41.5706 96.805 41.7391 95.7824 41.7391ZM104.028 41.5586V41.2699L105.561 40.53V30.6948L104.028 29.9369V29.6481H107.456L114.458 37.5523V30.6587L112.401 29.9369V29.6481H117.237V29.9369L115.721 30.6768V41.6488H114.603L106.825 32.9506V40.53L108.882 41.2699V41.5586H104.028ZM125.131 41.7391C124.265 41.7391 123.453 41.5947 122.695 41.3059C121.949 41.0052 121.287 40.5901 120.71 40.0608C120.144 39.5314 119.699 38.9118 119.374 38.202C119.061 37.4802 118.905 36.6982 118.905 35.856C118.905 34.9296 119.085 34.0815 119.446 33.3115C119.807 32.5295 120.306 31.8498 120.944 31.2723C121.582 30.6948 122.31 30.2497 123.128 29.9369C123.946 29.6241 124.806 29.4677 125.708 29.4677C126.346 29.4677 126.887 29.5038 127.332 29.5759C127.79 29.6481 128.193 29.7504 128.542 29.8827C128.902 30.0151 129.257 30.1655 129.606 30.3339L129.805 33.51H129.48L127.748 30.8933C127.423 30.6888 127.11 30.5504 126.809 30.4783C126.508 30.394 126.165 30.3519 125.78 30.3519C125.023 30.3519 124.337 30.5685 123.723 31.0016C123.11 31.4347 122.622 32.0423 122.261 32.8243C121.901 33.5942 121.72 34.4965 121.72 35.5312C121.72 36.6139 121.895 37.5463 122.243 38.3283C122.592 39.0983 123.062 39.6938 123.651 40.1149C124.253 40.536 124.92 40.7465 125.654 40.7465C125.859 40.7465 126.081 40.7405 126.322 40.7285C126.562 40.7044 126.803 40.6683 127.044 40.6202V37.2817L125.438 36.4335V36.1447H131.104V36.4335L129.751 37.2997V40.2232C129.378 40.536 128.927 40.8067 128.397 41.0353C127.88 41.2518 127.332 41.4263 126.755 41.5586C126.19 41.6789 125.648 41.7391 125.131 41.7391ZM132.437 41.5586V41.2699L133.971 40.53V30.6768L132.437 29.9369V29.6481H142.272V32.7701H141.983L140.648 30.6407H136.696V34.9176H139.475L140.486 33.3656H140.774V37.426H140.486L139.475 35.9101H136.696V40.5661H141.081L142.489 37.8772H142.777V41.5586H132.437ZM151.036 41.7391C150.146 41.7391 149.322 41.5887 148.564 41.2879C147.806 40.9751 147.145 40.548 146.579 40.0066C146.026 39.4532 145.593 38.8035 145.28 38.0576C144.967 37.3117 144.811 36.4936 144.811 35.6034C144.811 34.7131 144.967 33.895 145.28 33.1491C145.593 32.4032 146.026 31.7595 146.579 31.2181C147.145 30.6647 147.806 30.2376 148.564 29.9369C149.322 29.6241 150.146 29.4677 151.036 29.4677C151.939 29.4677 152.769 29.6241 153.527 29.9369C154.285 30.2376 154.94 30.6647 155.494 31.2181C156.059 31.7595 156.498 32.4032 156.811 33.1491C157.124 33.895 157.28 34.7131 157.28 35.6034C157.28 36.4936 157.124 37.3117 156.811 38.0576C156.498 38.8035 156.059 39.4532 155.494 40.0066C154.94 40.548 154.285 40.9751 153.527 41.2879C152.769 41.5887 151.939 41.7391 151.036 41.7391ZM151.325 40.8007C151.927 40.8007 152.456 40.6082 152.913 40.2232C153.382 39.8382 153.743 39.2968 153.996 38.599C154.261 37.9012 154.393 37.0831 154.393 36.1447C154.393 34.9898 154.231 33.9792 153.906 33.113C153.593 32.2468 153.166 31.5791 152.625 31.1099C152.083 30.6286 151.476 30.388 150.802 30.388C150.2 30.388 149.665 30.5805 149.196 30.9655C148.727 31.3385 148.354 31.8738 148.077 32.5716C147.812 33.2694 147.68 34.0875 147.68 35.0259C147.68 36.1808 147.842 37.1914 148.167 38.0576C148.492 38.9239 148.931 39.5976 149.485 40.0788C150.038 40.56 150.651 40.8007 151.325 40.8007ZM158.924 41.5586V41.2699L160.458 40.53V30.6948L158.924 29.9369V29.6481H162.353L169.354 37.5523V30.6587L167.297 29.9369V29.6481H172.134V29.9369L170.618 30.6768V41.6488H169.499L161.721 32.9506V40.53L163.778 41.2699V41.5586H158.924Z" fill="white"/>
<defs>
<filter id="filter0_ii_637_2028" x="1.4884" y="12.0304" width="192.492" height="49.6267" filterUnits="userSpaceOnUse" color-interpolation-filters="sRGB">
<feFlood flood-opacity="0" result="BackgroundImageFix"/>
<feBlend mode="normal" in="SourceGraphic" in2="BackgroundImageFix" result="shape"/>
<feColorMatrix in="SourceAlpha" type="matrix" values="0 0 0 0 0 0 0 0 0 0 0 0 0 0 0 0 0 0 127 0" result="hardAlpha"/>
<feOffset dx="-3.00769" dy="-3.00769"/>
<feGaussianBlur stdDeviation="2.47167"/>
<feComposite in2="hardAlpha" operator="arithmetic" k2="-1" k3="1"/>
<feColorMatrix type="matrix" values="0 0 0 0 0.176471 0 0 0 0 0.133333 0 0 0 0 0.105882 0 0 0 0.25 0"/>
<feBlend mode="normal" in2="shape" result="effect1_innerShadow_637_2028"/>
<feColorMatrix in="SourceAlpha" type="matrix" values="0 0 0 0 0 0 0 0 0 0 0 0 0 0 0 0 0 0 127 0" result="hardAlpha"/>
<feOffset dx="4.51154" dy="4.51154"/>
<feGaussianBlur stdDeviation="2.47167"/>
<feComposite in2="hardAlpha" operator="arithmetic" k2="-1" k3="1"/>
<feColorMatrix type="matrix" values="0 0 0 0 0.176471 0 0 0 0 0.133333 0 0 0 0 0.105882 0 0 0 0.25 0"/>
<feBlend mode="normal" in2="effect1_innerShadow_637_2028" result="effect2_innerShadow_637_2028"/>
</filter>
</defs>
</svg>
