<svg width="10" height="12" viewBox="0 0 10 12" fill="none" xmlns="http://www.w3.org/2000/svg">
<path fill-rule="evenodd" clip-rule="evenodd" d="M5.22441 0.175679C5.11189 0.0631918 4.9593 0 4.8002 0C4.64109 0 4.4885 0.0631918 4.37598 0.175679C3.88996 0.661699 3.19213 0.949711 2.4661 1.09972C1.74487 1.24852 1.05784 1.24732 0.666027 1.20352C0.582171 1.19424 0.4973 1.20275 0.416954 1.22849C0.336608 1.25423 0.262594 1.29663 0.199743 1.35291C0.136892 1.40919 0.0866165 1.4781 0.0521987 1.55513C0.0177808 1.63216 -5.77051e-06 1.71558 1.40433e-09 1.79995V7.20017C1.40433e-09 7.9802 0.340814 8.66963 0.782432 9.23725C1.22525 9.80608 1.80067 10.2951 2.3515 10.6887C3.04135 11.1771 3.7768 11.5977 4.54759 11.9446L4.55839 11.9494L4.56199 11.9512H4.56379C4.63845 11.9833 4.71886 11.9999 4.80014 12C4.88141 12.0001 4.96186 11.9837 5.03661 11.9518L4.8002 11.4003C5.03661 11.9524 5.03721 11.9518 5.03721 11.9518L5.03841 11.9512L5.04141 11.9494L5.05341 11.9446L5.09241 11.9272C5.30928 11.8285 5.52337 11.7239 5.73444 11.6133C6.25947 11.3395 6.76544 11.0306 7.2489 10.6887C7.79972 10.2951 8.37514 9.80668 8.81796 9.23725C9.25958 8.67023 9.6004 7.9802 9.6004 7.20017V1.79995C9.6004 1.71558 9.58261 1.63216 9.5482 1.55513C9.51378 1.4781 9.4635 1.40919 9.40065 1.35291C9.3378 1.29663 9.26379 1.25423 9.18344 1.22849C9.1031 1.20275 9.01822 1.19424 8.93437 1.20352C8.54255 1.24732 7.85552 1.24852 7.13429 1.09972C6.40826 0.949711 5.71043 0.661699 5.22441 0.175679Z" fill="white"/>
</svg>
