<svg width="60" height="93" viewBox="0 0 60 93" fill="none" xmlns="http://www.w3.org/2000/svg">
<path d="M24.5455 92.3077V81.448H13.6364V70.5882H24.5455V59.1855C17.3636 57.9185 11.4764 54.5014 6.88364 48.9339C2.29091 43.3665 -0.00363205 36.9195 4.3153e-06 29.5928C4.3153e-06 21.3575 2.93273 14.3674 8.79818 8.62262C14.6636 2.87783 21.7309 0.00361991 30 0C38.2727 0 45.3418 2.87421 51.2073 8.62262C57.0727 14.371 60.0036 21.3611 60 29.5928C60 36.9231 57.7036 43.3719 53.1109 48.9394C48.5182 54.5068 42.6327 57.9222 35.4545 59.1855V70.5882H46.3636V81.448H35.4545V92.3077H24.5455ZM30 48.8688C35.2727 48.8688 39.7727 47.0136 43.5 43.3032C47.2273 39.5928 49.0909 35.1131 49.0909 29.8643C49.0909 24.6154 47.2273 20.1357 43.5 16.4253C39.7727 12.7149 35.2727 10.8597 30 10.8597C24.7273 10.8597 20.2273 12.7149 16.5 16.4253C12.7727 20.1357 10.9091 24.6154 10.9091 29.8643C10.9091 35.1131 12.7727 39.5928 16.5 43.3032C20.2273 47.0136 24.7273 48.8688 30 48.8688Z" fill="#6B3C24"/>
</svg>
