<svg width="80" height="80" viewBox="0 0 80 80" fill="none" xmlns="http://www.w3.org/2000/svg">
<path d="M80 0V30H70V17.125L50.125 36.875C51.7083 39.2083 52.9167 41.6883 53.75 44.315C54.5833 46.9417 55 49.67 55 52.5C55 60.1667 52.3333 66.6667 47 72C41.6667 77.3333 35.1667 80 27.5 80C19.8333 80 13.3333 77.3333 8 72C2.66667 66.6667 0 60.1667 0 52.5C0 44.8333 2.66667 38.3333 8 33C13.3333 27.6667 19.8333 25 27.5 25C30.25 25 32.9583 25.395 35.625 26.185C38.2917 26.975 40.75 28.205 43 29.875L62.875 10H50V0H80ZM27.5 35C22.6667 35 18.5417 36.7083 15.125 40.125C11.7083 43.5417 10 47.6667 10 52.5C10 57.3333 11.7083 61.4583 15.125 64.875C18.5417 68.2917 22.6667 70 27.5 70C32.3333 70 36.4583 68.2917 39.875 64.875C43.2917 61.4583 45 57.3333 45 52.5C45 47.6667 43.2917 43.5417 39.875 40.125C36.4583 36.7083 32.3333 35 27.5 35Z" fill="#6B3C24"/>
</svg>
