<svg width="34" height="32" viewBox="0 0 34 32" fill="none" xmlns="http://www.w3.org/2000/svg">
<mask id="path-1-outside-1_637_256" maskUnits="userSpaceOnUse" x="0" y="0" width="34" height="32" fill="black">
<rect fill="white" width="34" height="32"/>
<path fill-rule="evenodd" clip-rule="evenodd" d="M2 4.625V26.875H3.85C4.27802 26.875 4.625 27.222 4.625 27.65V30H17L29.375 30V27.65C29.375 27.222 29.722 26.875 30.15 26.875H32V4.625H30.15C29.722 4.625 29.375 4.27802 29.375 3.85V2H17H4.625V3.85C4.625 4.27802 4.27802 4.625 3.85 4.625H2Z"/>
</mask>
<g filter="url(#filter0_ii_637_256)">
<path fill-rule="evenodd" clip-rule="evenodd" d="M2 4.625V26.875H3.85C4.27802 26.875 4.625 27.222 4.625 27.65V30H17L29.375 30V27.65C29.375 27.222 29.722 26.875 30.15 26.875H32V4.625H30.15C29.722 4.625 29.375 4.27802 29.375 3.85V2H17H4.625V3.85C4.625 4.27802 4.27802 4.625 3.85 4.625H2Z" fill="#454545"/>
</g>
<path d="M2 26.875H0.684848V28.1902H2V26.875ZM2 4.625V3.30985H0.684848V4.625H2ZM4.625 30H3.30985V31.3152H4.625V30ZM17 30V28.6849V30ZM29.375 30V31.3152H30.6902V30H29.375ZM32 26.875V28.1902H33.3152V26.875H32ZM32 4.625H33.3152V3.30985H32V4.625ZM29.375 2H30.6902V0.684848H29.375V2ZM4.625 2V0.684848H3.30985V2H4.625ZM3.31515 26.875V4.625H0.684848V26.875H3.31515ZM3.85 25.5598H2V28.1902H3.85V25.5598ZM5.94015 27.65C5.94015 26.4956 5.00436 25.5598 3.85 25.5598V28.1902C3.55168 28.1902 3.30985 27.9483 3.30985 27.65H5.94015ZM5.94015 30V27.65H3.30985V30H5.94015ZM17 28.6849H4.625V31.3152H17V28.6849ZM17 31.3152L29.375 31.3152V28.6849L17 28.6849V31.3152ZM30.6902 30V27.65H28.0598V30H30.6902ZM30.6902 27.65C30.6902 27.9483 30.4483 28.1902 30.15 28.1902V25.5599C28.9956 25.5599 28.0598 26.4956 28.0598 27.65H30.6902ZM30.15 28.1902H32V25.5599H30.15V28.1902ZM33.3152 26.875V4.625H30.6848V26.875H33.3152ZM32 3.30985H30.15V5.94015H32V3.30985ZM30.15 3.30985C30.4483 3.30985 30.6902 3.55168 30.6902 3.85H28.0598C28.0598 5.00436 28.9956 5.94015 30.15 5.94015V3.30985ZM30.6902 3.85V2H28.0598V3.85H30.6902ZM29.375 0.684848H17V3.31515H29.375V0.684848ZM4.625 3.31515H17V0.684848H4.625V3.31515ZM5.94015 3.85V2H3.30985V3.85H5.94015ZM3.85 5.94015C5.00436 5.94015 5.94015 5.00436 5.94015 3.85H3.30985C3.30985 3.55168 3.55168 3.30985 3.85 3.30985V5.94015ZM2 5.94015H3.85V3.30985H2V5.94015Z" fill="#ACADB2" mask="url(#path-1-outside-1_637_256)"/>
<path d="M15.8778 19.7357L15.01 15.1571C16.5461 14.7781 17.7132 14.2494 18.5112 13.5711C19.3292 12.8728 19.7382 12.005 19.7382 10.9676C19.7382 9.73067 19.4489 8.81297 18.8703 8.21446C18.2918 7.61596 17.5736 7.31671 16.7157 7.31671C15.9177 7.31671 15.2893 7.58603 14.8304 8.12469C14.3716 8.66334 14.1421 9.46135 14.1421 10.5187V11.6259L13.8728 11.9551H12.0474C11.7082 11.9551 11.4489 11.8953 11.2693 11.7756C11.0898 11.6359 11 11.3067 11 10.788C11 9.61097 11.6085 8.58354 12.8254 7.70573C13.5237 7.20698 14.202 6.798 14.8603 6.4788C15.5387 6.1596 16.3666 6 17.3441 6C18.4813 6 19.4688 6.22943 20.3067 6.68828C21.1646 7.14713 21.8229 7.77556 22.2818 8.57357C22.7606 9.37157 23 10.2793 23 11.2968C23 12.6534 22.5112 13.8504 21.5337 14.8878C20.5761 15.9252 19.0698 16.7731 17.015 17.4314L16.6858 19.7357H15.8778ZM16.2668 26.1995C15.7082 26.1995 15.2195 26 14.8005 25.601C14.4015 25.182 14.202 24.6933 14.202 24.1347C14.202 23.5761 14.4015 23.0973 14.8005 22.6983C15.2195 22.2793 15.7082 22.0698 16.2668 22.0698C16.8055 22.0698 17.2743 22.2793 17.6733 22.6983C18.0923 23.0973 18.3017 23.5761 18.3017 24.1347C18.3017 24.6933 18.0923 25.182 17.6733 25.601C17.2743 26 16.8055 26.1995 16.2668 26.1995Z" fill="white"/>
<defs>
<filter id="filter0_ii_637_256" x="-0.543153" y="-0.543153" width="35.0863" height="33.0863" filterUnits="userSpaceOnUse" color-interpolation-filters="sRGB">
<feFlood flood-opacity="0" result="BackgroundImageFix"/>
<feBlend mode="normal" in="SourceGraphic" in2="BackgroundImageFix" result="shape"/>
<feColorMatrix in="SourceAlpha" type="matrix" values="0 0 0 0 0 0 0 0 0 0 0 0 0 0 0 0 0 0 127 0" result="hardAlpha"/>
<feOffset dx="3.06931" dy="3.06931"/>
<feGaussianBlur stdDeviation="0.613861"/>
<feComposite in2="hardAlpha" operator="arithmetic" k2="-1" k3="1"/>
<feColorMatrix type="matrix" values="0 0 0 0 0.176471 0 0 0 0 0.133333 0 0 0 0 0.105882 0 0 0 0.25 0"/>
<feBlend mode="normal" in2="shape" result="effect1_innerShadow_637_256"/>
<feColorMatrix in="SourceAlpha" type="matrix" values="0 0 0 0 0 0 0 0 0 0 0 0 0 0 0 0 0 0 127 0" result="hardAlpha"/>
<feOffset dx="-3.06931" dy="-3.06931"/>
<feGaussianBlur stdDeviation="0.613861"/>
<feComposite in2="hardAlpha" operator="arithmetic" k2="-1" k3="1"/>
<feColorMatrix type="matrix" values="0 0 0 0 0.176471 0 0 0 0 0.133333 0 0 0 0 0.105882 0 0 0 0.25 0"/>
<feBlend mode="normal" in2="effect1_innerShadow_637_256" result="effect2_innerShadow_637_256"/>
</filter>
</defs>
</svg>
