<svg width="52" height="48" viewBox="0 0 52 48" fill="none" xmlns="http://www.w3.org/2000/svg">
<mask id="path-1-outside-1_712_18" maskUnits="userSpaceOnUse" x="0" y="0" width="52" height="48" fill="black">
<rect fill="white" width="52" height="48"/>
<path fill-rule="evenodd" clip-rule="evenodd" d="M2 6.125V41.0893H4.94643C5.59734 41.0893 6.125 41.617 6.125 42.2679V46H25.5714H45.0179V42.2679C45.0179 41.617 45.5455 41.0893 46.1964 41.0893H49.1429V6.125H46.1964C45.5455 6.125 45.0179 5.59734 45.0179 4.94643V2H25.5714H6.125V4.94643C6.125 5.59734 5.59734 6.125 4.94643 6.125H2Z"/>
</mask>
<g filter="url(#filter0_ii_712_18)">
<path fill-rule="evenodd" clip-rule="evenodd" d="M2 6.125V41.0893H4.94643C5.59734 41.0893 6.125 41.617 6.125 42.2679V46H25.5714H45.0179V42.2679C45.0179 41.617 45.5455 41.0893 46.1964 41.0893H49.1429V6.125H46.1964C45.5455 6.125 45.0179 5.59734 45.0179 4.94643V2H25.5714H6.125V4.94643C6.125 5.59734 5.59734 6.125 4.94643 6.125H2Z" fill="#6B3C24"/>
</g>
<path d="M2 41.0893H0V43.0893H2V41.0893ZM2 6.125V4.125H0V6.125H2ZM6.125 46H4.125V48H6.125V46ZM45.0179 46V48H47.0179V46H45.0179ZM49.1429 41.0893V43.0893H51.1429V41.0893H49.1429ZM49.1429 6.125H51.1429V4.125H49.1429V6.125ZM45.0179 2H47.0179V0H45.0179V2ZM6.125 2V0H4.125V2H6.125ZM4 41.0893V6.125H0V41.0893H4ZM4.94643 39.0893H2V43.0893H4.94643V39.0893ZM8.125 42.2679C8.125 40.5124 6.70191 39.0893 4.94643 39.0893V43.0893C4.49276 43.0893 4.125 42.7215 4.125 42.2679H8.125ZM8.125 46V42.2679H4.125V46H8.125ZM25.5714 44H6.125V48H25.5714V44ZM25.5714 48H45.0179V44H25.5714V48ZM47.0179 46V42.2679H43.0179V46H47.0179ZM47.0179 42.2679C47.0179 42.7215 46.6501 43.0893 46.1964 43.0893V39.0893C44.4409 39.0893 43.0179 40.5124 43.0179 42.2679H47.0179ZM46.1964 43.0893H49.1429V39.0893H46.1964V43.0893ZM51.1429 41.0893V6.125H47.1429V41.0893H51.1429ZM49.1429 4.125H46.1964V8.125H49.1429V4.125ZM46.1964 4.125C46.6501 4.125 47.0179 4.49277 47.0179 4.94643H43.0179C43.0179 6.7019 44.4409 8.125 46.1964 8.125V4.125ZM47.0179 4.94643V2H43.0179V4.94643H47.0179ZM45.0179 0H25.5714V4H45.0179V0ZM6.125 4H25.5714V0H6.125V4ZM8.125 4.94643V2H4.125V4.94643H8.125ZM4.94643 8.125C6.7019 8.125 8.125 6.70191 8.125 4.94643H4.125C4.125 4.49277 4.49277 4.125 4.94643 4.125V8.125ZM2 8.125H4.94643V4.125H2V8.125Z" fill="#ACADB2" mask="url(#path-1-outside-1_712_18)"/>
<path d="M18 21.2857V27.7143H21.4L26.84 32V17L21.4 21.2857H18Z" stroke="white" stroke-width="1.875" stroke-linecap="round" stroke-linejoin="round"/>
<path d="M32.121 20.707L31.414 20L30 21.414L30.707 22.121C31.032 22.446 31.2899 22.8319 31.4658 23.2565C31.6417 23.6812 31.7323 24.1363 31.7323 24.596C31.7323 25.0557 31.6417 25.5108 31.4658 25.9355C31.2899 26.3601 31.032 26.746 30.707 27.071L30 27.778L31.414 29.192L32.121 28.485C33.1524 27.4536 33.7318 26.0546 33.7318 24.596C33.7318 23.1374 33.1524 21.7384 32.121 20.707Z" fill="white"/>
<defs>
<filter id="filter0_ii_712_18" x="-1.86704" y="-1.86704" width="54.8767" height="51.7341" filterUnits="userSpaceOnUse" color-interpolation-filters="sRGB">
<feFlood flood-opacity="0" result="BackgroundImageFix"/>
<feBlend mode="normal" in="SourceGraphic" in2="BackgroundImageFix" result="shape"/>
<feColorMatrix in="SourceAlpha" type="matrix" values="0 0 0 0 0 0 0 0 0 0 0 0 0 0 0 0 0 0 127 0" result="hardAlpha"/>
<feOffset dx="4.66761" dy="4.66761"/>
<feGaussianBlur stdDeviation="0.933522"/>
<feComposite in2="hardAlpha" operator="arithmetic" k2="-1" k3="1"/>
<feColorMatrix type="matrix" values="0 0 0 0 0.176471 0 0 0 0 0.133333 0 0 0 0 0.105882 0 0 0 0.25 0"/>
<feBlend mode="normal" in2="shape" result="effect1_innerShadow_712_18"/>
<feColorMatrix in="SourceAlpha" type="matrix" values="0 0 0 0 0 0 0 0 0 0 0 0 0 0 0 0 0 0 127 0" result="hardAlpha"/>
<feOffset dx="-4.66761" dy="-4.66761"/>
<feGaussianBlur stdDeviation="0.933522"/>
<feComposite in2="hardAlpha" operator="arithmetic" k2="-1" k3="1"/>
<feColorMatrix type="matrix" values="0 0 0 0 0.176471 0 0 0 0 0.133333 0 0 0 0 0.105882 0 0 0 0.25 0"/>
<feBlend mode="normal" in2="effect1_innerShadow_712_18" result="effect2_innerShadow_712_18"/>
</filter>
</defs>
</svg>
