<svg width="194" height="73" viewBox="0 0 194 73" fill="none" xmlns="http://www.w3.org/2000/svg">
<g filter="url(#filter0_ii_637_1986)">
<path d="M6 55.642V16.542H187.965V55.642H6Z" fill="#6B3C24"/>
</g>
<path d="M5.24808 55.642V56.3939H6H187.965H188.717V55.642V16.542V15.7901H187.965H6H5.24808V16.542V55.642Z" stroke="#9D8C77" stroke-width="1.50385"/>
<path d="M1.50388 28.5739H4.51163V15.039H13.5349V12.0312H12.031V10.5273H0V27.07H1.50388V28.5739Z" fill="#D9D9D9"/>
<path d="M192.492 28.5739H189.484V15.039H180.461V12.0312H181.965V10.5273H193.996V27.07H192.492V28.5739Z" fill="#D9D9D9"/>
<path d="M192.492 43.6117L189.484 43.6117L189.484 57.1466L180.461 57.1466L180.461 60.1543L181.965 60.1543L181.965 61.6582L193.996 61.6582L193.996 45.1156L192.492 45.1156L192.492 43.6117Z" fill="#D9D9D9"/>
<path d="M1.50388 43.6117L4.51163 43.6117L4.51163 57.1466L13.5349 57.1466L13.5349 60.1543L12.031 60.1543L12.031 61.6582L0 61.6582L1.4462e-06 45.1156L1.50388 45.1156L1.50388 43.6117Z" fill="#D9D9D9"/>
<path d="M88.5498 0H90.5249V1.87919H88.5498V0Z" fill="#D9D9D9"/>
<path d="M94.4766 0H96.4516V1.87919H94.4766V0Z" fill="#D9D9D9"/>
<path d="M96.4527 0H98.4277V1.87919H96.4527V0Z" fill="#D9D9D9"/>
<path d="M102.378 0H104.353V1.87919H102.378V0Z" fill="#D9D9D9"/>
<path d="M86.5738 1.87954H88.5488V3.75873H86.5738V1.87954Z" fill="#D9D9D9"/>
<path d="M92.5005 1.87954H94.4755V3.75873H92.5005V1.87954Z" fill="#D9D9D9"/>
<path d="M94.4766 1.87919H96.4516V3.75873H94.4766V1.87919Z" fill="#D9D9D9"/>
<path d="M96.4527 1.87919H98.4277V3.75873H96.4527V1.87919Z" fill="#D9D9D9"/>
<path d="M98.4288 1.87954H100.404V3.75873H98.4288V1.87954Z" fill="#D9D9D9"/>
<path d="M104.356 1.87954H106.331V3.75873H104.356V1.87954Z" fill="#D9D9D9"/>
<path d="M84.5991 3.75908L86.5738 3.75873L86.5742 5.63827H84.5991V3.75908Z" fill="#D9D9D9"/>
<path d="M90.5259 3.75908L92.5005 3.75873L92.5009 5.63827H90.5259V3.75908Z" fill="#D9D9D9"/>
<path d="M92.5005 3.75873H94.4755V5.63827H92.5009L92.5005 3.75873Z" fill="#D9D9D9"/>
<path d="M94.4766 3.75873H96.4516V5.63827H94.4766V3.75873Z" fill="#D9D9D9"/>
<path d="M96.4527 3.75873H98.4277V5.63827H96.4527V3.75873Z" fill="#D9D9D9"/>
<path d="M98.4288 3.75873H100.404V5.63827H98.4288V3.75873Z" fill="#D9D9D9"/>
<path d="M100.404 3.75873L102.378 3.75908V5.63827H100.404V3.75873Z" fill="#D9D9D9"/>
<path d="M106.331 3.75873L108.305 3.75908V5.63827H106.33L106.331 3.75873Z" fill="#D9D9D9"/>
<path d="M88.5498 5.64008H90.5249V7.51927H88.5498V5.64008Z" fill="#D9D9D9"/>
<path d="M90.5259 5.64008H92.5009V7.51927H90.5259V5.64008Z" fill="#D9D9D9"/>
<path d="M92.5009 5.64008H94.4755V7.51927H92.5009V5.64008Z" fill="#D9D9D9"/>
<path d="M98.4288 5.64008H100.404V7.51927H98.4288V5.64008Z" fill="#D9D9D9"/>
<path d="M100.404 5.64008H102.378V7.51927H100.404V5.64008Z" fill="#D9D9D9"/>
<path d="M102.378 5.64008H104.353V7.51927H102.378V5.64008Z" fill="#D9D9D9"/>
<path d="M86.5738 7.51963H88.5488V9.39881H86.5738V7.51963Z" fill="#D9D9D9"/>
<path d="M88.5498 7.51927H90.5249V9.39881H88.5498V7.51927Z" fill="#D9D9D9"/>
<path d="M90.5259 7.51927H92.5009V9.39881H90.5259V7.51927Z" fill="#D9D9D9"/>
<path d="M100.404 7.51927H102.378V9.39881H100.403L100.404 7.51927Z" fill="#D9D9D9"/>
<path d="M102.378 7.51927H104.353V9.39881H102.378V7.51927Z" fill="#D9D9D9"/>
<path d="M104.356 7.51963H106.331V9.39881H104.356V7.51963Z" fill="#D9D9D9"/>
<path d="M82.6231 9.40063H84.5981V11.2798H82.6231V9.40063Z" fill="#D9D9D9"/>
<path d="M84.5991 9.40063H86.5742V11.2798H84.5991V9.40063Z" fill="#D9D9D9"/>
<path d="M86.5742 9.40063H88.5488V11.2798H86.5742V9.40063Z" fill="#D9D9D9"/>
<path d="M88.5498 9.40063H90.5249V11.2798H88.5498V9.40063Z" fill="#D9D9D9"/>
<path d="M102.378 9.40063H104.353V11.2798H102.378V9.40063Z" fill="#D9D9D9"/>
<path d="M104.356 9.40063H106.331V11.2798H104.356V9.40063Z" fill="#D9D9D9"/>
<path d="M106.331 9.40063H108.305V11.2798H106.331V9.40063Z" fill="#D9D9D9"/>
<path d="M108.306 9.40063H110.281V11.2798H108.306V9.40063Z" fill="#D9D9D9"/>
<path d="M78.6709 11.2787H80.6459V13.1579H78.6709V11.2787Z" fill="#D9D9D9"/>
<path d="M80.647 11.2787H82.622V13.1579H80.647V11.2787Z" fill="#D9D9D9"/>
<path d="M82.6231 11.2787H84.5981V13.1579H82.6231V11.2787Z" fill="#D9D9D9"/>
<path d="M84.5991 11.2787H86.5742V13.1579H84.5991V11.2787Z" fill="#D9D9D9"/>
<path d="M86.5742 11.2787H88.5488V13.1579H86.5742V11.2787Z" fill="#D9D9D9"/>
<path d="M88.5498 11.2787H90.5249V13.1579H88.5498V11.2787Z" fill="#D9D9D9"/>
<path d="M90.5259 11.2787H92.5009V13.1579H90.5259V11.2787Z" fill="#D9D9D9"/>
<path d="M92.5009 11.2787H94.4755V13.1579H92.5009V11.2787Z" fill="#D9D9D9"/>
<path d="M94.4766 11.2787H96.4516V13.1579H94.4766V11.2787Z" fill="#D9D9D9"/>
<path d="M96.4527 11.2787H98.4277V13.1579H96.4527V11.2787Z" fill="#D9D9D9"/>
<path d="M98.4288 11.2787H100.404V13.1579H98.4288V11.2787Z" fill="#D9D9D9"/>
<path d="M100.404 11.2787H102.378V13.1579H100.404V11.2787Z" fill="#D9D9D9"/>
<path d="M102.378 11.2787H104.353V13.1579H102.378V11.2787Z" fill="#D9D9D9"/>
<path d="M104.356 11.2787H106.331V13.1579H104.356V11.2787Z" fill="#D9D9D9"/>
<path d="M106.331 11.2787H108.305V13.1579H106.331V11.2787Z" fill="#D9D9D9"/>
<path d="M108.306 11.2787H110.281V13.1579H108.306V11.2787Z" fill="#D9D9D9"/>
<path d="M110.281 11.2787H112.256V13.1579H110.281V11.2787Z" fill="#D9D9D9"/>
<path d="M112.257 11.2787H114.232V13.1579H112.257V11.2787Z" fill="#D9D9D9"/>
<path d="M76.6963 13.1597H78.6713V15.0389H76.6963V13.1597Z" fill="#D9D9D9"/>
<path d="M78.6713 13.1597H80.6459V15.0389H78.6713V13.1597Z" fill="#D9D9D9"/>
<path d="M80.647 13.1597H82.622V15.0389H80.647V13.1597Z" fill="#D9D9D9"/>
<path d="M82.6231 13.1597H84.5981V15.0389H82.6231V13.1597Z" fill="#D9D9D9"/>
<path d="M84.5991 13.1597H86.5742V15.0389H84.5991V13.1597Z" fill="#D9D9D9"/>
<path d="M86.5742 13.1597H88.5488V15.0389H86.5742V13.1597Z" fill="#D9D9D9"/>
<path d="M88.5498 13.1597H90.5249V15.0389H88.5498V13.1597Z" fill="#D9D9D9"/>
<path d="M90.5259 13.1597H92.5009V15.0389H90.5259V13.1597Z" fill="#D9D9D9"/>
<path d="M92.5009 13.1597H94.4755V15.0389H92.5009V13.1597Z" fill="#D9D9D9"/>
<path d="M94.4766 13.1597H96.4516V15.0389H94.4766V13.1597Z" fill="#D9D9D9"/>
<path d="M96.4527 13.1597H98.4277V15.0389H96.4527V13.1597Z" fill="#D9D9D9"/>
<path d="M98.4288 13.1597H100.404V15.0389H98.4288V13.1597Z" fill="#D9D9D9"/>
<path d="M100.404 13.1597H102.378V15.0389H100.404V13.1597Z" fill="#D9D9D9"/>
<path d="M102.378 13.1597H104.353V15.0389H102.378V13.1597Z" fill="#D9D9D9"/>
<path d="M104.356 13.1597H106.331V15.0389H104.356V13.1597Z" fill="#D9D9D9"/>
<path d="M106.331 13.1597H108.305V15.0389H106.331V13.1597Z" fill="#D9D9D9"/>
<path d="M108.306 13.1597H110.281V15.0389H108.306V13.1597Z" fill="#D9D9D9"/>
<path d="M110.281 13.1597H112.256V15.0389H110.281V13.1597Z" fill="#D9D9D9"/>
<path d="M112.257 13.1597H114.232V15.0389H112.257V13.1597Z" fill="#D9D9D9"/>
<path d="M114.233 13.1597H116.208V15.0389H114.233V13.1597Z" fill="#D9D9D9"/>
<path d="M104.355 72.1844H102.38V70.3052H104.355V72.1844Z" fill="#D9D9D9"/>
<path d="M98.4287 72.1844H96.4537V70.3052H98.4287V72.1844Z" fill="#D9D9D9"/>
<path d="M96.4526 72.1844H94.4776V70.3052H96.4526V72.1844Z" fill="#D9D9D9"/>
<path d="M90.5258 72.1844H88.5508V70.3052H90.5258V72.1844Z" fill="#D9D9D9"/>
<path d="M106.332 70.3034H104.357L104.357 68.4242H106.332V70.3034Z" fill="#D9D9D9"/>
<path d="M100.405 70.3034H98.4297L98.4297 68.4242H100.405V70.3034Z" fill="#D9D9D9"/>
<path d="M98.4287 70.3034H96.4537L96.4537 68.4242H98.4287V70.3034Z" fill="#D9D9D9"/>
<path d="M96.4526 70.3034H94.4776L94.4776 68.4242H96.4526V70.3034Z" fill="#D9D9D9"/>
<path d="M94.4765 70.3034H92.5015V68.4242H94.4765V70.3034Z" fill="#D9D9D9"/>
<path d="M88.5498 70.3034H86.5747V68.4242H88.5498V70.3034Z" fill="#D9D9D9"/>
<path d="M108.306 68.4253H106.331V66.5461H108.306V68.4253Z" fill="#D9D9D9"/>
<path d="M102.379 68.4253H100.404V66.5461H102.379V68.4253Z" fill="#D9D9D9"/>
<path d="M100.404 68.4253H98.4297V66.5461H100.404V68.4253Z" fill="#D9D9D9"/>
<path d="M98.4287 68.4253H96.4537V66.5461H98.4287V68.4253Z" fill="#D9D9D9"/>
<path d="M96.4526 68.4253H94.4776V66.5461H96.4526V68.4253Z" fill="#D9D9D9"/>
<path d="M94.4765 68.4253H92.5015V66.5461H94.4765V68.4253Z" fill="#D9D9D9"/>
<path d="M92.5005 68.4253H90.5254V66.5461H92.5005L92.5005 68.4253Z" fill="#D9D9D9"/>
<path d="M86.5751 68.4253H84.6001L84.6001 66.5461H86.5751L86.5751 68.4253Z" fill="#D9D9D9"/>
<path d="M104.355 66.5443L102.38 66.5443V64.6651H104.355V66.5443Z" fill="#D9D9D9"/>
<path d="M102.379 66.5443H100.404V64.6651H102.379V66.5443Z" fill="#D9D9D9"/>
<path d="M100.404 66.5443H98.4297V64.6651L100.404 64.6651V66.5443Z" fill="#D9D9D9"/>
<path d="M94.4765 66.5443H92.5015V64.6651L94.4765 64.6651V66.5443Z" fill="#D9D9D9"/>
<path d="M92.5005 66.5443H90.5254V64.6651H92.5005V66.5443Z" fill="#D9D9D9"/>
<path d="M90.5254 66.5443H88.5508V64.6651L90.5254 64.6651V66.5443Z" fill="#D9D9D9"/>
<path d="M106.33 64.6662L104.355 64.6662V62.7871L106.33 62.7871V64.6662Z" fill="#D9D9D9"/>
<path d="M104.355 64.6662H102.38V62.7871H104.355V64.6662Z" fill="#D9D9D9"/>
<path d="M102.379 64.6662H100.404V62.7871H102.379V64.6662Z" fill="#D9D9D9"/>
<path d="M92.5005 64.6662H90.5254L90.5254 62.7871H92.5005V64.6662Z" fill="#D9D9D9"/>
<path d="M90.5254 64.6662L88.5508 64.6662L88.5508 62.7871L90.5254 62.7871L90.5254 64.6662Z" fill="#D9D9D9"/>
<path d="M88.5498 64.6662H86.5747L86.5747 62.7871H88.5498V64.6662Z" fill="#D9D9D9"/>
<path d="M110.282 62.7838H108.307V60.9046L110.282 60.9046V62.7838Z" fill="#D9D9D9"/>
<path d="M108.306 62.7838H106.331V60.9046L108.306 60.9046V62.7838Z" fill="#D9D9D9"/>
<path d="M106.331 62.7838L104.357 62.7838V60.9046H106.331V62.7838Z" fill="#D9D9D9"/>
<path d="M104.355 62.7838H102.38V60.9046L104.355 60.9046V62.7838Z" fill="#D9D9D9"/>
<path d="M90.5258 62.7838L88.5508 62.7838V60.9046L90.5258 60.9046V62.7838Z" fill="#D9D9D9"/>
<path d="M88.5498 62.7838H86.5747V60.9046L88.5498 60.9046V62.7838Z" fill="#D9D9D9"/>
<path d="M86.5747 62.7838L84.6001 62.7838L84.6001 60.9046L86.5747 60.9046V62.7838Z" fill="#D9D9D9"/>
<path d="M84.5991 62.7838L82.624 62.7838L82.624 60.9046H84.5991V62.7838Z" fill="#D9D9D9"/>
<path d="M114.233 60.9057H112.258V59.0265L114.233 59.0265V60.9057Z" fill="#D9D9D9"/>
<path d="M112.257 60.9057L110.282 60.9057V59.0265L112.257 59.0265V60.9057Z" fill="#D9D9D9"/>
<path d="M110.282 60.9057L108.307 60.9057V59.0265L110.282 59.0265V60.9057Z" fill="#D9D9D9"/>
<path d="M108.306 60.9057L106.331 60.9057V59.0265L108.306 59.0265V60.9057Z" fill="#D9D9D9"/>
<path d="M106.331 60.9057H104.357V59.0265L106.331 59.0265V60.9057Z" fill="#D9D9D9"/>
<path d="M104.355 60.9057L102.38 60.9057V59.0265L104.355 59.0265V60.9057Z" fill="#D9D9D9"/>
<path d="M102.379 60.9057L100.404 60.9057V59.0265L102.379 59.0265V60.9057Z" fill="#D9D9D9"/>
<path d="M100.404 60.9057H98.4297V59.0265L100.404 59.0265V60.9057Z" fill="#D9D9D9"/>
<path d="M98.4287 60.9057L96.4537 60.9057V59.0265L98.4287 59.0265V60.9057Z" fill="#D9D9D9"/>
<path d="M96.4526 60.9057L94.4776 60.9057V59.0265L96.4526 59.0265V60.9057Z" fill="#D9D9D9"/>
<path d="M94.4765 60.9057L92.5015 60.9057V59.0265L94.4765 59.0265V60.9057Z" fill="#D9D9D9"/>
<path d="M92.5005 60.9057H90.5254V59.0265L92.5005 59.0265V60.9057Z" fill="#D9D9D9"/>
<path d="M90.5254 60.9057L88.5508 60.9057V59.0265L90.5254 59.0265V60.9057Z" fill="#D9D9D9"/>
<path d="M88.5498 60.9057L86.5747 60.9057V59.0265L88.5498 59.0265V60.9057Z" fill="#D9D9D9"/>
<path d="M86.5747 60.9057L84.6001 60.9057V59.0265L86.5747 59.0265V60.9057Z" fill="#D9D9D9"/>
<path d="M84.5991 60.9057H82.624V59.0265L84.5991 59.0265V60.9057Z" fill="#D9D9D9"/>
<path d="M82.624 60.9057L80.6494 60.9057L80.6494 59.0265L82.624 59.0265V60.9057Z" fill="#D9D9D9"/>
<path d="M80.6469 60.9057L78.6719 60.9057L78.6719 59.0265L80.6469 59.0265L80.6469 60.9057Z" fill="#D9D9D9"/>
<path d="M116.209 59.0247L114.234 59.0247V57.1455L116.209 57.1455V59.0247Z" fill="#D9D9D9"/>
<path d="M114.233 59.0247L112.258 59.0247V57.1455L114.233 57.1455V59.0247Z" fill="#D9D9D9"/>
<path d="M112.257 59.0247L110.282 59.0247V57.1455L112.257 57.1455V59.0247Z" fill="#D9D9D9"/>
<path d="M110.282 59.0247L108.307 59.0247V57.1455L110.282 57.1455V59.0247Z" fill="#D9D9D9"/>
<path d="M108.306 59.0247L106.331 59.0247V57.1455L108.306 57.1455V59.0247Z" fill="#D9D9D9"/>
<path d="M106.33 59.0247L104.355 59.0247L104.355 57.1455L106.33 57.1455V59.0247Z" fill="#D9D9D9"/>
<path d="M104.355 59.0247L102.38 59.0247V57.1455L104.355 57.1455L104.355 59.0247Z" fill="#D9D9D9"/>
<path d="M102.379 59.0247L100.404 59.0247V57.1455L102.379 57.1455V59.0247Z" fill="#D9D9D9"/>
<path d="M100.404 59.0247L98.4297 59.0247V57.1455L100.404 57.1455V59.0247Z" fill="#D9D9D9"/>
<path d="M98.4287 59.0247L96.4537 59.0247V57.1455L98.4287 57.1455V59.0247Z" fill="#D9D9D9"/>
<path d="M96.4526 59.0247L94.4776 59.0247V57.1455L96.4526 57.1455V59.0247Z" fill="#D9D9D9"/>
<path d="M94.4765 59.0247L92.5015 59.0247V57.1455L94.4765 57.1455V59.0247Z" fill="#D9D9D9"/>
<path d="M92.5005 59.0247L90.5254 59.0247V57.1455L92.5005 57.1455V59.0247Z" fill="#D9D9D9"/>
<path d="M90.5254 59.0247L88.5508 59.0247V57.1455L90.5254 57.1455V59.0247Z" fill="#D9D9D9"/>
<path d="M88.5498 59.0247L86.5747 59.0247V57.1455L88.5498 57.1455V59.0247Z" fill="#D9D9D9"/>
<path d="M86.5747 59.0247L84.6001 59.0247V57.1455L86.5747 57.1455V59.0247Z" fill="#D9D9D9"/>
<path d="M84.5991 59.0247L82.624 59.0247V57.1455L84.5991 57.1455L84.5991 59.0247Z" fill="#D9D9D9"/>
<path d="M82.624 59.0247L80.6494 59.0247L80.6494 57.1455L82.624 57.1455V59.0247Z" fill="#D9D9D9"/>
<path d="M80.6469 59.0247L78.6719 59.0247L78.6719 57.1455L80.6469 57.1455L80.6469 59.0247Z" fill="#D9D9D9"/>
<path d="M78.6719 59.0247L76.6973 59.0247L76.6973 57.1455L78.6719 57.1455L78.6719 59.0247Z" fill="#D9D9D9"/>
<path d="M51.0498 41.5586V41.2699L52.9627 40.53V30.6407H50.3821L48.9384 33.6183H48.6497V29.6481H60.0007V33.6183H59.712L58.2683 30.6407H55.6877V40.53L57.6006 41.2699V41.5586H51.0498ZM61.4475 41.5586V41.2699L62.9814 40.53V30.6768L61.4475 29.9369V29.6481H67.6193C68.8825 29.6481 69.875 29.9128 70.5969 30.4422C71.3308 30.9595 71.6977 31.6753 71.6977 32.5897C71.6977 33.2513 71.4751 33.8228 71.03 34.304C70.5849 34.7732 70.0014 35.1462 69.2795 35.4229L72.6181 40.548L73.9174 41.2699V41.5586H70.0014L66.6628 36.0365H65.7064V40.5119L67.0598 41.2699V41.5586H61.4475ZM66.4282 30.6407H65.7064V35.1522H66.5365C67.2824 35.1522 67.8719 34.9417 68.305 34.5206C68.7381 34.0995 68.9547 33.5521 68.9547 32.8784C68.9547 32.1686 68.7381 31.6212 68.305 31.2362C67.8839 30.8392 67.2583 30.6407 66.4282 30.6407ZM73.6674 41.5586V41.2699L74.7682 40.6563L79.4783 29.5579H81.0663L85.7222 40.6202L86.9494 41.2699V41.5586H81.2468V41.2699L82.8168 40.6202L81.5897 37.6245H77.3127L76.0856 40.6202L77.5834 41.2699V41.5586H73.6674ZM77.7278 36.632H81.1746L79.4602 32.4272L77.7278 36.632ZM88.1298 41.5586V41.2699L89.6638 40.53V30.6768L88.1298 29.9369V29.6481H93.9227V29.9369L92.3887 30.6768V40.53L93.9227 41.2699V41.5586H88.1298ZM95.5123 41.5586V41.2699L97.0462 40.53V30.6948L95.5123 29.9369V29.6481H98.941L105.943 37.5523V30.6587L103.886 29.9369V29.6481H108.722V29.9369L107.206 30.6768V41.6488H106.087L98.3094 32.9506V40.53L100.367 41.2699V41.5586H95.5123ZM110.247 41.5586V41.2699L111.781 40.53V30.6768L110.247 29.9369V29.6481H116.04V29.9369L114.506 30.6768V40.53L116.04 41.2699V41.5586H110.247ZM117.629 41.5586V41.2699L119.163 40.53V30.6948L117.629 29.9369V29.6481H121.058L128.06 37.5523V30.6587L126.003 29.9369V29.6481H130.839V29.9369L129.323 30.6768V41.6488H128.204L120.427 32.9506V40.53L122.484 41.2699V41.5586H117.629ZM138.733 41.7391C137.866 41.7391 137.054 41.5947 136.296 41.3059C135.551 41.0052 134.889 40.5901 134.311 40.0608C133.746 39.5314 133.301 38.9118 132.976 38.202C132.663 37.4802 132.507 36.6982 132.507 35.856C132.507 34.9296 132.687 34.0815 133.048 33.3115C133.409 32.5295 133.908 31.8498 134.546 31.2723C135.184 30.6948 135.911 30.2497 136.73 29.9369C137.548 29.6241 138.408 29.4677 139.31 29.4677C139.948 29.4677 140.489 29.5038 140.934 29.5759C141.391 29.6481 141.794 29.7504 142.143 29.8827C142.504 30.0151 142.859 30.1655 143.208 30.3339L143.407 33.51H143.082L141.349 30.8933C141.025 30.6888 140.712 30.5504 140.411 30.4783C140.11 30.394 139.767 30.3519 139.382 30.3519C138.624 30.3519 137.939 30.5685 137.325 31.0016C136.711 31.4347 136.224 32.0423 135.863 32.8243C135.502 33.5942 135.322 34.4965 135.322 35.5312C135.322 36.6139 135.496 37.5463 135.845 38.3283C136.194 39.0983 136.663 39.6938 137.253 40.1149C137.854 40.536 138.522 40.7465 139.256 40.7465C139.461 40.7465 139.683 40.7405 139.924 40.7285C140.164 40.7044 140.405 40.6683 140.646 40.6202V37.2817L139.039 36.4335V36.1447H144.706V36.4335L143.352 37.2997V40.2232C142.98 40.536 142.528 40.8067 141.999 41.0353C141.482 41.2518 140.934 41.4263 140.357 41.5586C139.791 41.6789 139.25 41.7391 138.733 41.7391Z" fill="white"/>
<defs>
<filter id="filter0_ii_637_1986" x="1.4884" y="12.0304" width="192.492" height="49.6267" filterUnits="userSpaceOnUse" color-interpolation-filters="sRGB">
<feFlood flood-opacity="0" result="BackgroundImageFix"/>
<feBlend mode="normal" in="SourceGraphic" in2="BackgroundImageFix" result="shape"/>
<feColorMatrix in="SourceAlpha" type="matrix" values="0 0 0 0 0 0 0 0 0 0 0 0 0 0 0 0 0 0 127 0" result="hardAlpha"/>
<feOffset dx="-3.00769" dy="-3.00769"/>
<feGaussianBlur stdDeviation="2.47167"/>
<feComposite in2="hardAlpha" operator="arithmetic" k2="-1" k3="1"/>
<feColorMatrix type="matrix" values="0 0 0 0 0.176471 0 0 0 0 0.133333 0 0 0 0 0.105882 0 0 0 0.25 0"/>
<feBlend mode="normal" in2="shape" result="effect1_innerShadow_637_1986"/>
<feColorMatrix in="SourceAlpha" type="matrix" values="0 0 0 0 0 0 0 0 0 0 0 0 0 0 0 0 0 0 127 0" result="hardAlpha"/>
<feOffset dx="4.51154" dy="4.51154"/>
<feGaussianBlur stdDeviation="2.47167"/>
<feComposite in2="hardAlpha" operator="arithmetic" k2="-1" k3="1"/>
<feColorMatrix type="matrix" values="0 0 0 0 0.176471 0 0 0 0 0.133333 0 0 0 0 0.105882 0 0 0 0.25 0"/>
<feBlend mode="normal" in2="effect1_innerShadow_637_1986" result="effect2_innerShadow_637_1986"/>
</filter>
</defs>
</svg>
