<svg width="144" height="54" viewBox="0 0 144 54" fill="none" xmlns="http://www.w3.org/2000/svg">
<g filter="url(#filter0_ii_1248_2145)">
<path d="M5 41.3427V12.498H139.239V41.3427H5Z" fill="#6B3C24"/>
</g>
<path d="M4.44529 41.3427V41.8975H5H139.239H139.794V41.3427V12.498V11.9433H139.239H5H4.44529V12.498V41.3427Z" stroke="url(#paint0_linear_1248_2145)" stroke-width="1.10941"/>
<path d="M1.15613 21.4322H3.37465V11.4489H10.0302V9.23035H8.92093V8.12109H0.046875V20.3229H1.15613V21.4322Z" fill="#D9D9D9"/>
<path d="M142.051 21.4322H139.832V11.4489H133.177V9.23035H134.286V8.12109H143.16V20.3229H142.051V21.4322Z" fill="#D9D9D9"/>
<path d="M142.051 32.5307L139.832 32.5307L139.832 42.514L133.177 42.514L133.177 44.7325L134.286 44.7325L134.286 45.8418L143.16 45.8418L143.16 33.64L142.051 33.64L142.051 32.5307Z" fill="#D9D9D9"/>
<path d="M1.15613 32.5307L3.37465 32.5307L3.37465 42.514L10.0302 42.514L10.0302 44.7325L8.92093 44.7325L8.92093 45.8418L0.046875 45.8418L0.0468761 33.64L1.15613 33.64L1.15613 32.5307Z" fill="#D9D9D9"/>
<rect x="65.3574" y="0.355469" width="1.45632" height="1.38565" fill="#D9D9D9"/>
<rect x="69.7266" y="0.355469" width="1.45632" height="1.38565" fill="#D9D9D9"/>
<rect x="71.1875" y="0.355469" width="1.45632" height="1.38565" fill="#D9D9D9"/>
<rect x="75.5625" y="0.355469" width="1.45632" height="1.38565" fill="#D9D9D9"/>
<rect x="63.9043" y="1.74414" width="1.45632" height="1.38565" fill="#D9D9D9"/>
<rect x="68.2793" y="1.74414" width="1.45632" height="1.38565" fill="#D9D9D9"/>
<rect x="69.7266" y="1.74414" width="1.45632" height="1.38565" fill="#D9D9D9"/>
<rect x="71.1875" y="1.74414" width="1.45632" height="1.38565" fill="#D9D9D9"/>
<rect x="72.6484" y="1.74414" width="1.45632" height="1.38565" fill="#D9D9D9"/>
<rect x="77.0234" y="1.74414" width="1.45632" height="1.38565" fill="#D9D9D9"/>
<rect x="62.4375" y="3.12891" width="1.45632" height="1.38565" fill="#D9D9D9"/>
<rect x="66.8184" y="3.12891" width="1.45632" height="1.38565" fill="#D9D9D9"/>
<rect x="68.2793" y="3.12891" width="1.45632" height="1.38565" fill="#D9D9D9"/>
<rect x="69.7266" y="3.12891" width="1.45632" height="1.38565" fill="#D9D9D9"/>
<rect x="71.1875" y="3.12891" width="1.45632" height="1.38565" fill="#D9D9D9"/>
<rect x="72.6484" y="3.12891" width="1.45632" height="1.38565" fill="#D9D9D9"/>
<rect x="74.1094" y="3.12891" width="1.45632" height="1.38565" fill="#D9D9D9"/>
<rect x="78.4844" y="3.12891" width="1.45632" height="1.38565" fill="#D9D9D9"/>
<rect x="65.3574" y="4.51562" width="1.45632" height="1.38565" fill="#D9D9D9"/>
<rect x="66.8184" y="4.51562" width="1.45632" height="1.38565" fill="#D9D9D9"/>
<rect x="68.2793" y="4.51562" width="1.45632" height="1.38565" fill="#D9D9D9"/>
<rect x="72.6484" y="4.51562" width="1.45632" height="1.38565" fill="#D9D9D9"/>
<rect x="74.1094" y="4.51562" width="1.45632" height="1.38565" fill="#D9D9D9"/>
<rect x="75.5625" y="4.51562" width="1.45632" height="1.38565" fill="#D9D9D9"/>
<rect x="63.9043" y="5.90234" width="1.45632" height="1.38565" fill="#D9D9D9"/>
<rect x="65.3574" y="5.90234" width="1.45632" height="1.38565" fill="#D9D9D9"/>
<rect x="66.8184" y="5.90234" width="1.45632" height="1.38565" fill="#D9D9D9"/>
<rect x="74.1094" y="5.90234" width="1.45632" height="1.38565" fill="#D9D9D9"/>
<rect x="75.5625" y="5.90234" width="1.45632" height="1.38565" fill="#D9D9D9"/>
<rect x="77.0234" y="5.90234" width="1.45632" height="1.38565" fill="#D9D9D9"/>
<rect x="60.9902" y="7.28906" width="1.45632" height="1.38565" fill="#D9D9D9"/>
<rect x="62.4375" y="7.28906" width="1.45632" height="1.38565" fill="#D9D9D9"/>
<rect x="63.9043" y="7.28906" width="1.45632" height="1.38565" fill="#D9D9D9"/>
<rect x="65.3574" y="7.28906" width="1.45632" height="1.38565" fill="#D9D9D9"/>
<rect x="75.5625" y="7.28906" width="1.45632" height="1.38565" fill="#D9D9D9"/>
<rect x="77.0234" y="7.28906" width="1.45632" height="1.38565" fill="#D9D9D9"/>
<rect x="78.4844" y="7.28906" width="1.45632" height="1.38565" fill="#D9D9D9"/>
<rect x="79.9297" y="7.28906" width="1.45632" height="1.38565" fill="#D9D9D9"/>
<rect x="58.0684" y="8.67578" width="1.45632" height="1.38565" fill="#D9D9D9"/>
<rect x="59.5371" y="8.67578" width="1.45632" height="1.38565" fill="#D9D9D9"/>
<rect x="60.9902" y="8.67578" width="1.45632" height="1.38565" fill="#D9D9D9"/>
<rect x="62.4375" y="8.67578" width="1.45632" height="1.38565" fill="#D9D9D9"/>
<rect x="63.9043" y="8.67578" width="1.45632" height="1.38565" fill="#D9D9D9"/>
<rect x="65.3574" y="8.67578" width="1.45632" height="1.38565" fill="#D9D9D9"/>
<rect x="66.8184" y="8.67578" width="1.45632" height="1.38565" fill="#D9D9D9"/>
<rect x="68.2793" y="8.67578" width="1.45632" height="1.38565" fill="#D9D9D9"/>
<rect x="69.7266" y="8.67578" width="1.45632" height="1.38565" fill="#D9D9D9"/>
<rect x="71.1875" y="8.67578" width="1.45632" height="1.38565" fill="#D9D9D9"/>
<rect x="72.6484" y="8.67578" width="1.45632" height="1.38565" fill="#D9D9D9"/>
<rect x="74.1094" y="8.67578" width="1.45632" height="1.38565" fill="#D9D9D9"/>
<rect x="75.5625" y="8.67578" width="1.45632" height="1.38565" fill="#D9D9D9"/>
<rect x="77.0234" y="8.67578" width="1.45632" height="1.38565" fill="#D9D9D9"/>
<rect x="78.4844" y="8.67578" width="1.45632" height="1.38565" fill="#D9D9D9"/>
<rect x="79.9297" y="8.67578" width="1.45632" height="1.38565" fill="#D9D9D9"/>
<rect x="81.3906" y="8.67578" width="1.45632" height="1.38565" fill="#D9D9D9"/>
<rect x="82.8516" y="8.67578" width="1.45632" height="1.38565" fill="#D9D9D9"/>
<rect x="56.6152" y="10.0645" width="1.45632" height="1.38565" fill="#D9D9D9"/>
<rect x="58.0684" y="10.0645" width="1.45632" height="1.38565" fill="#D9D9D9"/>
<rect x="59.5371" y="10.0645" width="1.45632" height="1.38565" fill="#D9D9D9"/>
<rect x="60.9902" y="10.0645" width="1.45632" height="1.38565" fill="#D9D9D9"/>
<rect x="62.4375" y="10.0645" width="1.45632" height="1.38565" fill="#D9D9D9"/>
<rect x="63.9043" y="10.0645" width="1.45632" height="1.38565" fill="#D9D9D9"/>
<rect x="65.3574" y="10.0645" width="1.45632" height="1.38565" fill="#D9D9D9"/>
<rect x="66.8184" y="10.0645" width="1.45632" height="1.38565" fill="#D9D9D9"/>
<rect x="68.2793" y="10.0645" width="1.45632" height="1.38565" fill="#D9D9D9"/>
<rect x="69.7266" y="10.0645" width="1.45632" height="1.38565" fill="#D9D9D9"/>
<rect x="71.1875" y="10.0645" width="1.45632" height="1.38565" fill="#D9D9D9"/>
<rect x="72.6484" y="10.0645" width="1.45632" height="1.38565" fill="#D9D9D9"/>
<rect x="74.1094" y="10.0645" width="1.45632" height="1.38565" fill="#D9D9D9"/>
<rect x="75.5625" y="10.0645" width="1.45632" height="1.38565" fill="#D9D9D9"/>
<rect x="77.0234" y="10.0645" width="1.45632" height="1.38565" fill="#D9D9D9"/>
<rect x="78.4844" y="10.0645" width="1.45632" height="1.38565" fill="#D9D9D9"/>
<rect x="79.9297" y="10.0645" width="1.45632" height="1.38565" fill="#D9D9D9"/>
<rect x="81.3906" y="10.0645" width="1.45632" height="1.38565" fill="#D9D9D9"/>
<rect x="82.8516" y="10.0645" width="1.45632" height="1.38565" fill="#D9D9D9"/>
<rect x="84.3047" y="10.0645" width="1.45632" height="1.38565" fill="#D9D9D9"/>
<rect x="77.0215" y="53.6016" width="1.45632" height="1.38565" transform="rotate(-180 77.0215 53.6016)" fill="#D9D9D9"/>
<rect x="72.6523" y="53.6016" width="1.45632" height="1.38565" transform="rotate(-180 72.6523 53.6016)" fill="#D9D9D9"/>
<rect x="71.1934" y="53.6016" width="1.45632" height="1.38565" transform="rotate(-180 71.1934 53.6016)" fill="#D9D9D9"/>
<rect x="66.8164" y="53.6016" width="1.45632" height="1.38565" transform="rotate(-180 66.8164 53.6016)" fill="#D9D9D9"/>
<rect x="78.4746" y="52.2129" width="1.45632" height="1.38565" transform="rotate(-180 78.4746 52.2129)" fill="#D9D9D9"/>
<rect x="74.0996" y="52.2129" width="1.45632" height="1.38565" transform="rotate(-180 74.0996 52.2129)" fill="#D9D9D9"/>
<rect x="72.6523" y="52.2129" width="1.45632" height="1.38565" transform="rotate(-180 72.6523 52.2129)" fill="#D9D9D9"/>
<rect x="71.1934" y="52.2129" width="1.45632" height="1.38565" transform="rotate(-180 71.1934 52.2129)" fill="#D9D9D9"/>
<rect x="69.7305" y="52.2129" width="1.45632" height="1.38565" transform="rotate(-180 69.7305 52.2129)" fill="#D9D9D9"/>
<rect x="65.3555" y="52.2129" width="1.45632" height="1.38565" transform="rotate(-180 65.3555 52.2129)" fill="#D9D9D9"/>
<rect x="79.9434" y="50.8281" width="1.45632" height="1.38565" transform="rotate(-180 79.9434 50.8281)" fill="#D9D9D9"/>
<rect x="75.5605" y="50.8281" width="1.45632" height="1.38565" transform="rotate(-180 75.5605 50.8281)" fill="#D9D9D9"/>
<rect x="74.0996" y="50.8281" width="1.45632" height="1.38565" transform="rotate(-180 74.0996 50.8281)" fill="#D9D9D9"/>
<rect x="72.6523" y="50.8281" width="1.45632" height="1.38565" transform="rotate(-180 72.6523 50.8281)" fill="#D9D9D9"/>
<rect x="71.1934" y="50.8281" width="1.45632" height="1.38565" transform="rotate(-180 71.1934 50.8281)" fill="#D9D9D9"/>
<rect x="69.7305" y="50.8281" width="1.45632" height="1.38565" transform="rotate(-180 69.7305 50.8281)" fill="#D9D9D9"/>
<rect x="68.2695" y="50.8281" width="1.45632" height="1.38565" transform="rotate(-180 68.2695 50.8281)" fill="#D9D9D9"/>
<rect x="63.8965" y="50.8281" width="1.45632" height="1.38565" transform="rotate(-180 63.8965 50.8281)" fill="#D9D9D9"/>
<rect x="77.0215" y="49.4414" width="1.45632" height="1.38565" transform="rotate(-180 77.0215 49.4414)" fill="#D9D9D9"/>
<rect x="75.5605" y="49.4414" width="1.45632" height="1.38565" transform="rotate(-180 75.5605 49.4414)" fill="#D9D9D9"/>
<rect x="74.0996" y="49.4414" width="1.45632" height="1.38565" transform="rotate(-180 74.0996 49.4414)" fill="#D9D9D9"/>
<rect x="69.7305" y="49.4414" width="1.45632" height="1.38565" transform="rotate(-180 69.7305 49.4414)" fill="#D9D9D9"/>
<rect x="68.2695" y="49.4414" width="1.45632" height="1.38565" transform="rotate(-180 68.2695 49.4414)" fill="#D9D9D9"/>
<rect x="66.8164" y="49.4414" width="1.45632" height="1.38565" transform="rotate(-180 66.8164 49.4414)" fill="#D9D9D9"/>
<rect x="78.4746" y="48.0566" width="1.45632" height="1.38565" transform="rotate(-180 78.4746 48.0566)" fill="#D9D9D9"/>
<rect x="77.0215" y="48.0566" width="1.45632" height="1.38565" transform="rotate(-180 77.0215 48.0566)" fill="#D9D9D9"/>
<rect x="75.5605" y="48.0566" width="1.45632" height="1.38565" transform="rotate(-180 75.5605 48.0566)" fill="#D9D9D9"/>
<rect x="68.2695" y="48.0566" width="1.45632" height="1.38565" transform="rotate(-180 68.2695 48.0566)" fill="#D9D9D9"/>
<rect x="66.8164" y="48.0566" width="1.45632" height="1.38565" transform="rotate(-180 66.8164 48.0566)" fill="#D9D9D9"/>
<rect x="65.3555" y="48.0566" width="1.45632" height="1.38565" transform="rotate(-180 65.3555 48.0566)" fill="#D9D9D9"/>
<rect x="81.3965" y="46.668" width="1.45632" height="1.38565" transform="rotate(-180 81.3965 46.668)" fill="#D9D9D9"/>
<rect x="79.9434" y="46.668" width="1.45632" height="1.38565" transform="rotate(-180 79.9434 46.668)" fill="#D9D9D9"/>
<rect x="78.4746" y="46.668" width="1.45632" height="1.38565" transform="rotate(-180 78.4746 46.668)" fill="#D9D9D9"/>
<rect x="77.0215" y="46.668" width="1.45632" height="1.38565" transform="rotate(-180 77.0215 46.668)" fill="#D9D9D9"/>
<rect x="66.8164" y="46.668" width="1.45632" height="1.38565" transform="rotate(-180 66.8164 46.668)" fill="#D9D9D9"/>
<rect x="65.3555" y="46.668" width="1.45632" height="1.38565" transform="rotate(-180 65.3555 46.668)" fill="#D9D9D9"/>
<rect x="63.8965" y="46.668" width="1.45632" height="1.38565" transform="rotate(-180 63.8965 46.668)" fill="#D9D9D9"/>
<rect x="62.4492" y="46.668" width="1.45632" height="1.38565" transform="rotate(-180 62.4492 46.668)" fill="#D9D9D9"/>
<rect x="84.3105" y="45.2812" width="1.45632" height="1.38565" transform="rotate(-180 84.3105 45.2812)" fill="#D9D9D9"/>
<rect x="82.8418" y="45.2812" width="1.45632" height="1.38565" transform="rotate(-180 82.8418 45.2812)" fill="#D9D9D9"/>
<rect x="81.3887" y="45.2812" width="1.45632" height="1.38565" transform="rotate(-180 81.3887 45.2812)" fill="#D9D9D9"/>
<rect x="79.9434" y="45.2812" width="1.45632" height="1.38565" transform="rotate(-180 79.9434 45.2812)" fill="#D9D9D9"/>
<rect x="78.4746" y="45.2812" width="1.45632" height="1.38565" transform="rotate(-180 78.4746 45.2812)" fill="#D9D9D9"/>
<rect x="77.0215" y="45.2812" width="1.45632" height="1.38565" transform="rotate(-180 77.0215 45.2812)" fill="#D9D9D9"/>
<rect x="75.5605" y="45.2812" width="1.45632" height="1.38565" transform="rotate(-180 75.5605 45.2812)" fill="#D9D9D9"/>
<rect x="74.0996" y="45.2812" width="1.45632" height="1.38565" transform="rotate(-180 74.0996 45.2812)" fill="#D9D9D9"/>
<rect x="72.6465" y="45.2812" width="1.45632" height="1.38565" transform="rotate(-180 72.6465 45.2812)" fill="#D9D9D9"/>
<rect x="71.1934" y="45.2812" width="1.45632" height="1.38565" transform="rotate(-180 71.1934 45.2812)" fill="#D9D9D9"/>
<rect x="69.7305" y="45.2812" width="1.45632" height="1.38565" transform="rotate(-180 69.7305 45.2812)" fill="#D9D9D9"/>
<rect x="68.2695" y="45.2812" width="1.45632" height="1.38565" transform="rotate(-180 68.2695 45.2812)" fill="#D9D9D9"/>
<rect x="66.8164" y="45.2812" width="1.45632" height="1.38565" transform="rotate(-180 66.8164 45.2812)" fill="#D9D9D9"/>
<rect x="65.3555" y="45.2812" width="1.45632" height="1.38565" transform="rotate(-180 65.3555 45.2812)" fill="#D9D9D9"/>
<rect x="63.8965" y="45.2812" width="1.45632" height="1.38565" transform="rotate(-180 63.8965 45.2812)" fill="#D9D9D9"/>
<rect x="62.4492" y="45.2812" width="1.45632" height="1.38565" transform="rotate(-180 62.4492 45.2812)" fill="#D9D9D9"/>
<rect x="60.9883" y="45.2812" width="1.45632" height="1.38565" transform="rotate(-180 60.9883 45.2812)" fill="#D9D9D9"/>
<rect x="59.5273" y="45.2812" width="1.45632" height="1.38565" transform="rotate(-180 59.5273 45.2812)" fill="#D9D9D9"/>
<rect x="85.7637" y="43.8906" width="1.45632" height="1.38565" transform="rotate(-180 85.7637 43.8906)" fill="#D9D9D9"/>
<rect x="84.3105" y="43.8906" width="1.45632" height="1.38565" transform="rotate(-180 84.3105 43.8906)" fill="#D9D9D9"/>
<rect x="82.8418" y="43.8906" width="1.45632" height="1.38565" transform="rotate(-180 82.8418 43.8906)" fill="#D9D9D9"/>
<rect x="81.3965" y="43.8906" width="1.45632" height="1.38565" transform="rotate(-180 81.3965 43.8906)" fill="#D9D9D9"/>
<rect x="79.9434" y="43.8906" width="1.45632" height="1.38565" transform="rotate(-180 79.9434 43.8906)" fill="#D9D9D9"/>
<rect x="78.4746" y="43.8906" width="1.45632" height="1.38565" transform="rotate(-180 78.4746 43.8906)" fill="#D9D9D9"/>
<rect x="77.0215" y="43.8906" width="1.45632" height="1.38565" transform="rotate(-180 77.0215 43.8906)" fill="#D9D9D9"/>
<rect x="75.5605" y="43.8906" width="1.45632" height="1.38565" transform="rotate(-180 75.5605 43.8906)" fill="#D9D9D9"/>
<rect x="74.0996" y="43.8906" width="1.45632" height="1.38565" transform="rotate(-180 74.0996 43.8906)" fill="#D9D9D9"/>
<rect x="72.6465" y="43.8906" width="1.45632" height="1.38565" transform="rotate(-180 72.6465 43.8906)" fill="#D9D9D9"/>
<rect x="71.1934" y="43.8906" width="1.45632" height="1.38565" transform="rotate(-180 71.1934 43.8906)" fill="#D9D9D9"/>
<rect x="69.7305" y="43.8906" width="1.45632" height="1.38565" transform="rotate(-180 69.7305 43.8906)" fill="#D9D9D9"/>
<rect x="68.2695" y="43.8906" width="1.45632" height="1.38565" transform="rotate(-180 68.2695 43.8906)" fill="#D9D9D9"/>
<rect x="66.8164" y="43.8906" width="1.45632" height="1.38565" transform="rotate(-180 66.8164 43.8906)" fill="#D9D9D9"/>
<rect x="65.3555" y="43.8906" width="1.45632" height="1.38565" transform="rotate(-180 65.3555 43.8906)" fill="#D9D9D9"/>
<rect x="63.8965" y="43.8906" width="1.45632" height="1.38565" transform="rotate(-180 63.8965 43.8906)" fill="#D9D9D9"/>
<rect x="62.4492" y="43.8906" width="1.45632" height="1.38565" transform="rotate(-180 62.4492 43.8906)" fill="#D9D9D9"/>
<rect x="60.9883" y="43.8906" width="1.45632" height="1.38565" transform="rotate(-180 60.9883 43.8906)" fill="#D9D9D9"/>
<rect x="59.5273" y="43.8906" width="1.45632" height="1.38565" transform="rotate(-180 59.5273 43.8906)" fill="#D9D9D9"/>
<rect x="58.0742" y="43.8906" width="1.45632" height="1.38565" transform="rotate(-180 58.0742 43.8906)" fill="#D9D9D9"/>
<path d="M28.5754 31.168V30.9588L29.6868 30.4226V23.2831L28.5754 22.7469V22.5377H32.7597C33.3874 22.5377 33.9453 22.6118 34.4335 22.76C34.9304 22.8995 35.3183 23.1131 35.5972 23.4007C35.8849 23.6797 36.0288 24.0371 36.0288 24.473C36.0288 24.9176 35.8588 25.3273 35.5188 25.7021C35.1875 26.077 34.7081 26.3385 34.0804 26.4867C34.926 26.6 35.5885 26.8485 36.068 27.232C36.5562 27.6069 36.8002 28.082 36.8002 28.6573C36.8002 29.1368 36.639 29.5683 36.3164 29.9519C35.9939 30.3267 35.5493 30.6231 34.9827 30.8411C34.4247 31.059 33.7884 31.168 33.0735 31.168H28.5754ZM32.1059 23.2569H31.6613V26.3952H32.1844C32.7597 26.3952 33.2087 26.2601 33.5312 25.9898C33.8538 25.7109 34.015 25.336 34.015 24.8653C34.015 23.793 33.3787 23.2569 32.1059 23.2569ZM32.5636 27.0359H31.6613V30.4488H32.6551C33.3002 30.4488 33.8014 30.2875 34.1589 29.965C34.525 29.6424 34.7081 29.2283 34.7081 28.7227C34.7081 28.1474 34.5206 27.7246 34.1458 27.4543C33.7797 27.1754 33.2523 27.0359 32.5636 27.0359ZM42.6143 31.2987C41.9692 31.2987 41.3721 31.1898 40.8229 30.9718C40.2737 30.7452 39.7942 30.4357 39.3845 30.0434C38.9835 29.6424 38.6697 29.1717 38.443 28.6312C38.2164 28.0907 38.1031 27.4979 38.1031 26.8528C38.1031 26.2078 38.2164 25.615 38.443 25.0745C38.6697 24.534 38.9835 24.0676 39.3845 23.6753C39.7942 23.2743 40.2737 22.9649 40.8229 22.7469C41.3721 22.5203 41.9692 22.407 42.6143 22.407C43.2681 22.407 43.8696 22.5203 44.4188 22.7469C44.968 22.9649 45.4431 23.2743 45.8441 23.6753C46.2539 24.0676 46.572 24.534 46.7987 25.0745C47.0253 25.615 47.1387 26.2078 47.1387 26.8528C47.1387 27.4979 47.0253 28.0907 46.7987 28.6312C46.572 29.1717 46.2539 29.6424 45.8441 30.0434C45.4431 30.4357 44.968 30.7452 44.4188 30.9718C43.8696 31.1898 43.2681 31.2987 42.6143 31.2987ZM42.8235 30.6188C43.2594 30.6188 43.643 30.4793 43.9742 30.2003C44.3142 29.9214 44.5757 29.5291 44.7588 29.0235C44.9506 28.5179 45.0465 27.9251 45.0465 27.2451C45.0465 26.4083 44.9288 25.676 44.6934 25.0483C44.4668 24.4207 44.1573 23.9369 43.765 23.5969C43.3727 23.2482 42.9325 23.0738 42.4443 23.0738C42.0085 23.0738 41.6205 23.2133 41.2806 23.4923C40.9406 23.7625 40.6703 24.1504 40.4698 24.656C40.2781 25.1617 40.1822 25.7544 40.1822 26.4344C40.1822 27.2713 40.2998 28.0035 40.5352 28.6312C40.7706 29.2589 41.0888 29.747 41.4898 30.0957C41.8908 30.4444 42.3354 30.6188 42.8235 30.6188ZM48.3294 31.168V30.9588L49.4409 30.4226V23.2961L48.3294 22.7469V22.5377H50.8139L55.8874 28.2651V23.27L54.3967 22.7469V22.5377H57.9012V22.7469L56.8028 23.2831V31.2333H55.992L50.3562 24.9306V30.4226L51.8469 30.9588V31.168H48.3294ZM58.9799 31.168V30.9588L60.0914 30.4226V23.2831L58.9799 22.7469V22.5377H63.1774V22.7469L62.0659 23.2831V30.4226L63.1774 30.9588V31.168H58.9799ZM62.0659 26.8136L65.6488 23.2307L64.6811 22.7469V22.5377H67.7671V22.7469L66.9041 23.1131L63.8704 26.029L67.5056 30.5795L68.4209 30.9588V31.168H65.518L62.0659 26.8136ZM72.3753 31.168V30.9588L73.4868 30.4226V23.2831L72.3753 22.7469V22.5377H76.8474C77.7627 22.5377 78.4819 22.7295 79.0049 23.1131C79.5367 23.4879 79.8026 24.0066 79.8026 24.6691C79.8026 25.1486 79.6413 25.5627 79.3188 25.9114C78.9962 26.2513 78.5734 26.5216 78.0504 26.7221L80.4695 30.4357L81.4109 30.9588V31.168H78.5734L76.1543 27.1667H75.4613V30.4096L76.442 30.9588V31.168H72.3753ZM75.9843 23.2569H75.4613V26.5259H76.0628C76.6033 26.5259 77.0304 26.3734 77.3443 26.0683C77.6581 25.7632 77.815 25.3665 77.815 24.8783C77.815 24.364 77.6581 23.9674 77.3443 23.6884C77.0391 23.4007 76.5858 23.2569 75.9843 23.2569ZM86.487 31.2987C85.7286 31.2987 85.0617 31.1767 84.4864 30.9326C83.911 30.6798 83.4621 30.2744 83.1395 29.7165C82.817 29.1499 82.6557 28.3958 82.6557 27.4543V23.2831L81.5312 22.7469V22.5377H85.7548V22.7469L84.6302 23.2831V27.4674C84.6302 28.191 84.7392 28.762 84.9571 29.1804C85.1838 29.5901 85.4845 29.8821 85.8594 30.0565C86.2429 30.2308 86.6657 30.318 87.1278 30.318C87.5113 30.318 87.8687 30.2396 88.2 30.0826C88.5313 29.9257 88.7971 29.6729 88.9976 29.3242C89.1982 28.9668 89.2984 28.5004 89.2984 27.9251V23.2569L88.0692 22.7469V22.5377H91.3383V22.7469L90.2137 23.27V27.4543C90.2137 28.3958 90.0568 29.1499 89.743 29.7165C89.4292 30.2744 88.9933 30.6798 88.4354 30.9326C87.8775 31.1767 87.228 31.2987 86.487 31.2987ZM92.5137 31.168V30.9588L93.6252 30.4226V23.2831L92.5137 22.7469V22.5377H96.7111V22.7469L95.5997 23.2831V30.4226L96.7111 30.9588V31.168H92.5137ZM97.863 31.168V30.9588L98.9744 30.4226V23.2961L97.863 22.7469V22.5377H100.347L105.421 28.2651V23.27L103.93 22.7469V22.5377H107.435V22.7469L106.336 23.2831V31.2333H105.526L99.8898 24.9306V30.4226L101.38 30.9588V31.168H97.863ZM111.533 31.2987C110.957 31.2987 110.448 31.2421 110.003 31.1287C109.567 31.0067 109.144 30.8411 108.735 30.6318L108.604 28.422H108.839L109.768 30.0303C110.003 30.2221 110.256 30.3703 110.526 30.4749C110.805 30.5795 111.088 30.6318 111.376 30.6318C111.847 30.6318 112.23 30.5229 112.527 30.3049C112.823 30.0783 112.971 29.747 112.971 29.3112C112.971 29.0148 112.901 28.7707 112.762 28.5789C112.631 28.3871 112.409 28.2084 112.095 28.0428C111.781 27.8684 111.35 27.6592 110.801 27.4151C110.182 27.1449 109.707 26.8223 109.375 26.4475C109.044 26.0726 108.878 25.6062 108.878 25.0483C108.878 24.6996 108.966 24.3684 109.14 24.0545C109.323 23.732 109.563 23.4487 109.859 23.2046C110.164 22.9518 110.5 22.7557 110.866 22.6162C111.241 22.4767 111.624 22.407 112.017 22.407C112.461 22.407 112.888 22.4593 113.298 22.5639C113.708 22.6685 114.087 22.8167 114.436 23.0085L114.567 25.1006H114.344L113.429 23.623C113.202 23.4487 112.98 23.3179 112.762 23.2307C112.553 23.1349 112.313 23.0869 112.043 23.0869C111.685 23.0869 111.389 23.2002 111.154 23.4269C110.918 23.6535 110.801 23.9543 110.801 24.3291C110.801 24.6866 110.927 24.983 111.18 25.2183C111.441 25.445 111.89 25.7021 112.527 25.9898C113.32 26.3559 113.904 26.7308 114.279 27.1144C114.654 27.4979 114.841 28.0035 114.841 28.6312C114.841 29.1891 114.68 29.6686 114.357 30.0696C114.035 30.4706 113.621 30.7757 113.115 30.9849C112.609 31.1941 112.082 31.2987 111.533 31.2987Z" fill="white"/>
<defs>
<filter id="filter0_ii_1248_2145" x="1.6718" y="9.16985" width="142.004" height="36.6115" filterUnits="userSpaceOnUse" color-interpolation-filters="sRGB">
<feFlood flood-opacity="0" result="BackgroundImageFix"/>
<feBlend mode="normal" in="SourceGraphic" in2="BackgroundImageFix" result="shape"/>
<feColorMatrix in="SourceAlpha" type="matrix" values="0 0 0 0 0 0 0 0 0 0 0 0 0 0 0 0 0 0 127 0" result="hardAlpha"/>
<feOffset dx="-2.21882" dy="-2.21882"/>
<feGaussianBlur stdDeviation="1.82339"/>
<feComposite in2="hardAlpha" operator="arithmetic" k2="-1" k3="1"/>
<feColorMatrix type="matrix" values="0 0 0 0 0.176471 0 0 0 0 0.133333 0 0 0 0 0.105882 0 0 0 0.25 0"/>
<feBlend mode="normal" in2="shape" result="effect1_innerShadow_1248_2145"/>
<feColorMatrix in="SourceAlpha" type="matrix" values="0 0 0 0 0 0 0 0 0 0 0 0 0 0 0 0 0 0 127 0" result="hardAlpha"/>
<feOffset dx="3.32823" dy="3.32823"/>
<feGaussianBlur stdDeviation="1.82339"/>
<feComposite in2="hardAlpha" operator="arithmetic" k2="-1" k3="1"/>
<feColorMatrix type="matrix" values="0 0 0 0 0.176471 0 0 0 0 0.133333 0 0 0 0 0.105882 0 0 0 0.25 0"/>
<feBlend mode="normal" in2="effect1_innerShadow_1248_2145" result="effect2_innerShadow_1248_2145"/>
</filter>
<linearGradient id="paint0_linear_1248_2145" x1="5" y1="12.498" x2="17.4067" y2="71.0616" gradientUnits="userSpaceOnUse">
<stop stop-color="#EB8C2A"/>
<stop offset="1" stop-color="#754515"/>
</linearGradient>
</defs>
</svg>
