<svg width="144" height="54" viewBox="0 0 144 54" fill="none" xmlns="http://www.w3.org/2000/svg">
<g filter="url(#filter0_ii_1248_1975)">
<path d="M5 41.622V12.7773H139.239V41.622H5Z" fill="#6B3C24"/>
</g>
<path d="M4.44529 41.622V42.1768H5H139.239H139.794V41.622V12.7773V12.2226H139.239H5H4.44529V12.7773V41.622Z" stroke="url(#paint0_linear_1248_1975)" stroke-width="1.10941"/>
<path d="M1.65809 21.7115H3.8766V11.7282H10.5321V9.50965H9.42288V8.40039H0.548828V20.6022H1.65809V21.7115Z" fill="#D9D9D9"/>
<path d="M142.553 21.7115H140.334V11.7282H133.679V9.50965H134.788V8.40039H143.662V20.6022H142.553V21.7115Z" fill="#D9D9D9"/>
<path d="M142.553 32.81L140.334 32.81L140.334 42.7933L133.679 42.7933L133.679 45.0118L134.788 45.0118L134.788 46.1211L143.662 46.1211L143.662 33.9193L142.553 33.9193L142.553 32.81Z" fill="#D9D9D9"/>
<path d="M1.65809 32.81L3.8766 32.81L3.8766 42.7933L10.5321 42.7933L10.5321 45.0118L9.42289 45.0118L9.42288 46.1211L0.548828 46.1211L0.548829 33.9193L1.65809 33.9193L1.65809 32.81Z" fill="#D9D9D9"/>
<rect x="65.8594" y="0.634766" width="1.45632" height="1.38565" fill="#D9D9D9"/>
<rect x="70.2285" y="0.634766" width="1.45632" height="1.38565" fill="#D9D9D9"/>
<rect x="71.6875" y="0.634766" width="1.45632" height="1.38565" fill="#D9D9D9"/>
<rect x="76.0645" y="0.634766" width="1.45632" height="1.38565" fill="#D9D9D9"/>
<rect x="64.4062" y="2.02344" width="1.45632" height="1.38565" fill="#D9D9D9"/>
<rect x="68.7812" y="2.02344" width="1.45632" height="1.38565" fill="#D9D9D9"/>
<rect x="70.2285" y="2.02344" width="1.45632" height="1.38565" fill="#D9D9D9"/>
<rect x="71.6875" y="2.02344" width="1.45632" height="1.38565" fill="#D9D9D9"/>
<rect x="73.1504" y="2.02344" width="1.45632" height="1.38565" fill="#D9D9D9"/>
<rect x="77.5254" y="2.02344" width="1.45632" height="1.38565" fill="#D9D9D9"/>
<rect x="62.9375" y="3.4082" width="1.45632" height="1.38565" fill="#D9D9D9"/>
<rect x="67.3203" y="3.4082" width="1.45632" height="1.38565" fill="#D9D9D9"/>
<rect x="68.7812" y="3.4082" width="1.45632" height="1.38565" fill="#D9D9D9"/>
<rect x="70.2285" y="3.4082" width="1.45632" height="1.38565" fill="#D9D9D9"/>
<rect x="71.6875" y="3.4082" width="1.45632" height="1.38565" fill="#D9D9D9"/>
<rect x="73.1504" y="3.4082" width="1.45632" height="1.38565" fill="#D9D9D9"/>
<rect x="74.6113" y="3.4082" width="1.45632" height="1.38565" fill="#D9D9D9"/>
<rect x="78.9844" y="3.4082" width="1.45632" height="1.38565" fill="#D9D9D9"/>
<rect x="65.8594" y="4.79492" width="1.45632" height="1.38565" fill="#D9D9D9"/>
<rect x="67.3203" y="4.79492" width="1.45632" height="1.38565" fill="#D9D9D9"/>
<rect x="68.7812" y="4.79492" width="1.45632" height="1.38565" fill="#D9D9D9"/>
<rect x="73.1504" y="4.79492" width="1.45632" height="1.38565" fill="#D9D9D9"/>
<rect x="74.6113" y="4.79492" width="1.45632" height="1.38565" fill="#D9D9D9"/>
<rect x="76.0645" y="4.79492" width="1.45632" height="1.38565" fill="#D9D9D9"/>
<rect x="64.4062" y="6.18164" width="1.45632" height="1.38565" fill="#D9D9D9"/>
<rect x="65.8594" y="6.18164" width="1.45632" height="1.38565" fill="#D9D9D9"/>
<rect x="67.3203" y="6.18164" width="1.45632" height="1.38565" fill="#D9D9D9"/>
<rect x="74.6113" y="6.18164" width="1.45632" height="1.38565" fill="#D9D9D9"/>
<rect x="76.0645" y="6.18164" width="1.45632" height="1.38565" fill="#D9D9D9"/>
<rect x="77.5254" y="6.18164" width="1.45632" height="1.38565" fill="#D9D9D9"/>
<rect x="61.4922" y="7.56836" width="1.45632" height="1.38565" fill="#D9D9D9"/>
<rect x="62.9375" y="7.56836" width="1.45632" height="1.38565" fill="#D9D9D9"/>
<rect x="64.4062" y="7.56836" width="1.45632" height="1.38565" fill="#D9D9D9"/>
<rect x="65.8594" y="7.56836" width="1.45632" height="1.38565" fill="#D9D9D9"/>
<rect x="76.0645" y="7.56836" width="1.45632" height="1.38565" fill="#D9D9D9"/>
<rect x="77.5254" y="7.56836" width="1.45632" height="1.38565" fill="#D9D9D9"/>
<rect x="78.9844" y="7.56836" width="1.45632" height="1.38565" fill="#D9D9D9"/>
<rect x="80.4316" y="7.56836" width="1.45632" height="1.38565" fill="#D9D9D9"/>
<rect x="58.5703" y="8.95508" width="1.45632" height="1.38565" fill="#D9D9D9"/>
<rect x="60.0391" y="8.95508" width="1.45632" height="1.38565" fill="#D9D9D9"/>
<rect x="61.4922" y="8.95508" width="1.45632" height="1.38565" fill="#D9D9D9"/>
<rect x="62.9375" y="8.95508" width="1.45632" height="1.38565" fill="#D9D9D9"/>
<rect x="64.4062" y="8.95508" width="1.45632" height="1.38565" fill="#D9D9D9"/>
<rect x="65.8594" y="8.95508" width="1.45632" height="1.38565" fill="#D9D9D9"/>
<rect x="67.3203" y="8.95508" width="1.45632" height="1.38565" fill="#D9D9D9"/>
<rect x="68.7812" y="8.95508" width="1.45632" height="1.38565" fill="#D9D9D9"/>
<rect x="70.2285" y="8.95508" width="1.45632" height="1.38565" fill="#D9D9D9"/>
<rect x="71.6875" y="8.95508" width="1.45632" height="1.38565" fill="#D9D9D9"/>
<rect x="73.1504" y="8.95508" width="1.45632" height="1.38565" fill="#D9D9D9"/>
<rect x="74.6113" y="8.95508" width="1.45632" height="1.38565" fill="#D9D9D9"/>
<rect x="76.0645" y="8.95508" width="1.45632" height="1.38565" fill="#D9D9D9"/>
<rect x="77.5254" y="8.95508" width="1.45632" height="1.38565" fill="#D9D9D9"/>
<rect x="78.9844" y="8.95508" width="1.45632" height="1.38565" fill="#D9D9D9"/>
<rect x="80.4316" y="8.95508" width="1.45632" height="1.38565" fill="#D9D9D9"/>
<rect x="81.8926" y="8.95508" width="1.45632" height="1.38565" fill="#D9D9D9"/>
<rect x="83.3535" y="8.95508" width="1.45632" height="1.38565" fill="#D9D9D9"/>
<rect x="57.1172" y="10.3438" width="1.45632" height="1.38565" fill="#D9D9D9"/>
<rect x="58.5703" y="10.3438" width="1.45632" height="1.38565" fill="#D9D9D9"/>
<rect x="60.0391" y="10.3438" width="1.45632" height="1.38565" fill="#D9D9D9"/>
<rect x="61.4922" y="10.3438" width="1.45632" height="1.38565" fill="#D9D9D9"/>
<rect x="62.9375" y="10.3438" width="1.45632" height="1.38565" fill="#D9D9D9"/>
<rect x="64.4062" y="10.3438" width="1.45632" height="1.38565" fill="#D9D9D9"/>
<rect x="65.8594" y="10.3438" width="1.45632" height="1.38565" fill="#D9D9D9"/>
<rect x="67.3203" y="10.3438" width="1.45632" height="1.38565" fill="#D9D9D9"/>
<rect x="68.7812" y="10.3438" width="1.45632" height="1.38565" fill="#D9D9D9"/>
<rect x="70.2285" y="10.3438" width="1.45632" height="1.38565" fill="#D9D9D9"/>
<rect x="71.6875" y="10.3438" width="1.45632" height="1.38565" fill="#D9D9D9"/>
<rect x="73.1504" y="10.3438" width="1.45632" height="1.38565" fill="#D9D9D9"/>
<rect x="74.6113" y="10.3438" width="1.45632" height="1.38565" fill="#D9D9D9"/>
<rect x="76.0645" y="10.3438" width="1.45632" height="1.38565" fill="#D9D9D9"/>
<rect x="77.5254" y="10.3438" width="1.45632" height="1.38565" fill="#D9D9D9"/>
<rect x="78.9844" y="10.3438" width="1.45632" height="1.38565" fill="#D9D9D9"/>
<rect x="80.4316" y="10.3438" width="1.45632" height="1.38565" fill="#D9D9D9"/>
<rect x="81.8926" y="10.3438" width="1.45632" height="1.38565" fill="#D9D9D9"/>
<rect x="83.3535" y="10.3438" width="1.45632" height="1.38565" fill="#D9D9D9"/>
<rect x="84.8066" y="10.3438" width="1.45632" height="1.38565" fill="#D9D9D9"/>
<rect x="77.5234" y="53.8809" width="1.45632" height="1.38565" transform="rotate(-180 77.5234 53.8809)" fill="#D9D9D9"/>
<rect x="73.1543" y="53.8809" width="1.45632" height="1.38565" transform="rotate(-180 73.1543 53.8809)" fill="#D9D9D9"/>
<rect x="71.6953" y="53.8809" width="1.45632" height="1.38565" transform="rotate(-180 71.6953 53.8809)" fill="#D9D9D9"/>
<rect x="67.3184" y="53.8809" width="1.45632" height="1.38565" transform="rotate(-180 67.3184 53.8809)" fill="#D9D9D9"/>
<rect x="78.9766" y="52.4922" width="1.45632" height="1.38565" transform="rotate(-180 78.9766 52.4922)" fill="#D9D9D9"/>
<rect x="74.6016" y="52.4922" width="1.45632" height="1.38565" transform="rotate(-180 74.6016 52.4922)" fill="#D9D9D9"/>
<rect x="73.1543" y="52.4922" width="1.45632" height="1.38565" transform="rotate(-180 73.1543 52.4922)" fill="#D9D9D9"/>
<rect x="71.6953" y="52.4922" width="1.45632" height="1.38565" transform="rotate(-180 71.6953 52.4922)" fill="#D9D9D9"/>
<rect x="70.2324" y="52.4922" width="1.45632" height="1.38565" transform="rotate(-180 70.2324 52.4922)" fill="#D9D9D9"/>
<rect x="65.8574" y="52.4922" width="1.45632" height="1.38565" transform="rotate(-180 65.8574 52.4922)" fill="#D9D9D9"/>
<rect x="80.4453" y="51.1074" width="1.45632" height="1.38565" transform="rotate(-180 80.4453 51.1074)" fill="#D9D9D9"/>
<rect x="76.0625" y="51.1074" width="1.45632" height="1.38565" transform="rotate(-180 76.0625 51.1074)" fill="#D9D9D9"/>
<rect x="74.6016" y="51.1074" width="1.45632" height="1.38565" transform="rotate(-180 74.6016 51.1074)" fill="#D9D9D9"/>
<rect x="73.1543" y="51.1074" width="1.45632" height="1.38565" transform="rotate(-180 73.1543 51.1074)" fill="#D9D9D9"/>
<rect x="71.6953" y="51.1074" width="1.45632" height="1.38565" transform="rotate(-180 71.6953 51.1074)" fill="#D9D9D9"/>
<rect x="70.2324" y="51.1074" width="1.45632" height="1.38565" transform="rotate(-180 70.2324 51.1074)" fill="#D9D9D9"/>
<rect x="68.7715" y="51.1074" width="1.45632" height="1.38565" transform="rotate(-180 68.7715 51.1074)" fill="#D9D9D9"/>
<rect x="64.3984" y="51.1074" width="1.45632" height="1.38565" transform="rotate(-180 64.3984 51.1074)" fill="#D9D9D9"/>
<rect x="77.5234" y="49.7207" width="1.45632" height="1.38565" transform="rotate(-180 77.5234 49.7207)" fill="#D9D9D9"/>
<rect x="76.0625" y="49.7207" width="1.45632" height="1.38565" transform="rotate(-180 76.0625 49.7207)" fill="#D9D9D9"/>
<rect x="74.6016" y="49.7207" width="1.45632" height="1.38565" transform="rotate(-180 74.6016 49.7207)" fill="#D9D9D9"/>
<rect x="70.2324" y="49.7207" width="1.45632" height="1.38565" transform="rotate(-180 70.2324 49.7207)" fill="#D9D9D9"/>
<rect x="68.7715" y="49.7207" width="1.45632" height="1.38565" transform="rotate(-180 68.7715 49.7207)" fill="#D9D9D9"/>
<rect x="67.3184" y="49.7207" width="1.45632" height="1.38565" transform="rotate(-180 67.3184 49.7207)" fill="#D9D9D9"/>
<rect x="78.9766" y="48.3359" width="1.45632" height="1.38565" transform="rotate(-180 78.9766 48.3359)" fill="#D9D9D9"/>
<rect x="77.5234" y="48.3359" width="1.45632" height="1.38565" transform="rotate(-180 77.5234 48.3359)" fill="#D9D9D9"/>
<rect x="76.0625" y="48.3359" width="1.45632" height="1.38565" transform="rotate(-180 76.0625 48.3359)" fill="#D9D9D9"/>
<rect x="68.7715" y="48.3359" width="1.45632" height="1.38565" transform="rotate(-180 68.7715 48.3359)" fill="#D9D9D9"/>
<rect x="67.3184" y="48.3359" width="1.45632" height="1.38565" transform="rotate(-180 67.3184 48.3359)" fill="#D9D9D9"/>
<rect x="65.8574" y="48.3359" width="1.45632" height="1.38565" transform="rotate(-180 65.8574 48.3359)" fill="#D9D9D9"/>
<rect x="81.8984" y="46.9473" width="1.45632" height="1.38565" transform="rotate(-180 81.8984 46.9473)" fill="#D9D9D9"/>
<rect x="80.4453" y="46.9473" width="1.45632" height="1.38565" transform="rotate(-180 80.4453 46.9473)" fill="#D9D9D9"/>
<rect x="78.9766" y="46.9473" width="1.45632" height="1.38565" transform="rotate(-180 78.9766 46.9473)" fill="#D9D9D9"/>
<rect x="77.5234" y="46.9473" width="1.45632" height="1.38565" transform="rotate(-180 77.5234 46.9473)" fill="#D9D9D9"/>
<rect x="67.3184" y="46.9473" width="1.45632" height="1.38565" transform="rotate(-180 67.3184 46.9473)" fill="#D9D9D9"/>
<rect x="65.8574" y="46.9473" width="1.45632" height="1.38565" transform="rotate(-180 65.8574 46.9473)" fill="#D9D9D9"/>
<rect x="64.3984" y="46.9473" width="1.45632" height="1.38565" transform="rotate(-180 64.3984 46.9473)" fill="#D9D9D9"/>
<rect x="62.9512" y="46.9473" width="1.45632" height="1.38565" transform="rotate(-180 62.9512 46.9473)" fill="#D9D9D9"/>
<rect x="84.8125" y="45.5605" width="1.45632" height="1.38565" transform="rotate(-180 84.8125 45.5605)" fill="#D9D9D9"/>
<rect x="83.3438" y="45.5605" width="1.45632" height="1.38565" transform="rotate(-180 83.3438 45.5605)" fill="#D9D9D9"/>
<rect x="81.8906" y="45.5605" width="1.45632" height="1.38565" transform="rotate(-180 81.8906 45.5605)" fill="#D9D9D9"/>
<rect x="80.4453" y="45.5605" width="1.45632" height="1.38565" transform="rotate(-180 80.4453 45.5605)" fill="#D9D9D9"/>
<rect x="78.9766" y="45.5605" width="1.45632" height="1.38565" transform="rotate(-180 78.9766 45.5605)" fill="#D9D9D9"/>
<rect x="77.5234" y="45.5605" width="1.45632" height="1.38565" transform="rotate(-180 77.5234 45.5605)" fill="#D9D9D9"/>
<rect x="76.0625" y="45.5605" width="1.45632" height="1.38565" transform="rotate(-180 76.0625 45.5605)" fill="#D9D9D9"/>
<rect x="74.6016" y="45.5605" width="1.45632" height="1.38565" transform="rotate(-180 74.6016 45.5605)" fill="#D9D9D9"/>
<rect x="73.1484" y="45.5605" width="1.45632" height="1.38565" transform="rotate(-180 73.1484 45.5605)" fill="#D9D9D9"/>
<rect x="71.6953" y="45.5605" width="1.45632" height="1.38565" transform="rotate(-180 71.6953 45.5605)" fill="#D9D9D9"/>
<rect x="70.2324" y="45.5605" width="1.45632" height="1.38565" transform="rotate(-180 70.2324 45.5605)" fill="#D9D9D9"/>
<rect x="68.7715" y="45.5605" width="1.45632" height="1.38565" transform="rotate(-180 68.7715 45.5605)" fill="#D9D9D9"/>
<rect x="67.3184" y="45.5605" width="1.45632" height="1.38565" transform="rotate(-180 67.3184 45.5605)" fill="#D9D9D9"/>
<rect x="65.8574" y="45.5605" width="1.45632" height="1.38565" transform="rotate(-180 65.8574 45.5605)" fill="#D9D9D9"/>
<rect x="64.3984" y="45.5605" width="1.45632" height="1.38565" transform="rotate(-180 64.3984 45.5605)" fill="#D9D9D9"/>
<rect x="62.9512" y="45.5605" width="1.45632" height="1.38565" transform="rotate(-180 62.9512 45.5605)" fill="#D9D9D9"/>
<rect x="61.4902" y="45.5605" width="1.45632" height="1.38565" transform="rotate(-180 61.4902 45.5605)" fill="#D9D9D9"/>
<rect x="60.0293" y="45.5605" width="1.45632" height="1.38565" transform="rotate(-180 60.0293 45.5605)" fill="#D9D9D9"/>
<rect x="86.2656" y="44.1699" width="1.45632" height="1.38565" transform="rotate(-180 86.2656 44.1699)" fill="#D9D9D9"/>
<rect x="84.8125" y="44.1699" width="1.45632" height="1.38565" transform="rotate(-180 84.8125 44.1699)" fill="#D9D9D9"/>
<rect x="83.3438" y="44.1699" width="1.45632" height="1.38565" transform="rotate(-180 83.3438 44.1699)" fill="#D9D9D9"/>
<rect x="81.8984" y="44.1699" width="1.45632" height="1.38565" transform="rotate(-180 81.8984 44.1699)" fill="#D9D9D9"/>
<rect x="80.4453" y="44.1699" width="1.45632" height="1.38565" transform="rotate(-180 80.4453 44.1699)" fill="#D9D9D9"/>
<rect x="78.9766" y="44.1699" width="1.45632" height="1.38565" transform="rotate(-180 78.9766 44.1699)" fill="#D9D9D9"/>
<rect x="77.5234" y="44.1699" width="1.45632" height="1.38565" transform="rotate(-180 77.5234 44.1699)" fill="#D9D9D9"/>
<rect x="76.0625" y="44.1699" width="1.45632" height="1.38565" transform="rotate(-180 76.0625 44.1699)" fill="#D9D9D9"/>
<rect x="74.6016" y="44.1699" width="1.45632" height="1.38565" transform="rotate(-180 74.6016 44.1699)" fill="#D9D9D9"/>
<rect x="73.1484" y="44.1699" width="1.45632" height="1.38565" transform="rotate(-180 73.1484 44.1699)" fill="#D9D9D9"/>
<rect x="71.6953" y="44.1699" width="1.45632" height="1.38565" transform="rotate(-180 71.6953 44.1699)" fill="#D9D9D9"/>
<rect x="70.2324" y="44.1699" width="1.45632" height="1.38565" transform="rotate(-180 70.2324 44.1699)" fill="#D9D9D9"/>
<rect x="68.7715" y="44.1699" width="1.45632" height="1.38565" transform="rotate(-180 68.7715 44.1699)" fill="#D9D9D9"/>
<rect x="67.3184" y="44.1699" width="1.45632" height="1.38565" transform="rotate(-180 67.3184 44.1699)" fill="#D9D9D9"/>
<rect x="65.8574" y="44.1699" width="1.45632" height="1.38565" transform="rotate(-180 65.8574 44.1699)" fill="#D9D9D9"/>
<rect x="64.3984" y="44.1699" width="1.45632" height="1.38565" transform="rotate(-180 64.3984 44.1699)" fill="#D9D9D9"/>
<rect x="62.9512" y="44.1699" width="1.45632" height="1.38565" transform="rotate(-180 62.9512 44.1699)" fill="#D9D9D9"/>
<rect x="61.4902" y="44.1699" width="1.45632" height="1.38565" transform="rotate(-180 61.4902 44.1699)" fill="#D9D9D9"/>
<rect x="60.0293" y="44.1699" width="1.45632" height="1.38565" transform="rotate(-180 60.0293 44.1699)" fill="#D9D9D9"/>
<rect x="58.5762" y="44.1699" width="1.45632" height="1.38565" transform="rotate(-180 58.5762 44.1699)" fill="#D9D9D9"/>
<path d="M17.5754 31.4473V31.238L18.6868 30.7019V23.5624L17.5754 23.0262V22.817H24.7018V25.0792H24.4926L23.525 23.5362H20.6613V26.6352H22.675L23.4073 25.5107H23.6165V28.4528H23.4073L22.675 27.3544H20.6613V30.7281H23.8388L24.8588 28.7797H25.068V31.4473H17.5754ZM26.1489 31.4473V31.238L26.9466 30.7935L30.3594 22.7516H31.5101L34.8838 30.7673L35.7729 31.238V31.4473H31.6409V31.238L32.7785 30.7673L31.8893 28.5967H28.7903L27.9011 30.7673L28.9864 31.238V31.4473H26.1489ZM29.091 27.8775H31.5886L30.3463 24.8307L29.091 27.8775ZM39.5704 31.578C38.9951 31.578 38.4851 31.5214 38.0405 31.408C37.6047 31.286 37.1819 31.1204 36.7721 30.9111L36.6414 28.7013H36.8768L37.8052 30.3096C38.0405 30.5014 38.2933 30.6496 38.5636 30.7542C38.8425 30.8588 39.1259 30.9111 39.4135 30.9111C39.8843 30.9111 40.2678 30.8022 40.5642 30.5842C40.8606 30.3576 41.0088 30.0263 41.0088 29.5905C41.0088 29.2941 40.9391 29.05 40.7996 28.8582C40.6688 28.6664 40.4465 28.4877 40.1327 28.3221C39.8189 28.1477 39.3874 27.9385 38.8382 27.6944C38.2192 27.4242 37.7441 27.1016 37.4129 26.7268C37.0816 26.3519 36.916 25.8855 36.916 25.3276C36.916 24.9789 37.0032 24.6477 37.1775 24.3338C37.3606 24.0113 37.6003 23.728 37.8967 23.4839C38.2018 23.2311 38.5374 23.0349 38.9036 22.8955C39.2784 22.756 39.662 22.6863 40.0543 22.6863C40.4989 22.6863 40.926 22.7386 41.3357 22.8432C41.7454 22.9478 42.1247 23.096 42.4733 23.2878L42.6041 25.3799H42.3818L41.4665 23.9023C41.2398 23.728 41.0175 23.5972 40.7996 23.51C40.5904 23.4142 40.3507 23.3662 40.0804 23.3662C39.723 23.3662 39.4266 23.4795 39.1912 23.7062C38.9559 23.9328 38.8382 24.2336 38.8382 24.6084C38.8382 24.9659 38.9646 25.2623 39.2174 25.4976C39.4789 25.7243 39.9279 25.9814 40.5642 26.2691C41.3575 26.6352 41.9416 27.0101 42.3164 27.3937C42.6913 27.7772 42.8787 28.2828 42.8787 28.9105C42.8787 29.4684 42.7174 29.9479 42.3949 30.3489C42.0723 30.7499 41.6583 31.055 41.1527 31.2642C40.647 31.4734 40.1196 31.578 39.5704 31.578ZM45.7197 31.4473V31.238L47.1058 30.7019V23.5362H45.2359L44.1898 25.6938H43.9806V22.817H52.2055V25.6938H51.9963L50.9502 23.5362H49.0803V30.7019L50.4663 31.238V31.4473H45.7197ZM56.5228 31.4473V31.238L57.6343 30.7019V23.5624L56.5228 23.0262V22.817H60.9818C62.0192 22.817 62.8996 22.987 63.6232 23.327C64.3467 23.667 64.8959 24.1333 65.2708 24.7261C65.6544 25.3189 65.8461 25.9902 65.8461 26.7399C65.8461 27.4198 65.7197 28.0475 65.4669 28.6228C65.2228 29.1982 64.8785 29.6951 64.4339 30.1135C63.9893 30.5319 63.4663 30.8588 62.8648 31.0942C62.2633 31.3296 61.6051 31.4473 60.8903 31.4473H56.5228ZM60.4457 23.5362H59.6088V30.7281H60.6288C61.64 30.7281 62.4202 30.4055 62.9694 29.7604C63.5186 29.1066 63.7932 28.2349 63.7932 27.1452C63.7932 26.0468 63.5099 25.1707 62.9432 24.5169C62.3853 23.8631 61.5528 23.5362 60.4457 23.5362ZM71.9115 31.578C71.1531 31.578 70.4862 31.456 69.9109 31.2119C69.3355 30.9591 68.8866 30.5537 68.564 29.9958C68.2415 29.4292 68.0802 28.6751 68.0802 27.7336V23.5624L66.9557 23.0262V22.817H71.1793V23.0262L70.0547 23.5624V27.7467C70.0547 28.4703 70.1637 29.0413 70.3816 29.4597C70.6083 29.8694 70.909 30.1614 71.2839 30.3358C71.6674 30.5101 72.0902 30.5973 72.5523 30.5973C72.9358 30.5973 73.2932 30.5189 73.6245 30.3619C73.9558 30.205 74.2216 29.9522 74.4221 29.6035C74.6226 29.2461 74.7229 28.7797 74.7229 28.2044V23.5362L73.4937 23.0262V22.817H76.7628V23.0262L75.6382 23.5493V27.7336C75.6382 28.6751 75.4813 29.4292 75.1675 29.9958C74.8537 30.5537 74.4178 30.9591 73.8599 31.2119C73.302 31.456 72.6525 31.578 71.9115 31.578ZM77.8859 31.4473V31.238L78.9974 30.7019V23.5754L77.8859 23.0262V22.817H80.3704L85.4439 28.5444V23.5493L83.9532 23.0262V22.817H87.4576V23.0262L86.3592 23.5624V31.5126H85.5485L79.9127 25.2099V30.7019L81.4034 31.238V31.4473H77.8859ZM93.1772 31.578C92.5496 31.578 91.9611 31.4734 91.4119 31.2642C90.8715 31.0463 90.392 30.7455 89.9736 30.3619C89.5638 29.9784 89.2413 29.5294 89.0059 29.0151C88.7793 28.4921 88.6659 27.9254 88.6659 27.3152C88.6659 26.644 88.7967 26.0294 89.0582 25.4715C89.3198 24.9048 89.6815 24.4123 90.1435 23.9939C90.6056 23.5754 91.133 23.2529 91.7258 23.0262C92.3185 22.7996 92.9418 22.6863 93.5957 22.6863C94.0577 22.6863 94.45 22.7124 94.7725 22.7647C95.1038 22.817 95.3958 22.8911 95.6486 22.987C95.9101 23.0829 96.1673 23.1919 96.4201 23.3139L96.5639 25.6153H96.3286L95.0733 23.7193C94.8379 23.5711 94.6112 23.4708 94.3933 23.4185C94.1754 23.3575 93.9269 23.327 93.648 23.327C93.0988 23.327 92.6019 23.4839 92.1573 23.7977C91.7127 24.1115 91.3596 24.5518 91.0981 25.1184C90.8366 25.6763 90.7058 26.3301 90.7058 27.0798C90.7058 27.8644 90.8322 28.54 91.085 29.1066C91.3378 29.6646 91.6778 30.0961 92.105 30.4012C92.5408 30.7063 93.0247 30.8588 93.5564 30.8588C93.7046 30.8588 93.8659 30.8545 94.0402 30.8458C94.2146 30.8283 94.3889 30.8022 94.5633 30.7673V28.3482L93.3995 27.7336V27.5244H97.5054V27.7336L96.5247 28.3613V30.4796C96.2545 30.7063 95.9276 30.9024 95.544 31.0681C95.1691 31.225 94.7725 31.3514 94.3541 31.4473C93.9443 31.5344 93.5521 31.578 93.1772 31.578ZM98.4712 31.4473V31.238L99.5827 30.7019V23.5624L98.4712 23.0262V22.817H105.598V25.0792H105.388L104.421 23.5362H101.557V26.6352H103.571L104.303 25.5107H104.512V28.4528H104.303L103.571 27.3544H101.557V30.7281H104.735L105.755 28.7797H105.964V31.4473H98.4712ZM111.948 31.578C111.303 31.578 110.706 31.4691 110.157 31.2511C109.608 31.0245 109.128 30.715 108.719 30.3227C108.318 29.9217 108.004 29.451 107.777 28.9105C107.55 28.37 107.437 27.7772 107.437 27.1321C107.437 26.487 107.55 25.8943 107.777 25.3538C108.004 24.8133 108.318 24.3469 108.719 23.9546C109.128 23.5536 109.608 23.2442 110.157 23.0262C110.706 22.7996 111.303 22.6863 111.948 22.6863C112.602 22.6863 113.204 22.7996 113.753 23.0262C114.302 23.2442 114.777 23.5536 115.178 23.9546C115.588 24.3469 115.906 24.8133 116.133 25.3538C116.359 25.8943 116.473 26.487 116.473 27.1321C116.473 27.7772 116.359 28.37 116.133 28.9105C115.906 29.451 115.588 29.9217 115.178 30.3227C114.777 30.715 114.302 31.0245 113.753 31.2511C113.204 31.4691 112.602 31.578 111.948 31.578ZM112.158 30.8981C112.593 30.8981 112.977 30.7586 113.308 30.4796C113.648 30.2007 113.91 29.8084 114.093 29.3028C114.285 28.7972 114.38 28.2044 114.38 27.5244C114.38 26.6875 114.263 25.9553 114.027 25.3276C113.801 24.7 113.491 24.2162 113.099 23.8762C112.707 23.5275 112.267 23.3531 111.778 23.3531C111.342 23.3531 110.955 23.4926 110.615 23.7716C110.275 24.0418 110.004 24.4297 109.804 24.9353C109.612 25.441 109.516 26.0337 109.516 26.7137C109.516 27.5506 109.634 28.2828 109.869 28.9105C110.105 29.5381 110.423 30.0263 110.824 30.375C111.225 30.7237 111.669 30.8981 112.158 30.8981ZM117.663 31.4473V31.238L118.775 30.7019V23.5754L117.663 23.0262V22.817H120.148L125.221 28.5444V23.5493L123.731 23.0262V22.817H127.235V23.0262L126.137 23.5624V31.5126H125.326L119.69 25.2099V30.7019L121.181 31.238V31.4473H117.663Z" fill="white"/>
<defs>
<filter id="filter0_ii_1248_1975" x="1.6718" y="9.44915" width="142.004" height="36.6115" filterUnits="userSpaceOnUse" color-interpolation-filters="sRGB">
<feFlood flood-opacity="0" result="BackgroundImageFix"/>
<feBlend mode="normal" in="SourceGraphic" in2="BackgroundImageFix" result="shape"/>
<feColorMatrix in="SourceAlpha" type="matrix" values="0 0 0 0 0 0 0 0 0 0 0 0 0 0 0 0 0 0 127 0" result="hardAlpha"/>
<feOffset dx="-2.21882" dy="-2.21882"/>
<feGaussianBlur stdDeviation="1.82339"/>
<feComposite in2="hardAlpha" operator="arithmetic" k2="-1" k3="1"/>
<feColorMatrix type="matrix" values="0 0 0 0 0.176471 0 0 0 0 0.133333 0 0 0 0 0.105882 0 0 0 0.25 0"/>
<feBlend mode="normal" in2="shape" result="effect1_innerShadow_1248_1975"/>
<feColorMatrix in="SourceAlpha" type="matrix" values="0 0 0 0 0 0 0 0 0 0 0 0 0 0 0 0 0 0 127 0" result="hardAlpha"/>
<feOffset dx="3.32823" dy="3.32823"/>
<feGaussianBlur stdDeviation="1.82339"/>
<feComposite in2="hardAlpha" operator="arithmetic" k2="-1" k3="1"/>
<feColorMatrix type="matrix" values="0 0 0 0 0.176471 0 0 0 0 0.133333 0 0 0 0 0.105882 0 0 0 0.25 0"/>
<feBlend mode="normal" in2="effect1_innerShadow_1248_1975" result="effect2_innerShadow_1248_1975"/>
</filter>
<linearGradient id="paint0_linear_1248_1975" x1="5" y1="12.7773" x2="17.4067" y2="71.3409" gradientUnits="userSpaceOnUse">
<stop stop-color="#EB8C2A"/>
<stop offset="1" stop-color="#754515"/>
</linearGradient>
</defs>
</svg>
