<svg width="144" height="54" viewBox="0 0 144 54" fill="none" xmlns="http://www.w3.org/2000/svg">
<g filter="url(#filter0_ii_1248_2315)">
<path d="M5 41.6201V12.7754H139.239V41.6201H5Z" fill="#6B3C24"/>
</g>
<path d="M4.44529 41.6201V42.1748H5H139.239H139.794V41.6201V12.7754V12.2207H139.239H5H4.44529V12.7754V41.6201Z" stroke="url(#paint0_linear_1248_2315)" stroke-width="1.10941"/>
<path d="M1.15613 21.7095H3.37465V11.7262H10.0302V9.50769H8.92093V8.39844H0.046875V20.6003H1.15613V21.7095Z" fill="#D9D9D9"/>
<path d="M142.051 21.7095H139.832V11.7262H133.177V9.50769H134.286V8.39844H143.16V20.6003H142.051V21.7095Z" fill="#D9D9D9"/>
<path d="M142.051 32.8081L139.832 32.8081L139.832 42.7914L133.177 42.7914L133.177 45.0099L134.286 45.0099L134.286 46.1191L143.16 46.1191L143.16 33.9173L142.051 33.9173L142.051 32.8081Z" fill="#D9D9D9"/>
<path d="M1.15613 32.8081L3.37465 32.8081L3.37465 42.7914L10.0302 42.7914L10.0302 45.0099L8.92093 45.0099L8.92093 46.1191L0.046875 46.1191L0.0468761 33.9173L1.15613 33.9173L1.15613 32.8081Z" fill="#D9D9D9"/>
<rect x="65.3574" y="0.632812" width="1.45632" height="1.38565" fill="#D9D9D9"/>
<rect x="69.7266" y="0.632812" width="1.45632" height="1.38565" fill="#D9D9D9"/>
<rect x="71.1855" y="0.632812" width="1.45632" height="1.38565" fill="#D9D9D9"/>
<rect x="75.5625" y="0.632812" width="1.45632" height="1.38565" fill="#D9D9D9"/>
<rect x="63.9043" y="2.02148" width="1.45632" height="1.38565" fill="#D9D9D9"/>
<rect x="68.2793" y="2.02148" width="1.45632" height="1.38565" fill="#D9D9D9"/>
<rect x="69.7266" y="2.02148" width="1.45632" height="1.38565" fill="#D9D9D9"/>
<rect x="71.1855" y="2.02148" width="1.45632" height="1.38565" fill="#D9D9D9"/>
<rect x="72.6484" y="2.02148" width="1.45632" height="1.38565" fill="#D9D9D9"/>
<rect x="77.0234" y="2.02148" width="1.45632" height="1.38565" fill="#D9D9D9"/>
<rect x="62.4355" y="3.40625" width="1.45632" height="1.38565" fill="#D9D9D9"/>
<rect x="66.8184" y="3.40625" width="1.45632" height="1.38565" fill="#D9D9D9"/>
<rect x="68.2793" y="3.40625" width="1.45632" height="1.38565" fill="#D9D9D9"/>
<rect x="69.7266" y="3.40625" width="1.45632" height="1.38565" fill="#D9D9D9"/>
<rect x="71.1855" y="3.40625" width="1.45632" height="1.38565" fill="#D9D9D9"/>
<rect x="72.6484" y="3.40625" width="1.45632" height="1.38565" fill="#D9D9D9"/>
<rect x="74.1094" y="3.40625" width="1.45632" height="1.38565" fill="#D9D9D9"/>
<rect x="78.4824" y="3.40625" width="1.45632" height="1.38565" fill="#D9D9D9"/>
<rect x="65.3574" y="4.79297" width="1.45632" height="1.38565" fill="#D9D9D9"/>
<rect x="66.8184" y="4.79297" width="1.45632" height="1.38565" fill="#D9D9D9"/>
<rect x="68.2793" y="4.79297" width="1.45632" height="1.38565" fill="#D9D9D9"/>
<rect x="72.6484" y="4.79297" width="1.45632" height="1.38565" fill="#D9D9D9"/>
<rect x="74.1094" y="4.79297" width="1.45632" height="1.38565" fill="#D9D9D9"/>
<rect x="75.5625" y="4.79297" width="1.45632" height="1.38565" fill="#D9D9D9"/>
<rect x="63.9043" y="6.17969" width="1.45632" height="1.38565" fill="#D9D9D9"/>
<rect x="65.3574" y="6.17969" width="1.45632" height="1.38565" fill="#D9D9D9"/>
<rect x="66.8184" y="6.17969" width="1.45632" height="1.38565" fill="#D9D9D9"/>
<rect x="74.1094" y="6.17969" width="1.45632" height="1.38565" fill="#D9D9D9"/>
<rect x="75.5625" y="6.17969" width="1.45632" height="1.38565" fill="#D9D9D9"/>
<rect x="77.0234" y="6.17969" width="1.45632" height="1.38565" fill="#D9D9D9"/>
<rect x="60.9902" y="7.56641" width="1.45632" height="1.38565" fill="#D9D9D9"/>
<rect x="62.4355" y="7.56641" width="1.45632" height="1.38565" fill="#D9D9D9"/>
<rect x="63.9043" y="7.56641" width="1.45632" height="1.38565" fill="#D9D9D9"/>
<rect x="65.3574" y="7.56641" width="1.45632" height="1.38565" fill="#D9D9D9"/>
<rect x="75.5625" y="7.56641" width="1.45632" height="1.38565" fill="#D9D9D9"/>
<rect x="77.0234" y="7.56641" width="1.45632" height="1.38565" fill="#D9D9D9"/>
<rect x="78.4824" y="7.56641" width="1.45632" height="1.38565" fill="#D9D9D9"/>
<rect x="79.9297" y="7.56641" width="1.45632" height="1.38565" fill="#D9D9D9"/>
<rect x="58.0684" y="8.95312" width="1.45632" height="1.38565" fill="#D9D9D9"/>
<rect x="59.5371" y="8.95312" width="1.45632" height="1.38565" fill="#D9D9D9"/>
<rect x="60.9902" y="8.95312" width="1.45632" height="1.38565" fill="#D9D9D9"/>
<rect x="62.4355" y="8.95312" width="1.45632" height="1.38565" fill="#D9D9D9"/>
<rect x="63.9043" y="8.95312" width="1.45632" height="1.38565" fill="#D9D9D9"/>
<rect x="65.3574" y="8.95312" width="1.45632" height="1.38565" fill="#D9D9D9"/>
<rect x="66.8184" y="8.95312" width="1.45632" height="1.38565" fill="#D9D9D9"/>
<rect x="68.2793" y="8.95312" width="1.45632" height="1.38565" fill="#D9D9D9"/>
<rect x="69.7266" y="8.95312" width="1.45632" height="1.38565" fill="#D9D9D9"/>
<rect x="71.1855" y="8.95312" width="1.45632" height="1.38565" fill="#D9D9D9"/>
<rect x="72.6484" y="8.95312" width="1.45632" height="1.38565" fill="#D9D9D9"/>
<rect x="74.1094" y="8.95312" width="1.45632" height="1.38565" fill="#D9D9D9"/>
<rect x="75.5625" y="8.95312" width="1.45632" height="1.38565" fill="#D9D9D9"/>
<rect x="77.0234" y="8.95312" width="1.45632" height="1.38565" fill="#D9D9D9"/>
<rect x="78.4824" y="8.95312" width="1.45632" height="1.38565" fill="#D9D9D9"/>
<rect x="79.9297" y="8.95312" width="1.45632" height="1.38565" fill="#D9D9D9"/>
<rect x="81.3906" y="8.95312" width="1.45632" height="1.38565" fill="#D9D9D9"/>
<rect x="82.8516" y="8.95312" width="1.45632" height="1.38565" fill="#D9D9D9"/>
<rect x="56.6152" y="10.3418" width="1.45632" height="1.38565" fill="#D9D9D9"/>
<rect x="58.0684" y="10.3418" width="1.45632" height="1.38565" fill="#D9D9D9"/>
<rect x="59.5371" y="10.3418" width="1.45632" height="1.38565" fill="#D9D9D9"/>
<rect x="60.9902" y="10.3418" width="1.45632" height="1.38565" fill="#D9D9D9"/>
<rect x="62.4355" y="10.3418" width="1.45632" height="1.38565" fill="#D9D9D9"/>
<rect x="63.9043" y="10.3418" width="1.45632" height="1.38565" fill="#D9D9D9"/>
<rect x="65.3574" y="10.3418" width="1.45632" height="1.38565" fill="#D9D9D9"/>
<rect x="66.8184" y="10.3418" width="1.45632" height="1.38565" fill="#D9D9D9"/>
<rect x="68.2793" y="10.3418" width="1.45632" height="1.38565" fill="#D9D9D9"/>
<rect x="69.7266" y="10.3418" width="1.45632" height="1.38565" fill="#D9D9D9"/>
<rect x="71.1855" y="10.3418" width="1.45632" height="1.38565" fill="#D9D9D9"/>
<rect x="72.6484" y="10.3418" width="1.45632" height="1.38565" fill="#D9D9D9"/>
<rect x="74.1094" y="10.3418" width="1.45632" height="1.38565" fill="#D9D9D9"/>
<rect x="75.5625" y="10.3418" width="1.45632" height="1.38565" fill="#D9D9D9"/>
<rect x="77.0234" y="10.3418" width="1.45632" height="1.38565" fill="#D9D9D9"/>
<rect x="78.4824" y="10.3418" width="1.45632" height="1.38565" fill="#D9D9D9"/>
<rect x="79.9297" y="10.3418" width="1.45632" height="1.38565" fill="#D9D9D9"/>
<rect x="81.3906" y="10.3418" width="1.45632" height="1.38565" fill="#D9D9D9"/>
<rect x="82.8516" y="10.3418" width="1.45632" height="1.38565" fill="#D9D9D9"/>
<rect x="84.3047" y="10.3418" width="1.45632" height="1.38565" fill="#D9D9D9"/>
<rect x="77.0215" y="53.8789" width="1.45632" height="1.38565" transform="rotate(-180 77.0215 53.8789)" fill="#D9D9D9"/>
<rect x="72.6523" y="53.8789" width="1.45632" height="1.38565" transform="rotate(-180 72.6523 53.8789)" fill="#D9D9D9"/>
<rect x="71.1934" y="53.8789" width="1.45632" height="1.38565" transform="rotate(-180 71.1934 53.8789)" fill="#D9D9D9"/>
<rect x="66.8164" y="53.8789" width="1.45632" height="1.38565" transform="rotate(-180 66.8164 53.8789)" fill="#D9D9D9"/>
<rect x="78.4746" y="52.4902" width="1.45632" height="1.38565" transform="rotate(-180 78.4746 52.4902)" fill="#D9D9D9"/>
<rect x="74.0996" y="52.4902" width="1.45632" height="1.38565" transform="rotate(-180 74.0996 52.4902)" fill="#D9D9D9"/>
<rect x="72.6523" y="52.4902" width="1.45632" height="1.38565" transform="rotate(-180 72.6523 52.4902)" fill="#D9D9D9"/>
<rect x="71.1934" y="52.4902" width="1.45632" height="1.38565" transform="rotate(-180 71.1934 52.4902)" fill="#D9D9D9"/>
<rect x="69.7305" y="52.4902" width="1.45632" height="1.38565" transform="rotate(-180 69.7305 52.4902)" fill="#D9D9D9"/>
<rect x="65.3555" y="52.4902" width="1.45632" height="1.38565" transform="rotate(-180 65.3555 52.4902)" fill="#D9D9D9"/>
<rect x="79.9434" y="51.1055" width="1.45632" height="1.38565" transform="rotate(-180 79.9434 51.1055)" fill="#D9D9D9"/>
<rect x="75.5605" y="51.1055" width="1.45632" height="1.38565" transform="rotate(-180 75.5605 51.1055)" fill="#D9D9D9"/>
<rect x="74.0996" y="51.1055" width="1.45632" height="1.38565" transform="rotate(-180 74.0996 51.1055)" fill="#D9D9D9"/>
<rect x="72.6523" y="51.1055" width="1.45632" height="1.38565" transform="rotate(-180 72.6523 51.1055)" fill="#D9D9D9"/>
<rect x="71.1934" y="51.1055" width="1.45632" height="1.38565" transform="rotate(-180 71.1934 51.1055)" fill="#D9D9D9"/>
<rect x="69.7305" y="51.1055" width="1.45632" height="1.38565" transform="rotate(-180 69.7305 51.1055)" fill="#D9D9D9"/>
<rect x="68.2695" y="51.1055" width="1.45632" height="1.38565" transform="rotate(-180 68.2695 51.1055)" fill="#D9D9D9"/>
<rect x="63.8965" y="51.1055" width="1.45632" height="1.38565" transform="rotate(-180 63.8965 51.1055)" fill="#D9D9D9"/>
<rect x="77.0215" y="49.7188" width="1.45632" height="1.38565" transform="rotate(-180 77.0215 49.7188)" fill="#D9D9D9"/>
<rect x="75.5605" y="49.7188" width="1.45632" height="1.38565" transform="rotate(-180 75.5605 49.7188)" fill="#D9D9D9"/>
<rect x="74.0996" y="49.7188" width="1.45632" height="1.38565" transform="rotate(-180 74.0996 49.7188)" fill="#D9D9D9"/>
<rect x="69.7305" y="49.7188" width="1.45632" height="1.38565" transform="rotate(-180 69.7305 49.7188)" fill="#D9D9D9"/>
<rect x="68.2695" y="49.7188" width="1.45632" height="1.38565" transform="rotate(-180 68.2695 49.7188)" fill="#D9D9D9"/>
<rect x="66.8164" y="49.7188" width="1.45632" height="1.38565" transform="rotate(-180 66.8164 49.7188)" fill="#D9D9D9"/>
<rect x="78.4746" y="48.334" width="1.45632" height="1.38565" transform="rotate(-180 78.4746 48.334)" fill="#D9D9D9"/>
<rect x="77.0215" y="48.334" width="1.45632" height="1.38565" transform="rotate(-180 77.0215 48.334)" fill="#D9D9D9"/>
<rect x="75.5605" y="48.334" width="1.45632" height="1.38565" transform="rotate(-180 75.5605 48.334)" fill="#D9D9D9"/>
<rect x="68.2695" y="48.334" width="1.45632" height="1.38565" transform="rotate(-180 68.2695 48.334)" fill="#D9D9D9"/>
<rect x="66.8164" y="48.334" width="1.45632" height="1.38565" transform="rotate(-180 66.8164 48.334)" fill="#D9D9D9"/>
<rect x="65.3555" y="48.334" width="1.45632" height="1.38565" transform="rotate(-180 65.3555 48.334)" fill="#D9D9D9"/>
<rect x="81.3965" y="46.9453" width="1.45632" height="1.38565" transform="rotate(-180 81.3965 46.9453)" fill="#D9D9D9"/>
<rect x="79.9434" y="46.9453" width="1.45632" height="1.38565" transform="rotate(-180 79.9434 46.9453)" fill="#D9D9D9"/>
<rect x="78.4746" y="46.9453" width="1.45632" height="1.38565" transform="rotate(-180 78.4746 46.9453)" fill="#D9D9D9"/>
<rect x="77.0215" y="46.9453" width="1.45632" height="1.38565" transform="rotate(-180 77.0215 46.9453)" fill="#D9D9D9"/>
<rect x="66.8164" y="46.9453" width="1.45632" height="1.38565" transform="rotate(-180 66.8164 46.9453)" fill="#D9D9D9"/>
<rect x="65.3555" y="46.9453" width="1.45632" height="1.38565" transform="rotate(-180 65.3555 46.9453)" fill="#D9D9D9"/>
<rect x="63.8965" y="46.9453" width="1.45632" height="1.38565" transform="rotate(-180 63.8965 46.9453)" fill="#D9D9D9"/>
<rect x="62.4492" y="46.9453" width="1.45632" height="1.38565" transform="rotate(-180 62.4492 46.9453)" fill="#D9D9D9"/>
<rect x="84.3105" y="45.5586" width="1.45632" height="1.38565" transform="rotate(-180 84.3105 45.5586)" fill="#D9D9D9"/>
<rect x="82.8418" y="45.5586" width="1.45632" height="1.38565" transform="rotate(-180 82.8418 45.5586)" fill="#D9D9D9"/>
<rect x="81.3887" y="45.5586" width="1.45632" height="1.38565" transform="rotate(-180 81.3887 45.5586)" fill="#D9D9D9"/>
<rect x="79.9434" y="45.5586" width="1.45632" height="1.38565" transform="rotate(-180 79.9434 45.5586)" fill="#D9D9D9"/>
<rect x="78.4746" y="45.5586" width="1.45632" height="1.38565" transform="rotate(-180 78.4746 45.5586)" fill="#D9D9D9"/>
<rect x="77.0215" y="45.5586" width="1.45632" height="1.38565" transform="rotate(-180 77.0215 45.5586)" fill="#D9D9D9"/>
<rect x="75.5605" y="45.5586" width="1.45632" height="1.38565" transform="rotate(-180 75.5605 45.5586)" fill="#D9D9D9"/>
<rect x="74.0996" y="45.5586" width="1.45632" height="1.38565" transform="rotate(-180 74.0996 45.5586)" fill="#D9D9D9"/>
<rect x="72.6465" y="45.5586" width="1.45632" height="1.38565" transform="rotate(-180 72.6465 45.5586)" fill="#D9D9D9"/>
<rect x="71.1934" y="45.5586" width="1.45632" height="1.38565" transform="rotate(-180 71.1934 45.5586)" fill="#D9D9D9"/>
<rect x="69.7305" y="45.5586" width="1.45632" height="1.38565" transform="rotate(-180 69.7305 45.5586)" fill="#D9D9D9"/>
<rect x="68.2695" y="45.5586" width="1.45632" height="1.38565" transform="rotate(-180 68.2695 45.5586)" fill="#D9D9D9"/>
<rect x="66.8164" y="45.5586" width="1.45632" height="1.38565" transform="rotate(-180 66.8164 45.5586)" fill="#D9D9D9"/>
<rect x="65.3555" y="45.5586" width="1.45632" height="1.38565" transform="rotate(-180 65.3555 45.5586)" fill="#D9D9D9"/>
<rect x="63.8965" y="45.5586" width="1.45632" height="1.38565" transform="rotate(-180 63.8965 45.5586)" fill="#D9D9D9"/>
<rect x="62.4492" y="45.5586" width="1.45632" height="1.38565" transform="rotate(-180 62.4492 45.5586)" fill="#D9D9D9"/>
<rect x="60.9883" y="45.5586" width="1.45632" height="1.38565" transform="rotate(-180 60.9883 45.5586)" fill="#D9D9D9"/>
<rect x="59.5273" y="45.5586" width="1.45632" height="1.38565" transform="rotate(-180 59.5273 45.5586)" fill="#D9D9D9"/>
<rect x="85.7637" y="44.168" width="1.45632" height="1.38565" transform="rotate(-180 85.7637 44.168)" fill="#D9D9D9"/>
<rect x="84.3105" y="44.168" width="1.45632" height="1.38565" transform="rotate(-180 84.3105 44.168)" fill="#D9D9D9"/>
<rect x="82.8418" y="44.168" width="1.45632" height="1.38565" transform="rotate(-180 82.8418 44.168)" fill="#D9D9D9"/>
<rect x="81.3965" y="44.168" width="1.45632" height="1.38565" transform="rotate(-180 81.3965 44.168)" fill="#D9D9D9"/>
<rect x="79.9434" y="44.168" width="1.45632" height="1.38565" transform="rotate(-180 79.9434 44.168)" fill="#D9D9D9"/>
<rect x="78.4746" y="44.168" width="1.45632" height="1.38565" transform="rotate(-180 78.4746 44.168)" fill="#D9D9D9"/>
<rect x="77.0215" y="44.168" width="1.45632" height="1.38565" transform="rotate(-180 77.0215 44.168)" fill="#D9D9D9"/>
<rect x="75.5605" y="44.168" width="1.45632" height="1.38565" transform="rotate(-180 75.5605 44.168)" fill="#D9D9D9"/>
<rect x="74.0996" y="44.168" width="1.45632" height="1.38565" transform="rotate(-180 74.0996 44.168)" fill="#D9D9D9"/>
<rect x="72.6465" y="44.168" width="1.45632" height="1.38565" transform="rotate(-180 72.6465 44.168)" fill="#D9D9D9"/>
<rect x="71.1934" y="44.168" width="1.45632" height="1.38565" transform="rotate(-180 71.1934 44.168)" fill="#D9D9D9"/>
<rect x="69.7305" y="44.168" width="1.45632" height="1.38565" transform="rotate(-180 69.7305 44.168)" fill="#D9D9D9"/>
<rect x="68.2695" y="44.168" width="1.45632" height="1.38565" transform="rotate(-180 68.2695 44.168)" fill="#D9D9D9"/>
<rect x="66.8164" y="44.168" width="1.45632" height="1.38565" transform="rotate(-180 66.8164 44.168)" fill="#D9D9D9"/>
<rect x="65.3555" y="44.168" width="1.45632" height="1.38565" transform="rotate(-180 65.3555 44.168)" fill="#D9D9D9"/>
<rect x="63.8965" y="44.168" width="1.45632" height="1.38565" transform="rotate(-180 63.8965 44.168)" fill="#D9D9D9"/>
<rect x="62.4492" y="44.168" width="1.45632" height="1.38565" transform="rotate(-180 62.4492 44.168)" fill="#D9D9D9"/>
<rect x="60.9883" y="44.168" width="1.45632" height="1.38565" transform="rotate(-180 60.9883 44.168)" fill="#D9D9D9"/>
<rect x="59.5273" y="44.168" width="1.45632" height="1.38565" transform="rotate(-180 59.5273 44.168)" fill="#D9D9D9"/>
<rect x="58.0742" y="44.168" width="1.45632" height="1.38565" transform="rotate(-180 58.0742 44.168)" fill="#D9D9D9"/>
<path d="M9.5492 31.4453V31.2361L10.6607 30.7V23.5735L9.5492 23.0243V22.8151H12.0337L17.1072 28.5424V23.5473L15.6165 23.0243V22.8151H19.1209V23.0243L18.0225 23.5604V31.5107H17.2118L11.576 25.208V30.7L13.0667 31.2361V31.4453H9.5492ZM24.8274 31.5761C24.1824 31.5761 23.5852 31.4671 23.036 31.2492C22.4868 31.0225 22.0074 30.713 21.5976 30.3208C21.1966 29.9198 20.8828 29.449 20.6562 28.9085C20.4295 28.3681 20.3162 27.7753 20.3162 27.1302C20.3162 26.4851 20.4295 25.8923 20.6562 25.3518C20.8828 24.8113 21.1966 24.345 21.5976 23.9527C22.0074 23.5517 22.4868 23.2422 23.036 23.0243C23.5852 22.7976 24.1824 22.6843 24.8274 22.6843C25.4813 22.6843 26.0828 22.7976 26.632 23.0243C27.1812 23.2422 27.6563 23.5517 28.0573 23.9527C28.467 24.345 28.7852 24.8113 29.0118 25.3518C29.2385 25.8923 29.3518 26.4851 29.3518 27.1302C29.3518 27.7753 29.2385 28.3681 29.0118 28.9085C28.7852 29.449 28.467 29.9198 28.0573 30.3208C27.6563 30.713 27.1812 31.0225 26.632 31.2492C26.0828 31.4671 25.4813 31.5761 24.8274 31.5761ZM25.0367 30.8961C25.4725 30.8961 25.8561 30.7566 26.1874 30.4777C26.5273 30.1987 26.7889 29.8064 26.9719 29.3008C27.1637 28.7952 27.2596 28.2024 27.2596 27.5225C27.2596 26.6856 27.1419 25.9533 26.9066 25.3257C26.6799 24.698 26.3704 24.2142 25.9781 23.8742C25.5859 23.5255 25.1456 23.3512 24.6575 23.3512C24.2216 23.3512 23.8337 23.4907 23.4937 23.7696C23.1537 24.0399 22.8835 24.4278 22.683 24.9334C22.4912 25.439 22.3953 26.0318 22.3953 26.7117C22.3953 27.5486 22.513 28.2809 22.7483 28.9085C22.9837 29.5362 23.3019 30.0244 23.7029 30.3731C24.1039 30.7218 24.5485 30.8961 25.0367 30.8961ZM30.5687 31.4453V31.2361L31.6802 30.7V23.5604L30.5687 23.0243V22.8151H35.0407C35.9561 22.8151 36.6752 23.0068 37.1983 23.3904C37.7301 23.7653 37.9959 24.2839 37.9959 24.9465C37.9959 25.4259 37.8347 25.84 37.5121 26.1887C37.1896 26.5287 36.7668 26.7989 36.2437 26.9994L38.6628 30.713L39.6043 31.2361V31.4453H36.7668L34.3477 27.444H33.6547V30.6869L34.6354 31.2361V31.4453H30.5687ZM34.1777 23.5342H33.6547V26.8033H34.2562C34.7966 26.8033 35.2238 26.6507 35.5376 26.3456C35.8515 26.0405 36.0084 25.6439 36.0084 25.1557C36.0084 24.6414 35.8515 24.2447 35.5376 23.9658C35.2325 23.6781 34.7792 23.5342 34.1777 23.5342ZM41.5761 31.4453V31.2361L42.9622 30.7V23.5342H41.0923L40.0462 25.6918H39.837V22.8151H48.0619V25.6918H47.8527L46.8066 23.5342H44.9367V30.7L46.3228 31.2361V31.4453H41.5761ZM49.1103 31.4453V31.2361L50.2217 30.7V23.5604L49.1103 23.0243V22.8151H53.2162V23.0243L52.1962 23.5604V26.6464H55.8183V23.5604L54.7722 23.0243V22.8151H58.8912V23.0243L57.7928 23.5604V30.7L58.8912 31.2361V31.4453H54.7722V31.2361L55.8183 30.7V27.3656H52.1962V30.7L53.2162 31.2361V31.4453H49.1103ZM63.3101 31.4453V31.2361L64.4216 30.7V23.5604L63.3101 23.0243V22.8151H67.7691C68.8065 22.8151 69.6869 22.985 70.4105 23.325C71.134 23.665 71.6832 24.1314 72.0581 24.7242C72.4416 25.317 72.6334 25.9882 72.6334 26.7379C72.6334 27.4179 72.507 28.0455 72.2542 28.6209C72.0101 29.1962 71.6658 29.6931 71.2212 30.1115C70.7766 30.53 70.2536 30.8569 69.6521 31.0923C69.0505 31.3276 68.3924 31.4453 67.6776 31.4453H63.3101ZM67.233 23.5342H66.3961V30.7261H67.416C68.4273 30.7261 69.2075 30.4036 69.7567 29.7585C70.3059 29.1047 70.5805 28.2329 70.5805 27.1433C70.5805 26.0449 70.2971 25.1688 69.7305 24.515C69.1726 23.8611 68.3401 23.5342 67.233 23.5342ZM78.6988 31.5761C77.9404 31.5761 77.2735 31.454 76.6982 31.2099C76.1228 30.9571 75.6739 30.5518 75.3513 29.9939C75.0288 29.4272 74.8675 28.6732 74.8675 27.7317V23.5604L73.7429 23.0243V22.8151H77.9665V23.0243L76.842 23.5604V27.7448C76.842 28.4683 76.951 29.0393 77.1689 29.4577C77.3955 29.8675 77.6963 30.1595 78.0711 30.3338C78.4547 30.5082 78.8775 30.5954 79.3395 30.5954C79.7231 30.5954 80.0805 30.5169 80.4118 30.36C80.743 30.2031 81.0089 29.9503 81.2094 29.6016C81.4099 29.2442 81.5102 28.7778 81.5102 28.2024V23.5342L80.281 23.0243V22.8151H83.5501V23.0243L82.4255 23.5473V27.7317C82.4255 28.6732 82.2686 29.4272 81.9548 29.9939C81.6409 30.5518 81.2051 30.9571 80.6471 31.2099C80.0892 31.454 79.4398 31.5761 78.6988 31.5761ZM84.6732 31.4453V31.2361L85.7846 30.7V23.5735L84.6732 23.0243V22.8151H87.1576L92.2312 28.5424V23.5473L90.7405 23.0243V22.8151H94.2449V23.0243L93.1465 23.5604V31.5107H92.3358L86.7 25.208V30.7L88.1907 31.2361V31.4453H84.6732ZM99.9645 31.5761C99.3368 31.5761 98.7484 31.4715 98.1992 31.2622C97.6587 31.0443 97.1793 30.7436 96.7608 30.36C96.3511 29.9764 96.0286 29.5275 95.7932 29.0131C95.5665 28.4901 95.4532 27.9235 95.4532 27.3133C95.4532 26.642 95.584 26.0274 95.8455 25.4695C96.107 24.9029 96.4688 24.4103 96.9308 23.9919C97.3929 23.5735 97.9203 23.2509 98.513 23.0243C99.1058 22.7976 99.7291 22.6843 100.383 22.6843C100.845 22.6843 101.237 22.7104 101.56 22.7628C101.891 22.8151 102.183 22.8892 102.436 22.985C102.697 23.0809 102.955 23.1899 103.207 23.312L103.351 25.6134H103.116L101.861 23.7173C101.625 23.5691 101.399 23.4689 101.181 23.4166C100.963 23.3555 100.714 23.325 100.435 23.325C99.886 23.325 99.3891 23.4819 98.9446 23.7958C98.5 24.1096 98.1469 24.5498 97.8854 25.1165C97.6239 25.6744 97.4931 26.3282 97.4931 27.0779C97.4931 27.8624 97.6195 28.5381 97.8723 29.1047C98.1251 29.6626 98.4651 30.0941 98.8922 30.3992C99.3281 30.7043 99.8119 30.8569 100.344 30.8569C100.492 30.8569 100.653 30.8525 100.828 30.8438C101.002 30.8264 101.176 30.8002 101.351 30.7654V28.3463L100.187 27.7317V27.5225H104.293V27.7317L103.312 28.3593V30.4777C103.042 30.7043 102.715 30.9005 102.331 31.0661C101.956 31.223 101.56 31.3494 101.141 31.4453C100.732 31.5325 100.339 31.5761 99.9645 31.5761ZM105.258 31.4453V31.2361L106.37 30.7V23.5604L105.258 23.0243V22.8151H112.385V25.0772H112.176L111.208 23.5342H108.344V26.6333H110.358L111.09 25.5087H111.3V28.4509H111.09L110.358 27.3525H108.344V30.7261H111.522L112.542 28.7778H112.751V31.4453H105.258ZM118.736 31.5761C118.091 31.5761 117.493 31.4671 116.944 31.2492C116.395 31.0225 115.916 30.713 115.506 30.3208C115.105 29.9198 114.791 29.449 114.564 28.9085C114.338 28.3681 114.224 27.7753 114.224 27.1302C114.224 26.4851 114.338 25.8923 114.564 25.3518C114.791 24.8113 115.105 24.345 115.506 23.9527C115.916 23.5517 116.395 23.2422 116.944 23.0243C117.493 22.7976 118.091 22.6843 118.736 22.6843C119.389 22.6843 119.991 22.7976 120.54 23.0243C121.089 23.2422 121.564 23.5517 121.965 23.9527C122.375 24.345 122.693 24.8113 122.92 25.3518C123.147 25.8923 123.26 26.4851 123.26 27.1302C123.26 27.7753 123.147 28.3681 122.92 28.9085C122.693 29.449 122.375 29.9198 121.965 30.3208C121.564 30.713 121.089 31.0225 120.54 31.2492C119.991 31.4671 119.389 31.5761 118.736 31.5761ZM118.945 30.8961C119.381 30.8961 119.764 30.7566 120.096 30.4777C120.436 30.1987 120.697 29.8064 120.88 29.3008C121.072 28.7952 121.168 28.2024 121.168 27.5225C121.168 26.6856 121.05 25.9533 120.815 25.3257C120.588 24.698 120.279 24.2142 119.886 23.8742C119.494 23.5255 119.054 23.3512 118.566 23.3512C118.13 23.3512 117.742 23.4907 117.402 23.7696C117.062 24.0399 116.792 24.4278 116.591 24.9334C116.399 25.439 116.303 26.0318 116.303 26.7117C116.303 27.5486 116.421 28.2809 116.656 28.9085C116.892 29.5362 117.21 30.0244 117.611 30.3731C118.012 30.7218 118.457 30.8961 118.945 30.8961ZM124.451 31.4453V31.2361L125.562 30.7V23.5735L124.451 23.0243V22.8151H126.935L132.009 28.5424V23.5473L130.518 23.0243V22.8151H134.022V23.0243L132.924 23.5604V31.5107H132.113L126.477 25.208V30.7L127.968 31.2361V31.4453H124.451Z" fill="white"/>
<defs>
<filter id="filter0_ii_1248_2315" x="1.6718" y="9.44719" width="142.004" height="36.6115" filterUnits="userSpaceOnUse" color-interpolation-filters="sRGB">
<feFlood flood-opacity="0" result="BackgroundImageFix"/>
<feBlend mode="normal" in="SourceGraphic" in2="BackgroundImageFix" result="shape"/>
<feColorMatrix in="SourceAlpha" type="matrix" values="0 0 0 0 0 0 0 0 0 0 0 0 0 0 0 0 0 0 127 0" result="hardAlpha"/>
<feOffset dx="-2.21882" dy="-2.21882"/>
<feGaussianBlur stdDeviation="1.82339"/>
<feComposite in2="hardAlpha" operator="arithmetic" k2="-1" k3="1"/>
<feColorMatrix type="matrix" values="0 0 0 0 0.176471 0 0 0 0 0.133333 0 0 0 0 0.105882 0 0 0 0.25 0"/>
<feBlend mode="normal" in2="shape" result="effect1_innerShadow_1248_2315"/>
<feColorMatrix in="SourceAlpha" type="matrix" values="0 0 0 0 0 0 0 0 0 0 0 0 0 0 0 0 0 0 127 0" result="hardAlpha"/>
<feOffset dx="3.32823" dy="3.32823"/>
<feGaussianBlur stdDeviation="1.82339"/>
<feComposite in2="hardAlpha" operator="arithmetic" k2="-1" k3="1"/>
<feColorMatrix type="matrix" values="0 0 0 0 0.176471 0 0 0 0 0.133333 0 0 0 0 0.105882 0 0 0 0.25 0"/>
<feBlend mode="normal" in2="effect1_innerShadow_1248_2315" result="effect2_innerShadow_1248_2315"/>
</filter>
<linearGradient id="paint0_linear_1248_2315" x1="5" y1="12.7754" x2="17.4067" y2="71.3389" gradientUnits="userSpaceOnUse">
<stop stop-color="#EB8C2A"/>
<stop offset="1" stop-color="#754515"/>
</linearGradient>
</defs>
</svg>
