<svg width="144" height="54" viewBox="0 0 144 54" fill="none" xmlns="http://www.w3.org/2000/svg">
<g filter="url(#filter0_ii_1248_1635)">
<path d="M5 41.3427V12.498H139.239V41.3427H5Z" fill="#6B3C24"/>
</g>
<path d="M4.44529 41.3427V41.8975H5H139.239H139.794V41.3427V12.498V11.9433H139.239H5H4.44529V12.498V41.3427Z" stroke="url(#paint0_linear_1248_1635)" stroke-width="1.10941"/>
<path d="M1.65809 21.4322H3.8766V11.4489H10.5321V9.23035H9.42288V8.12109H0.548828V20.3229H1.65809V21.4322Z" fill="#D9D9D9"/>
<path d="M142.553 21.4322H140.334V11.4489H133.679V9.23035H134.788V8.12109H143.662V20.3229H142.553V21.4322Z" fill="#D9D9D9"/>
<path d="M142.553 32.5307L140.334 32.5307L140.334 42.514L133.679 42.514L133.679 44.7325L134.788 44.7325L134.788 45.8418L143.662 45.8418L143.662 33.64L142.553 33.64L142.553 32.5307Z" fill="#D9D9D9"/>
<path d="M1.65809 32.5307L3.8766 32.5307L3.8766 42.514L10.5321 42.514L10.5321 44.7325L9.42289 44.7325L9.42288 45.8418L0.548828 45.8418L0.548829 33.64L1.65809 33.64L1.65809 32.5307Z" fill="#D9D9D9"/>
<rect x="65.8594" y="0.355469" width="1.45632" height="1.38565" fill="#D9D9D9"/>
<rect x="70.2285" y="0.355469" width="1.45632" height="1.38565" fill="#D9D9D9"/>
<rect x="71.6875" y="0.355469" width="1.45632" height="1.38565" fill="#D9D9D9"/>
<rect x="76.0645" y="0.355469" width="1.45632" height="1.38565" fill="#D9D9D9"/>
<rect x="64.4062" y="1.74414" width="1.45632" height="1.38565" fill="#D9D9D9"/>
<rect x="68.7812" y="1.74414" width="1.45632" height="1.38565" fill="#D9D9D9"/>
<rect x="70.2285" y="1.74414" width="1.45632" height="1.38565" fill="#D9D9D9"/>
<rect x="71.6875" y="1.74414" width="1.45632" height="1.38565" fill="#D9D9D9"/>
<rect x="73.1484" y="1.74414" width="1.45632" height="1.38565" fill="#D9D9D9"/>
<rect x="77.5254" y="1.74414" width="1.45632" height="1.38565" fill="#D9D9D9"/>
<rect x="62.9375" y="3.12891" width="1.45632" height="1.38565" fill="#D9D9D9"/>
<rect x="67.3203" y="3.12891" width="1.45632" height="1.38565" fill="#D9D9D9"/>
<rect x="68.7812" y="3.12891" width="1.45632" height="1.38565" fill="#D9D9D9"/>
<rect x="70.2285" y="3.12891" width="1.45632" height="1.38565" fill="#D9D9D9"/>
<rect x="71.6875" y="3.12891" width="1.45632" height="1.38565" fill="#D9D9D9"/>
<rect x="73.1484" y="3.12891" width="1.45632" height="1.38565" fill="#D9D9D9"/>
<rect x="74.6113" y="3.12891" width="1.45632" height="1.38565" fill="#D9D9D9"/>
<rect x="78.9844" y="3.12891" width="1.45632" height="1.38565" fill="#D9D9D9"/>
<rect x="65.8594" y="4.51562" width="1.45632" height="1.38565" fill="#D9D9D9"/>
<rect x="67.3203" y="4.51562" width="1.45632" height="1.38565" fill="#D9D9D9"/>
<rect x="68.7812" y="4.51562" width="1.45632" height="1.38565" fill="#D9D9D9"/>
<rect x="73.1484" y="4.51562" width="1.45632" height="1.38565" fill="#D9D9D9"/>
<rect x="74.6113" y="4.51562" width="1.45632" height="1.38565" fill="#D9D9D9"/>
<rect x="76.0645" y="4.51562" width="1.45632" height="1.38565" fill="#D9D9D9"/>
<rect x="64.4062" y="5.90234" width="1.45632" height="1.38565" fill="#D9D9D9"/>
<rect x="65.8594" y="5.90234" width="1.45632" height="1.38565" fill="#D9D9D9"/>
<rect x="67.3203" y="5.90234" width="1.45632" height="1.38565" fill="#D9D9D9"/>
<rect x="74.6113" y="5.90234" width="1.45632" height="1.38565" fill="#D9D9D9"/>
<rect x="76.0645" y="5.90234" width="1.45632" height="1.38565" fill="#D9D9D9"/>
<rect x="77.5254" y="5.90234" width="1.45632" height="1.38565" fill="#D9D9D9"/>
<rect x="61.4922" y="7.28906" width="1.45632" height="1.38565" fill="#D9D9D9"/>
<rect x="62.9375" y="7.28906" width="1.45632" height="1.38565" fill="#D9D9D9"/>
<rect x="64.4062" y="7.28906" width="1.45632" height="1.38565" fill="#D9D9D9"/>
<rect x="65.8594" y="7.28906" width="1.45632" height="1.38565" fill="#D9D9D9"/>
<rect x="76.0645" y="7.28906" width="1.45632" height="1.38565" fill="#D9D9D9"/>
<rect x="77.5254" y="7.28906" width="1.45632" height="1.38565" fill="#D9D9D9"/>
<rect x="78.9844" y="7.28906" width="1.45632" height="1.38565" fill="#D9D9D9"/>
<rect x="80.4316" y="7.28906" width="1.45632" height="1.38565" fill="#D9D9D9"/>
<rect x="58.5703" y="8.67578" width="1.45632" height="1.38565" fill="#D9D9D9"/>
<rect x="60.0391" y="8.67578" width="1.45632" height="1.38565" fill="#D9D9D9"/>
<rect x="61.4922" y="8.67578" width="1.45632" height="1.38565" fill="#D9D9D9"/>
<rect x="62.9375" y="8.67578" width="1.45632" height="1.38565" fill="#D9D9D9"/>
<rect x="64.4062" y="8.67578" width="1.45632" height="1.38565" fill="#D9D9D9"/>
<rect x="65.8594" y="8.67578" width="1.45632" height="1.38565" fill="#D9D9D9"/>
<rect x="67.3203" y="8.67578" width="1.45632" height="1.38565" fill="#D9D9D9"/>
<rect x="68.7812" y="8.67578" width="1.45632" height="1.38565" fill="#D9D9D9"/>
<rect x="70.2285" y="8.67578" width="1.45632" height="1.38565" fill="#D9D9D9"/>
<rect x="71.6875" y="8.67578" width="1.45632" height="1.38565" fill="#D9D9D9"/>
<rect x="73.1484" y="8.67578" width="1.45632" height="1.38565" fill="#D9D9D9"/>
<rect x="74.6113" y="8.67578" width="1.45632" height="1.38565" fill="#D9D9D9"/>
<rect x="76.0645" y="8.67578" width="1.45632" height="1.38565" fill="#D9D9D9"/>
<rect x="77.5254" y="8.67578" width="1.45632" height="1.38565" fill="#D9D9D9"/>
<rect x="78.9844" y="8.67578" width="1.45632" height="1.38565" fill="#D9D9D9"/>
<rect x="80.4316" y="8.67578" width="1.45632" height="1.38565" fill="#D9D9D9"/>
<rect x="81.8926" y="8.67578" width="1.45632" height="1.38565" fill="#D9D9D9"/>
<rect x="83.3535" y="8.67578" width="1.45632" height="1.38565" fill="#D9D9D9"/>
<rect x="57.1172" y="10.0645" width="1.45632" height="1.38565" fill="#D9D9D9"/>
<rect x="58.5703" y="10.0645" width="1.45632" height="1.38565" fill="#D9D9D9"/>
<rect x="60.0391" y="10.0645" width="1.45632" height="1.38565" fill="#D9D9D9"/>
<rect x="61.4922" y="10.0645" width="1.45632" height="1.38565" fill="#D9D9D9"/>
<rect x="62.9375" y="10.0645" width="1.45632" height="1.38565" fill="#D9D9D9"/>
<rect x="64.4062" y="10.0645" width="1.45632" height="1.38565" fill="#D9D9D9"/>
<rect x="65.8594" y="10.0645" width="1.45632" height="1.38565" fill="#D9D9D9"/>
<rect x="67.3203" y="10.0645" width="1.45632" height="1.38565" fill="#D9D9D9"/>
<rect x="68.7812" y="10.0645" width="1.45632" height="1.38565" fill="#D9D9D9"/>
<rect x="70.2285" y="10.0645" width="1.45632" height="1.38565" fill="#D9D9D9"/>
<rect x="71.6875" y="10.0645" width="1.45632" height="1.38565" fill="#D9D9D9"/>
<rect x="73.1484" y="10.0645" width="1.45632" height="1.38565" fill="#D9D9D9"/>
<rect x="74.6113" y="10.0645" width="1.45632" height="1.38565" fill="#D9D9D9"/>
<rect x="76.0645" y="10.0645" width="1.45632" height="1.38565" fill="#D9D9D9"/>
<rect x="77.5254" y="10.0645" width="1.45632" height="1.38565" fill="#D9D9D9"/>
<rect x="78.9844" y="10.0645" width="1.45632" height="1.38565" fill="#D9D9D9"/>
<rect x="80.4316" y="10.0645" width="1.45632" height="1.38565" fill="#D9D9D9"/>
<rect x="81.8926" y="10.0645" width="1.45632" height="1.38565" fill="#D9D9D9"/>
<rect x="83.3535" y="10.0645" width="1.45632" height="1.38565" fill="#D9D9D9"/>
<rect x="84.8066" y="10.0645" width="1.45632" height="1.38565" fill="#D9D9D9"/>
<rect x="77.5234" y="53.6016" width="1.45632" height="1.38565" transform="rotate(-180 77.5234 53.6016)" fill="#D9D9D9"/>
<rect x="73.1543" y="53.6016" width="1.45632" height="1.38565" transform="rotate(-180 73.1543 53.6016)" fill="#D9D9D9"/>
<rect x="71.6953" y="53.6016" width="1.45632" height="1.38565" transform="rotate(-180 71.6953 53.6016)" fill="#D9D9D9"/>
<rect x="67.3184" y="53.6016" width="1.45632" height="1.38565" transform="rotate(-180 67.3184 53.6016)" fill="#D9D9D9"/>
<rect x="78.9766" y="52.2129" width="1.45632" height="1.38565" transform="rotate(-180 78.9766 52.2129)" fill="#D9D9D9"/>
<rect x="74.6016" y="52.2129" width="1.45632" height="1.38565" transform="rotate(-180 74.6016 52.2129)" fill="#D9D9D9"/>
<rect x="73.1543" y="52.2129" width="1.45632" height="1.38565" transform="rotate(-180 73.1543 52.2129)" fill="#D9D9D9"/>
<rect x="71.6953" y="52.2129" width="1.45632" height="1.38565" transform="rotate(-180 71.6953 52.2129)" fill="#D9D9D9"/>
<rect x="70.2324" y="52.2129" width="1.45632" height="1.38565" transform="rotate(-180 70.2324 52.2129)" fill="#D9D9D9"/>
<rect x="65.8574" y="52.2129" width="1.45632" height="1.38565" transform="rotate(-180 65.8574 52.2129)" fill="#D9D9D9"/>
<rect x="80.4453" y="50.8281" width="1.45632" height="1.38565" transform="rotate(-180 80.4453 50.8281)" fill="#D9D9D9"/>
<rect x="76.0625" y="50.8281" width="1.45632" height="1.38565" transform="rotate(-180 76.0625 50.8281)" fill="#D9D9D9"/>
<rect x="74.6016" y="50.8281" width="1.45632" height="1.38565" transform="rotate(-180 74.6016 50.8281)" fill="#D9D9D9"/>
<rect x="73.1543" y="50.8281" width="1.45632" height="1.38565" transform="rotate(-180 73.1543 50.8281)" fill="#D9D9D9"/>
<rect x="71.6953" y="50.8281" width="1.45632" height="1.38565" transform="rotate(-180 71.6953 50.8281)" fill="#D9D9D9"/>
<rect x="70.2324" y="50.8281" width="1.45632" height="1.38565" transform="rotate(-180 70.2324 50.8281)" fill="#D9D9D9"/>
<rect x="68.7715" y="50.8281" width="1.45632" height="1.38565" transform="rotate(-180 68.7715 50.8281)" fill="#D9D9D9"/>
<rect x="64.3984" y="50.8281" width="1.45632" height="1.38565" transform="rotate(-180 64.3984 50.8281)" fill="#D9D9D9"/>
<rect x="77.5234" y="49.4414" width="1.45632" height="1.38565" transform="rotate(-180 77.5234 49.4414)" fill="#D9D9D9"/>
<rect x="76.0625" y="49.4414" width="1.45632" height="1.38565" transform="rotate(-180 76.0625 49.4414)" fill="#D9D9D9"/>
<rect x="74.6016" y="49.4414" width="1.45632" height="1.38565" transform="rotate(-180 74.6016 49.4414)" fill="#D9D9D9"/>
<rect x="70.2324" y="49.4414" width="1.45632" height="1.38565" transform="rotate(-180 70.2324 49.4414)" fill="#D9D9D9"/>
<rect x="68.7715" y="49.4414" width="1.45632" height="1.38565" transform="rotate(-180 68.7715 49.4414)" fill="#D9D9D9"/>
<rect x="67.3184" y="49.4414" width="1.45632" height="1.38565" transform="rotate(-180 67.3184 49.4414)" fill="#D9D9D9"/>
<rect x="78.9766" y="48.0566" width="1.45632" height="1.38565" transform="rotate(-180 78.9766 48.0566)" fill="#D9D9D9"/>
<rect x="77.5234" y="48.0566" width="1.45632" height="1.38565" transform="rotate(-180 77.5234 48.0566)" fill="#D9D9D9"/>
<rect x="76.0625" y="48.0566" width="1.45632" height="1.38565" transform="rotate(-180 76.0625 48.0566)" fill="#D9D9D9"/>
<rect x="68.7715" y="48.0566" width="1.45632" height="1.38565" transform="rotate(-180 68.7715 48.0566)" fill="#D9D9D9"/>
<rect x="67.3184" y="48.0566" width="1.45632" height="1.38565" transform="rotate(-180 67.3184 48.0566)" fill="#D9D9D9"/>
<rect x="65.8574" y="48.0566" width="1.45632" height="1.38565" transform="rotate(-180 65.8574 48.0566)" fill="#D9D9D9"/>
<rect x="81.8984" y="46.668" width="1.45632" height="1.38565" transform="rotate(-180 81.8984 46.668)" fill="#D9D9D9"/>
<rect x="80.4453" y="46.668" width="1.45632" height="1.38565" transform="rotate(-180 80.4453 46.668)" fill="#D9D9D9"/>
<rect x="78.9766" y="46.668" width="1.45632" height="1.38565" transform="rotate(-180 78.9766 46.668)" fill="#D9D9D9"/>
<rect x="77.5234" y="46.668" width="1.45632" height="1.38565" transform="rotate(-180 77.5234 46.668)" fill="#D9D9D9"/>
<rect x="67.3184" y="46.668" width="1.45632" height="1.38565" transform="rotate(-180 67.3184 46.668)" fill="#D9D9D9"/>
<rect x="65.8574" y="46.668" width="1.45632" height="1.38565" transform="rotate(-180 65.8574 46.668)" fill="#D9D9D9"/>
<rect x="64.3984" y="46.668" width="1.45632" height="1.38565" transform="rotate(-180 64.3984 46.668)" fill="#D9D9D9"/>
<rect x="62.9512" y="46.668" width="1.45632" height="1.38565" transform="rotate(-180 62.9512 46.668)" fill="#D9D9D9"/>
<rect x="84.8125" y="45.2812" width="1.45632" height="1.38565" transform="rotate(-180 84.8125 45.2812)" fill="#D9D9D9"/>
<rect x="83.3438" y="45.2812" width="1.45632" height="1.38565" transform="rotate(-180 83.3438 45.2812)" fill="#D9D9D9"/>
<rect x="81.8906" y="45.2812" width="1.45632" height="1.38565" transform="rotate(-180 81.8906 45.2812)" fill="#D9D9D9"/>
<rect x="80.4453" y="45.2812" width="1.45632" height="1.38565" transform="rotate(-180 80.4453 45.2812)" fill="#D9D9D9"/>
<rect x="78.9766" y="45.2812" width="1.45632" height="1.38565" transform="rotate(-180 78.9766 45.2812)" fill="#D9D9D9"/>
<rect x="77.5234" y="45.2812" width="1.45632" height="1.38565" transform="rotate(-180 77.5234 45.2812)" fill="#D9D9D9"/>
<rect x="76.0625" y="45.2812" width="1.45632" height="1.38565" transform="rotate(-180 76.0625 45.2812)" fill="#D9D9D9"/>
<rect x="74.6016" y="45.2812" width="1.45632" height="1.38565" transform="rotate(-180 74.6016 45.2812)" fill="#D9D9D9"/>
<rect x="73.1484" y="45.2812" width="1.45632" height="1.38565" transform="rotate(-180 73.1484 45.2812)" fill="#D9D9D9"/>
<rect x="71.6953" y="45.2812" width="1.45632" height="1.38565" transform="rotate(-180 71.6953 45.2812)" fill="#D9D9D9"/>
<rect x="70.2324" y="45.2812" width="1.45632" height="1.38565" transform="rotate(-180 70.2324 45.2812)" fill="#D9D9D9"/>
<rect x="68.7715" y="45.2812" width="1.45632" height="1.38565" transform="rotate(-180 68.7715 45.2812)" fill="#D9D9D9"/>
<rect x="67.3184" y="45.2812" width="1.45632" height="1.38565" transform="rotate(-180 67.3184 45.2812)" fill="#D9D9D9"/>
<rect x="65.8574" y="45.2812" width="1.45632" height="1.38565" transform="rotate(-180 65.8574 45.2812)" fill="#D9D9D9"/>
<rect x="64.3984" y="45.2812" width="1.45632" height="1.38565" transform="rotate(-180 64.3984 45.2812)" fill="#D9D9D9"/>
<rect x="62.9512" y="45.2812" width="1.45632" height="1.38565" transform="rotate(-180 62.9512 45.2812)" fill="#D9D9D9"/>
<rect x="61.4902" y="45.2812" width="1.45632" height="1.38565" transform="rotate(-180 61.4902 45.2812)" fill="#D9D9D9"/>
<rect x="60.0293" y="45.2812" width="1.45632" height="1.38565" transform="rotate(-180 60.0293 45.2812)" fill="#D9D9D9"/>
<rect x="86.2656" y="43.8906" width="1.45632" height="1.38565" transform="rotate(-180 86.2656 43.8906)" fill="#D9D9D9"/>
<rect x="84.8125" y="43.8906" width="1.45632" height="1.38565" transform="rotate(-180 84.8125 43.8906)" fill="#D9D9D9"/>
<rect x="83.3438" y="43.8906" width="1.45632" height="1.38565" transform="rotate(-180 83.3438 43.8906)" fill="#D9D9D9"/>
<rect x="81.8984" y="43.8906" width="1.45632" height="1.38565" transform="rotate(-180 81.8984 43.8906)" fill="#D9D9D9"/>
<rect x="80.4453" y="43.8906" width="1.45632" height="1.38565" transform="rotate(-180 80.4453 43.8906)" fill="#D9D9D9"/>
<rect x="78.9766" y="43.8906" width="1.45632" height="1.38565" transform="rotate(-180 78.9766 43.8906)" fill="#D9D9D9"/>
<rect x="77.5234" y="43.8906" width="1.45632" height="1.38565" transform="rotate(-180 77.5234 43.8906)" fill="#D9D9D9"/>
<rect x="76.0625" y="43.8906" width="1.45632" height="1.38565" transform="rotate(-180 76.0625 43.8906)" fill="#D9D9D9"/>
<rect x="74.6016" y="43.8906" width="1.45632" height="1.38565" transform="rotate(-180 74.6016 43.8906)" fill="#D9D9D9"/>
<rect x="73.1484" y="43.8906" width="1.45632" height="1.38565" transform="rotate(-180 73.1484 43.8906)" fill="#D9D9D9"/>
<rect x="71.6953" y="43.8906" width="1.45632" height="1.38565" transform="rotate(-180 71.6953 43.8906)" fill="#D9D9D9"/>
<rect x="70.2324" y="43.8906" width="1.45632" height="1.38565" transform="rotate(-180 70.2324 43.8906)" fill="#D9D9D9"/>
<rect x="68.7715" y="43.8906" width="1.45632" height="1.38565" transform="rotate(-180 68.7715 43.8906)" fill="#D9D9D9"/>
<rect x="67.3184" y="43.8906" width="1.45632" height="1.38565" transform="rotate(-180 67.3184 43.8906)" fill="#D9D9D9"/>
<rect x="65.8574" y="43.8906" width="1.45632" height="1.38565" transform="rotate(-180 65.8574 43.8906)" fill="#D9D9D9"/>
<rect x="64.3984" y="43.8906" width="1.45632" height="1.38565" transform="rotate(-180 64.3984 43.8906)" fill="#D9D9D9"/>
<rect x="62.9512" y="43.8906" width="1.45632" height="1.38565" transform="rotate(-180 62.9512 43.8906)" fill="#D9D9D9"/>
<rect x="61.4902" y="43.8906" width="1.45632" height="1.38565" transform="rotate(-180 61.4902 43.8906)" fill="#D9D9D9"/>
<rect x="60.0293" y="43.8906" width="1.45632" height="1.38565" transform="rotate(-180 60.0293 43.8906)" fill="#D9D9D9"/>
<rect x="58.5762" y="43.8906" width="1.45632" height="1.38565" transform="rotate(-180 58.5762 43.8906)" fill="#D9D9D9"/>
<path d="M35.2099 31.168V30.9588L36.5959 30.4226V23.2569H34.7261L33.68 25.4145H33.4707V22.5377H41.6956V25.4145H41.4864L40.4403 23.2569H38.5704V30.4226L39.9565 30.9588V31.168H35.2099ZM42.744 31.168V30.9588L43.8554 30.4226V23.2831L42.744 22.7469V22.5377H46.8499V22.7469L45.8299 23.2831V26.369H49.452V23.2831L48.4059 22.7469V22.5377H52.5249V22.7469L51.4265 23.2831V30.4226L52.5249 30.9588V31.168H48.4059V30.9588L49.452 30.4226V27.0882H45.8299V30.4226L46.8499 30.9588V31.168H42.744ZM53.6748 31.168V30.9588L54.7863 30.4226V23.2831L53.6748 22.7469V22.5377H60.8013V24.7999H60.5921L59.6245 23.2569H56.7608V26.3559H58.7745L59.5068 25.2314H59.716V28.1735H59.5068L58.7745 27.0751H56.7608V30.4488H59.9383L60.9582 28.5004H61.1674V31.168H53.6748ZM65.5174 31.168V30.9588L66.315 30.5142L69.7279 22.4723H70.8786L74.2523 30.488L75.1414 30.9588V31.168H71.0094V30.9588L72.147 30.488L71.2578 28.3174H68.1588L67.2696 30.488L68.3549 30.9588V31.168H65.5174ZM68.4595 27.5982H70.9571L69.7148 24.5514L68.4595 27.5982ZM75.9707 31.168V30.9588L77.0821 30.4226V23.2831L75.9707 22.7469V22.5377H80.2989V22.7469L79.0566 23.2831V30.4488H81.9334L82.9925 27.9774H83.2018V31.168H75.9707ZM85.3691 31.168V30.9588L86.7552 30.4226V23.2569H84.8853L83.8392 25.4145H83.63V22.5377H91.8549V25.4145H91.6457L90.5996 23.2569H88.7297V30.4226L90.1158 30.9588V31.168H85.3691ZM92.1039 31.168V30.9588L92.9015 30.5142L96.3144 22.4723H97.4651L100.839 30.488L101.728 30.9588V31.168H97.5958V30.9588L98.7335 30.488L97.8443 28.3174H94.7452L93.8561 30.488L94.9414 30.9588V31.168H92.1039ZM95.046 27.5982H97.5435L96.3013 24.5514L95.046 27.5982ZM102.557 31.168V30.9588L103.669 30.4226V23.2831L102.557 22.7469V22.5377H107.029C107.944 22.5377 108.664 22.7295 109.187 23.1131C109.718 23.4879 109.984 24.0066 109.984 24.6691C109.984 25.1486 109.823 25.5627 109.501 25.9114C109.178 26.2513 108.755 26.5216 108.232 26.7221L110.651 30.4357L111.593 30.9588V31.168H108.755L106.336 27.1667H105.643V30.4096L106.624 30.9588V31.168H102.557ZM106.166 23.2569H105.643V26.5259H106.245C106.785 26.5259 107.212 26.3734 107.526 26.0683C107.84 25.7632 107.997 25.3665 107.997 24.8783C107.997 24.364 107.84 23.9674 107.526 23.6884C107.221 23.4007 106.768 23.2569 106.166 23.2569Z" fill="white"/>
<defs>
<filter id="filter0_ii_1248_1635" x="1.6718" y="9.16985" width="142.004" height="36.6115" filterUnits="userSpaceOnUse" color-interpolation-filters="sRGB">
<feFlood flood-opacity="0" result="BackgroundImageFix"/>
<feBlend mode="normal" in="SourceGraphic" in2="BackgroundImageFix" result="shape"/>
<feColorMatrix in="SourceAlpha" type="matrix" values="0 0 0 0 0 0 0 0 0 0 0 0 0 0 0 0 0 0 127 0" result="hardAlpha"/>
<feOffset dx="-2.21882" dy="-2.21882"/>
<feGaussianBlur stdDeviation="1.82339"/>
<feComposite in2="hardAlpha" operator="arithmetic" k2="-1" k3="1"/>
<feColorMatrix type="matrix" values="0 0 0 0 0.176471 0 0 0 0 0.133333 0 0 0 0 0.105882 0 0 0 0.25 0"/>
<feBlend mode="normal" in2="shape" result="effect1_innerShadow_1248_1635"/>
<feColorMatrix in="SourceAlpha" type="matrix" values="0 0 0 0 0 0 0 0 0 0 0 0 0 0 0 0 0 0 127 0" result="hardAlpha"/>
<feOffset dx="3.32823" dy="3.32823"/>
<feGaussianBlur stdDeviation="1.82339"/>
<feComposite in2="hardAlpha" operator="arithmetic" k2="-1" k3="1"/>
<feColorMatrix type="matrix" values="0 0 0 0 0.176471 0 0 0 0 0.133333 0 0 0 0 0.105882 0 0 0 0.25 0"/>
<feBlend mode="normal" in2="effect1_innerShadow_1248_1635" result="effect2_innerShadow_1248_1635"/>
</filter>
<linearGradient id="paint0_linear_1248_1635" x1="5" y1="12.498" x2="17.4067" y2="71.0616" gradientUnits="userSpaceOnUse">
<stop stop-color="#EB8C2A"/>
<stop offset="1" stop-color="#754515"/>
</linearGradient>
</defs>
</svg>
