<svg width="144" height="54" viewBox="0 0 144 54" fill="none" xmlns="http://www.w3.org/2000/svg">
<g filter="url(#filter0_ii_1248_1066)">
<path d="M4.71875 41.3427V12.498H138.958V41.3427H4.71875Z" fill="#6B3C24"/>
</g>
<path d="M4.16404 41.3427V41.8975H4.71875H138.958H139.512V41.3427V12.498V11.9433H138.958H4.71875H4.16404V12.498V41.3427Z" stroke="url(#paint0_linear_1248_1066)" stroke-width="1.10941"/>
<path d="M1.16004 21.4322H3.37855V11.4489H10.0341V9.23035H8.92484V8.12109H0.0507812V20.3229H1.16004V21.4322Z" fill="#D9D9D9"/>
<path d="M142.055 21.4322H139.836V11.4489H133.181V9.23035H134.29V8.12109H143.164V20.3229H142.055V21.4322Z" fill="#D9D9D9"/>
<path d="M142.055 32.5307L139.836 32.5307L139.836 42.514L133.181 42.514L133.181 44.7325L134.29 44.7325L134.29 45.8418L143.164 45.8418L143.164 33.64L142.055 33.64L142.055 32.5307Z" fill="#D9D9D9"/>
<path d="M1.16004 32.5307L3.37855 32.5307L3.37855 42.514L10.0341 42.514L10.0341 44.7325L8.92484 44.7325L8.92484 45.8418L0.0507812 45.8418L0.0507823 33.64L1.16004 33.64L1.16004 32.5307Z" fill="#D9D9D9"/>
<rect x="65.3613" y="0.355469" width="1.45632" height="1.38565" fill="#D9D9D9"/>
<rect x="69.7305" y="0.355469" width="1.45632" height="1.38565" fill="#D9D9D9"/>
<rect x="71.1895" y="0.355469" width="1.45632" height="1.38565" fill="#D9D9D9"/>
<rect x="75.5664" y="0.355469" width="1.45632" height="1.38565" fill="#D9D9D9"/>
<rect x="63.9082" y="1.74414" width="1.45632" height="1.38565" fill="#D9D9D9"/>
<rect x="68.2832" y="1.74414" width="1.45632" height="1.38565" fill="#D9D9D9"/>
<rect x="69.7305" y="1.74414" width="1.45632" height="1.38565" fill="#D9D9D9"/>
<rect x="71.1895" y="1.74414" width="1.45632" height="1.38565" fill="#D9D9D9"/>
<rect x="72.6523" y="1.74414" width="1.45632" height="1.38565" fill="#D9D9D9"/>
<rect x="77.0273" y="1.74414" width="1.45632" height="1.38565" fill="#D9D9D9"/>
<rect x="62.4395" y="3.12891" width="1.45632" height="1.38565" fill="#D9D9D9"/>
<rect x="66.8223" y="3.12891" width="1.45632" height="1.38565" fill="#D9D9D9"/>
<rect x="68.2832" y="3.12891" width="1.45632" height="1.38565" fill="#D9D9D9"/>
<rect x="69.7305" y="3.12891" width="1.45632" height="1.38565" fill="#D9D9D9"/>
<rect x="71.1895" y="3.12891" width="1.45632" height="1.38565" fill="#D9D9D9"/>
<rect x="72.6523" y="3.12891" width="1.45632" height="1.38565" fill="#D9D9D9"/>
<rect x="74.1133" y="3.12891" width="1.45632" height="1.38565" fill="#D9D9D9"/>
<rect x="78.4863" y="3.12891" width="1.45632" height="1.38565" fill="#D9D9D9"/>
<rect x="65.3613" y="4.51562" width="1.45632" height="1.38565" fill="#D9D9D9"/>
<rect x="66.8223" y="4.51562" width="1.45632" height="1.38565" fill="#D9D9D9"/>
<rect x="68.2832" y="4.51562" width="1.45632" height="1.38565" fill="#D9D9D9"/>
<rect x="72.6523" y="4.51562" width="1.45632" height="1.38565" fill="#D9D9D9"/>
<rect x="74.1133" y="4.51562" width="1.45632" height="1.38565" fill="#D9D9D9"/>
<rect x="75.5664" y="4.51562" width="1.45632" height="1.38565" fill="#D9D9D9"/>
<rect x="63.9082" y="5.90234" width="1.45632" height="1.38565" fill="#D9D9D9"/>
<rect x="65.3613" y="5.90234" width="1.45632" height="1.38565" fill="#D9D9D9"/>
<rect x="66.8223" y="5.90234" width="1.45632" height="1.38565" fill="#D9D9D9"/>
<rect x="74.1133" y="5.90234" width="1.45632" height="1.38565" fill="#D9D9D9"/>
<rect x="75.5664" y="5.90234" width="1.45632" height="1.38565" fill="#D9D9D9"/>
<rect x="77.0273" y="5.90234" width="1.45632" height="1.38565" fill="#D9D9D9"/>
<rect x="60.9941" y="7.28906" width="1.45632" height="1.38565" fill="#D9D9D9"/>
<rect x="62.4395" y="7.28906" width="1.45632" height="1.38565" fill="#D9D9D9"/>
<rect x="63.9082" y="7.28906" width="1.45632" height="1.38565" fill="#D9D9D9"/>
<rect x="65.3613" y="7.28906" width="1.45632" height="1.38565" fill="#D9D9D9"/>
<rect x="75.5664" y="7.28906" width="1.45632" height="1.38565" fill="#D9D9D9"/>
<rect x="77.0273" y="7.28906" width="1.45632" height="1.38565" fill="#D9D9D9"/>
<rect x="78.4863" y="7.28906" width="1.45632" height="1.38565" fill="#D9D9D9"/>
<rect x="79.9336" y="7.28906" width="1.45632" height="1.38565" fill="#D9D9D9"/>
<rect x="58.0723" y="8.67578" width="1.45632" height="1.38565" fill="#D9D9D9"/>
<rect x="59.541" y="8.67578" width="1.45632" height="1.38565" fill="#D9D9D9"/>
<rect x="60.9941" y="8.67578" width="1.45632" height="1.38565" fill="#D9D9D9"/>
<rect x="62.4395" y="8.67578" width="1.45632" height="1.38565" fill="#D9D9D9"/>
<rect x="63.9082" y="8.67578" width="1.45632" height="1.38565" fill="#D9D9D9"/>
<rect x="65.3613" y="8.67578" width="1.45632" height="1.38565" fill="#D9D9D9"/>
<rect x="66.8223" y="8.67578" width="1.45632" height="1.38565" fill="#D9D9D9"/>
<rect x="68.2832" y="8.67578" width="1.45632" height="1.38565" fill="#D9D9D9"/>
<rect x="69.7305" y="8.67578" width="1.45632" height="1.38565" fill="#D9D9D9"/>
<rect x="71.1895" y="8.67578" width="1.45632" height="1.38565" fill="#D9D9D9"/>
<rect x="72.6523" y="8.67578" width="1.45632" height="1.38565" fill="#D9D9D9"/>
<rect x="74.1133" y="8.67578" width="1.45632" height="1.38565" fill="#D9D9D9"/>
<rect x="75.5664" y="8.67578" width="1.45632" height="1.38565" fill="#D9D9D9"/>
<rect x="77.0273" y="8.67578" width="1.45632" height="1.38565" fill="#D9D9D9"/>
<rect x="78.4863" y="8.67578" width="1.45632" height="1.38565" fill="#D9D9D9"/>
<rect x="79.9336" y="8.67578" width="1.45632" height="1.38565" fill="#D9D9D9"/>
<rect x="81.3945" y="8.67578" width="1.45632" height="1.38565" fill="#D9D9D9"/>
<rect x="82.8555" y="8.67578" width="1.45632" height="1.38565" fill="#D9D9D9"/>
<rect x="56.6191" y="10.0645" width="1.45632" height="1.38565" fill="#D9D9D9"/>
<rect x="58.0723" y="10.0645" width="1.45632" height="1.38565" fill="#D9D9D9"/>
<rect x="59.541" y="10.0645" width="1.45632" height="1.38565" fill="#D9D9D9"/>
<rect x="60.9941" y="10.0645" width="1.45632" height="1.38565" fill="#D9D9D9"/>
<rect x="62.4395" y="10.0645" width="1.45632" height="1.38565" fill="#D9D9D9"/>
<rect x="63.9082" y="10.0645" width="1.45632" height="1.38565" fill="#D9D9D9"/>
<rect x="65.3613" y="10.0645" width="1.45632" height="1.38565" fill="#D9D9D9"/>
<rect x="66.8223" y="10.0645" width="1.45632" height="1.38565" fill="#D9D9D9"/>
<rect x="68.2832" y="10.0645" width="1.45632" height="1.38565" fill="#D9D9D9"/>
<rect x="69.7305" y="10.0645" width="1.45632" height="1.38565" fill="#D9D9D9"/>
<rect x="71.1895" y="10.0645" width="1.45632" height="1.38565" fill="#D9D9D9"/>
<rect x="72.6523" y="10.0645" width="1.45632" height="1.38565" fill="#D9D9D9"/>
<rect x="74.1133" y="10.0645" width="1.45632" height="1.38565" fill="#D9D9D9"/>
<rect x="75.5664" y="10.0645" width="1.45632" height="1.38565" fill="#D9D9D9"/>
<rect x="77.0273" y="10.0645" width="1.45632" height="1.38565" fill="#D9D9D9"/>
<rect x="78.4863" y="10.0645" width="1.45632" height="1.38565" fill="#D9D9D9"/>
<rect x="79.9336" y="10.0645" width="1.45632" height="1.38565" fill="#D9D9D9"/>
<rect x="81.3945" y="10.0645" width="1.45632" height="1.38565" fill="#D9D9D9"/>
<rect x="82.8555" y="10.0645" width="1.45632" height="1.38565" fill="#D9D9D9"/>
<rect x="84.3086" y="10.0645" width="1.45632" height="1.38565" fill="#D9D9D9"/>
<rect x="77.0234" y="53.6016" width="1.45632" height="1.38565" transform="rotate(-180 77.0234 53.6016)" fill="#D9D9D9"/>
<rect x="72.6543" y="53.6016" width="1.45632" height="1.38565" transform="rotate(-180 72.6543 53.6016)" fill="#D9D9D9"/>
<rect x="71.1953" y="53.6016" width="1.45632" height="1.38565" transform="rotate(-180 71.1953 53.6016)" fill="#D9D9D9"/>
<rect x="66.8184" y="53.6016" width="1.45632" height="1.38565" transform="rotate(-180 66.8184 53.6016)" fill="#D9D9D9"/>
<rect x="78.4766" y="52.2129" width="1.45632" height="1.38565" transform="rotate(-180 78.4766 52.2129)" fill="#D9D9D9"/>
<rect x="74.1016" y="52.2129" width="1.45632" height="1.38565" transform="rotate(-180 74.1016 52.2129)" fill="#D9D9D9"/>
<rect x="72.6543" y="52.2129" width="1.45632" height="1.38565" transform="rotate(-180 72.6543 52.2129)" fill="#D9D9D9"/>
<rect x="71.1953" y="52.2129" width="1.45632" height="1.38565" transform="rotate(-180 71.1953 52.2129)" fill="#D9D9D9"/>
<rect x="69.7324" y="52.2129" width="1.45632" height="1.38565" transform="rotate(-180 69.7324 52.2129)" fill="#D9D9D9"/>
<rect x="65.3574" y="52.2129" width="1.45632" height="1.38565" transform="rotate(-180 65.3574 52.2129)" fill="#D9D9D9"/>
<rect x="79.9453" y="50.8281" width="1.45632" height="1.38565" transform="rotate(-180 79.9453 50.8281)" fill="#D9D9D9"/>
<rect x="75.5625" y="50.8281" width="1.45632" height="1.38565" transform="rotate(-180 75.5625 50.8281)" fill="#D9D9D9"/>
<rect x="74.1016" y="50.8281" width="1.45632" height="1.38565" transform="rotate(-180 74.1016 50.8281)" fill="#D9D9D9"/>
<rect x="72.6543" y="50.8281" width="1.45632" height="1.38565" transform="rotate(-180 72.6543 50.8281)" fill="#D9D9D9"/>
<rect x="71.1953" y="50.8281" width="1.45632" height="1.38565" transform="rotate(-180 71.1953 50.8281)" fill="#D9D9D9"/>
<rect x="69.7324" y="50.8281" width="1.45632" height="1.38565" transform="rotate(-180 69.7324 50.8281)" fill="#D9D9D9"/>
<rect x="68.2715" y="50.8281" width="1.45632" height="1.38565" transform="rotate(-180 68.2715 50.8281)" fill="#D9D9D9"/>
<rect x="63.8984" y="50.8281" width="1.45632" height="1.38565" transform="rotate(-180 63.8984 50.8281)" fill="#D9D9D9"/>
<rect x="77.0234" y="49.4414" width="1.45632" height="1.38565" transform="rotate(-180 77.0234 49.4414)" fill="#D9D9D9"/>
<rect x="75.5625" y="49.4414" width="1.45632" height="1.38565" transform="rotate(-180 75.5625 49.4414)" fill="#D9D9D9"/>
<rect x="74.1016" y="49.4414" width="1.45632" height="1.38565" transform="rotate(-180 74.1016 49.4414)" fill="#D9D9D9"/>
<rect x="69.7324" y="49.4414" width="1.45632" height="1.38565" transform="rotate(-180 69.7324 49.4414)" fill="#D9D9D9"/>
<rect x="68.2715" y="49.4414" width="1.45632" height="1.38565" transform="rotate(-180 68.2715 49.4414)" fill="#D9D9D9"/>
<rect x="66.8184" y="49.4414" width="1.45632" height="1.38565" transform="rotate(-180 66.8184 49.4414)" fill="#D9D9D9"/>
<rect x="78.4766" y="48.0566" width="1.45632" height="1.38565" transform="rotate(-180 78.4766 48.0566)" fill="#D9D9D9"/>
<rect x="77.0234" y="48.0566" width="1.45632" height="1.38565" transform="rotate(-180 77.0234 48.0566)" fill="#D9D9D9"/>
<rect x="75.5625" y="48.0566" width="1.45632" height="1.38565" transform="rotate(-180 75.5625 48.0566)" fill="#D9D9D9"/>
<rect x="68.2715" y="48.0566" width="1.45632" height="1.38565" transform="rotate(-180 68.2715 48.0566)" fill="#D9D9D9"/>
<rect x="66.8184" y="48.0566" width="1.45632" height="1.38565" transform="rotate(-180 66.8184 48.0566)" fill="#D9D9D9"/>
<rect x="65.3574" y="48.0566" width="1.45632" height="1.38565" transform="rotate(-180 65.3574 48.0566)" fill="#D9D9D9"/>
<rect x="81.3984" y="46.668" width="1.45632" height="1.38565" transform="rotate(-180 81.3984 46.668)" fill="#D9D9D9"/>
<rect x="79.9453" y="46.668" width="1.45632" height="1.38565" transform="rotate(-180 79.9453 46.668)" fill="#D9D9D9"/>
<rect x="78.4766" y="46.668" width="1.45632" height="1.38565" transform="rotate(-180 78.4766 46.668)" fill="#D9D9D9"/>
<rect x="77.0234" y="46.668" width="1.45632" height="1.38565" transform="rotate(-180 77.0234 46.668)" fill="#D9D9D9"/>
<rect x="66.8184" y="46.668" width="1.45632" height="1.38565" transform="rotate(-180 66.8184 46.668)" fill="#D9D9D9"/>
<rect x="65.3574" y="46.668" width="1.45632" height="1.38565" transform="rotate(-180 65.3574 46.668)" fill="#D9D9D9"/>
<rect x="63.8984" y="46.668" width="1.45632" height="1.38565" transform="rotate(-180 63.8984 46.668)" fill="#D9D9D9"/>
<rect x="62.4512" y="46.668" width="1.45632" height="1.38565" transform="rotate(-180 62.4512 46.668)" fill="#D9D9D9"/>
<rect x="84.3125" y="45.2812" width="1.45632" height="1.38565" transform="rotate(-180 84.3125 45.2812)" fill="#D9D9D9"/>
<rect x="82.8438" y="45.2812" width="1.45632" height="1.38565" transform="rotate(-180 82.8438 45.2812)" fill="#D9D9D9"/>
<rect x="81.3906" y="45.2812" width="1.45632" height="1.38565" transform="rotate(-180 81.3906 45.2812)" fill="#D9D9D9"/>
<rect x="79.9453" y="45.2812" width="1.45632" height="1.38565" transform="rotate(-180 79.9453 45.2812)" fill="#D9D9D9"/>
<rect x="78.4766" y="45.2812" width="1.45632" height="1.38565" transform="rotate(-180 78.4766 45.2812)" fill="#D9D9D9"/>
<rect x="77.0234" y="45.2812" width="1.45632" height="1.38565" transform="rotate(-180 77.0234 45.2812)" fill="#D9D9D9"/>
<rect x="75.5625" y="45.2812" width="1.45632" height="1.38565" transform="rotate(-180 75.5625 45.2812)" fill="#D9D9D9"/>
<rect x="74.1016" y="45.2812" width="1.45632" height="1.38565" transform="rotate(-180 74.1016 45.2812)" fill="#D9D9D9"/>
<rect x="72.6484" y="45.2812" width="1.45632" height="1.38565" transform="rotate(-180 72.6484 45.2812)" fill="#D9D9D9"/>
<rect x="71.1953" y="45.2812" width="1.45632" height="1.38565" transform="rotate(-180 71.1953 45.2812)" fill="#D9D9D9"/>
<rect x="69.7324" y="45.2812" width="1.45632" height="1.38565" transform="rotate(-180 69.7324 45.2812)" fill="#D9D9D9"/>
<rect x="68.2715" y="45.2812" width="1.45632" height="1.38565" transform="rotate(-180 68.2715 45.2812)" fill="#D9D9D9"/>
<rect x="66.8184" y="45.2812" width="1.45632" height="1.38565" transform="rotate(-180 66.8184 45.2812)" fill="#D9D9D9"/>
<rect x="65.3574" y="45.2812" width="1.45632" height="1.38565" transform="rotate(-180 65.3574 45.2812)" fill="#D9D9D9"/>
<rect x="63.8984" y="45.2812" width="1.45632" height="1.38565" transform="rotate(-180 63.8984 45.2812)" fill="#D9D9D9"/>
<rect x="62.4512" y="45.2812" width="1.45632" height="1.38565" transform="rotate(-180 62.4512 45.2812)" fill="#D9D9D9"/>
<rect x="60.9902" y="45.2812" width="1.45632" height="1.38565" transform="rotate(-180 60.9902 45.2812)" fill="#D9D9D9"/>
<rect x="59.5293" y="45.2812" width="1.45632" height="1.38565" transform="rotate(-180 59.5293 45.2812)" fill="#D9D9D9"/>
<rect x="85.7656" y="43.8906" width="1.45632" height="1.38565" transform="rotate(-180 85.7656 43.8906)" fill="#D9D9D9"/>
<rect x="84.3125" y="43.8906" width="1.45632" height="1.38565" transform="rotate(-180 84.3125 43.8906)" fill="#D9D9D9"/>
<rect x="82.8438" y="43.8906" width="1.45632" height="1.38565" transform="rotate(-180 82.8438 43.8906)" fill="#D9D9D9"/>
<rect x="81.3984" y="43.8906" width="1.45632" height="1.38565" transform="rotate(-180 81.3984 43.8906)" fill="#D9D9D9"/>
<rect x="79.9453" y="43.8906" width="1.45632" height="1.38565" transform="rotate(-180 79.9453 43.8906)" fill="#D9D9D9"/>
<rect x="78.4766" y="43.8906" width="1.45632" height="1.38565" transform="rotate(-180 78.4766 43.8906)" fill="#D9D9D9"/>
<rect x="77.0234" y="43.8906" width="1.45632" height="1.38565" transform="rotate(-180 77.0234 43.8906)" fill="#D9D9D9"/>
<rect x="75.5625" y="43.8906" width="1.45632" height="1.38565" transform="rotate(-180 75.5625 43.8906)" fill="#D9D9D9"/>
<rect x="74.1016" y="43.8906" width="1.45632" height="1.38565" transform="rotate(-180 74.1016 43.8906)" fill="#D9D9D9"/>
<rect x="72.6484" y="43.8906" width="1.45632" height="1.38565" transform="rotate(-180 72.6484 43.8906)" fill="#D9D9D9"/>
<rect x="71.1953" y="43.8906" width="1.45632" height="1.38565" transform="rotate(-180 71.1953 43.8906)" fill="#D9D9D9"/>
<rect x="69.7324" y="43.8906" width="1.45632" height="1.38565" transform="rotate(-180 69.7324 43.8906)" fill="#D9D9D9"/>
<rect x="68.2715" y="43.8906" width="1.45632" height="1.38565" transform="rotate(-180 68.2715 43.8906)" fill="#D9D9D9"/>
<rect x="66.8184" y="43.8906" width="1.45632" height="1.38565" transform="rotate(-180 66.8184 43.8906)" fill="#D9D9D9"/>
<rect x="65.3574" y="43.8906" width="1.45632" height="1.38565" transform="rotate(-180 65.3574 43.8906)" fill="#D9D9D9"/>
<rect x="63.8984" y="43.8906" width="1.45632" height="1.38565" transform="rotate(-180 63.8984 43.8906)" fill="#D9D9D9"/>
<rect x="62.4512" y="43.8906" width="1.45632" height="1.38565" transform="rotate(-180 62.4512 43.8906)" fill="#D9D9D9"/>
<rect x="60.9902" y="43.8906" width="1.45632" height="1.38565" transform="rotate(-180 60.9902 43.8906)" fill="#D9D9D9"/>
<rect x="59.5293" y="43.8906" width="1.45632" height="1.38565" transform="rotate(-180 59.5293 43.8906)" fill="#D9D9D9"/>
<rect x="58.0762" y="43.8906" width="1.45632" height="1.38565" transform="rotate(-180 58.0762 43.8906)" fill="#D9D9D9"/>
<path d="M31.2157 31.168V30.9588L32.6018 30.4226V23.2569H30.7319L29.6858 25.4145H29.4766V22.5377H37.7015V25.4145H37.4923L36.4462 23.2569H34.5763V30.4226L35.9624 30.9588V31.168H31.2157ZM43.3265 31.2987C42.6814 31.2987 42.0842 31.1898 41.5351 30.9718C40.9859 30.7452 40.5064 30.4357 40.0967 30.0434C39.6957 29.6424 39.3818 29.1717 39.1552 28.6312C38.9285 28.0907 38.8152 27.4979 38.8152 26.8528C38.8152 26.2078 38.9285 25.615 39.1552 25.0745C39.3818 24.534 39.6957 24.0676 40.0967 23.6753C40.5064 23.2743 40.9859 22.9649 41.5351 22.7469C42.0842 22.5203 42.6814 22.407 43.3265 22.407C43.9803 22.407 44.5818 22.5203 45.131 22.7469C45.6802 22.9649 46.1553 23.2743 46.5563 23.6753C46.966 24.0676 47.2842 24.534 47.5108 25.0745C47.7375 25.615 47.8508 26.2078 47.8508 26.8528C47.8508 27.4979 47.7375 28.0907 47.5108 28.6312C47.2842 29.1717 46.966 29.6424 46.5563 30.0434C46.1553 30.4357 45.6802 30.7452 45.131 30.9718C44.5818 31.1898 43.9803 31.2987 43.3265 31.2987ZM43.5357 30.6188C43.9716 30.6188 44.3551 30.4793 44.6864 30.2003C45.0264 29.9214 45.2879 29.5291 45.471 29.0235C45.6628 28.5179 45.7586 27.9251 45.7586 27.2451C45.7586 26.4083 45.641 25.676 45.4056 25.0483C45.1789 24.4207 44.8695 23.9369 44.4772 23.5969C44.0849 23.2482 43.6447 23.0738 43.1565 23.0738C42.7206 23.0738 42.3327 23.2133 41.9927 23.4923C41.6527 23.7625 41.3825 24.1504 41.182 24.656C40.9902 25.1617 40.8943 25.7544 40.8943 26.4344C40.8943 27.2713 41.012 28.0035 41.2474 28.6312C41.4827 29.2589 41.8009 29.747 42.2019 30.0957C42.6029 30.4444 43.0475 30.6188 43.5357 30.6188ZM51.9114 31.2333L49.4008 23.27L48.3939 22.7469V22.5377H52.5129V22.7469L51.4145 23.2438L52.9182 28.2781H52.9836L55.2589 22.4723H56.0304L58.2925 28.2781H58.3579L59.8747 23.2569L58.7502 22.7469V22.5377H61.7054V22.7469L60.8293 23.2177L58.2664 31.2333H57.508L55.1673 25.4275H55.0758L52.6698 31.2333H51.9114ZM62.4114 31.168V30.9588L63.5229 30.4226V23.2961L62.4114 22.7469V22.5377H64.8959L69.9694 28.2651V23.27L68.4787 22.7469V22.5377H71.9832V22.7469L70.8848 23.2831V31.2333H70.074L64.4382 24.9306V30.4226L65.9289 30.9588V31.168H62.4114ZM76.3821 31.168V30.9588L77.4935 30.4226V23.2831L76.3821 22.7469V22.5377H80.488V22.7469L79.468 23.2831V26.369H83.0901V23.2831L82.044 22.7469V22.5377H86.163V22.7469L85.0646 23.2831V30.4226L86.163 30.9588V31.168H82.044V30.9588L83.0901 30.4226V27.0882H79.468V30.4226L80.488 30.9588V31.168H76.3821ZM86.986 31.168V30.9588L87.7836 30.5142L91.1965 22.4723H92.3472L95.7208 30.488L96.61 30.9588V31.168H92.478V30.9588L93.6156 30.488L92.7264 28.3174H89.6274L88.7382 30.488L89.8235 30.9588V31.168H86.986ZM89.9281 27.5982H92.4257L91.1834 24.5514L89.9281 27.5982ZM97.4392 31.168V30.9588L98.5507 30.4226V23.2831L97.4392 22.7469V22.5377H101.767V22.7469L100.525 23.2831V30.4488H103.402L104.461 27.9774H104.67V31.168H97.4392ZM105.88 31.168V30.9588L106.991 30.4226V23.2831L105.88 22.7469V22.5377H110.208V22.7469L108.966 23.2831V30.4488H111.843L112.902 27.9774H113.111V31.168H105.88Z" fill="white"/>
<defs>
<filter id="filter0_ii_1248_1066" x="1.39055" y="9.16985" width="142.004" height="36.6115" filterUnits="userSpaceOnUse" color-interpolation-filters="sRGB">
<feFlood flood-opacity="0" result="BackgroundImageFix"/>
<feBlend mode="normal" in="SourceGraphic" in2="BackgroundImageFix" result="shape"/>
<feColorMatrix in="SourceAlpha" type="matrix" values="0 0 0 0 0 0 0 0 0 0 0 0 0 0 0 0 0 0 127 0" result="hardAlpha"/>
<feOffset dx="-2.21882" dy="-2.21882"/>
<feGaussianBlur stdDeviation="1.82339"/>
<feComposite in2="hardAlpha" operator="arithmetic" k2="-1" k3="1"/>
<feColorMatrix type="matrix" values="0 0 0 0 0.176471 0 0 0 0 0.133333 0 0 0 0 0.105882 0 0 0 0.25 0"/>
<feBlend mode="normal" in2="shape" result="effect1_innerShadow_1248_1066"/>
<feColorMatrix in="SourceAlpha" type="matrix" values="0 0 0 0 0 0 0 0 0 0 0 0 0 0 0 0 0 0 127 0" result="hardAlpha"/>
<feOffset dx="3.32823" dy="3.32823"/>
<feGaussianBlur stdDeviation="1.82339"/>
<feComposite in2="hardAlpha" operator="arithmetic" k2="-1" k3="1"/>
<feColorMatrix type="matrix" values="0 0 0 0 0.176471 0 0 0 0 0.133333 0 0 0 0 0.105882 0 0 0 0.25 0"/>
<feBlend mode="normal" in2="effect1_innerShadow_1248_1066" result="effect2_innerShadow_1248_1066"/>
</filter>
<linearGradient id="paint0_linear_1248_1066" x1="4.71875" y1="12.498" x2="17.1254" y2="71.0616" gradientUnits="userSpaceOnUse">
<stop stop-color="#EB8C2A"/>
<stop offset="1" stop-color="#754515"/>
</linearGradient>
</defs>
</svg>
