<svg width="144" height="54" viewBox="0 0 144 54" fill="none" xmlns="http://www.w3.org/2000/svg">
<g filter="url(#filter0_ii_1248_1805)">
<path d="M5 41.6201V12.7754H139.239V41.6201H5Z" fill="#6B3C24"/>
</g>
<path d="M4.44529 41.6201V42.1748H5H139.239H139.794V41.6201V12.7754V12.2207H139.239H5H4.44529V12.7754V41.6201Z" stroke="url(#paint0_linear_1248_1805)" stroke-width="1.10941"/>
<path d="M1.16004 21.7095H3.37855V11.7262H10.0341V9.50769H8.92484V8.39844H0.0507812V20.6003H1.16004V21.7095Z" fill="#D9D9D9"/>
<path d="M142.055 21.7095H139.836V11.7262H133.181V9.50769H134.29V8.39844H143.164V20.6003H142.055V21.7095Z" fill="#D9D9D9"/>
<path d="M142.055 32.8081L139.836 32.8081L139.836 42.7914L133.181 42.7914L133.181 45.0099L134.29 45.0099L134.29 46.1191L143.164 46.1191L143.164 33.9173L142.055 33.9173L142.055 32.8081Z" fill="#D9D9D9"/>
<path d="M1.16004 32.8081L3.37855 32.8081L3.37855 42.7914L10.0341 42.7914L10.0341 45.0099L8.92484 45.0099L8.92484 46.1191L0.0507812 46.1191L0.0507823 33.9173L1.16004 33.9173L1.16004 32.8081Z" fill="#D9D9D9"/>
<rect x="65.3613" y="0.632812" width="1.45632" height="1.38565" fill="#D9D9D9"/>
<rect x="69.7305" y="0.632812" width="1.45632" height="1.38565" fill="#D9D9D9"/>
<rect x="71.1895" y="0.632812" width="1.45632" height="1.38565" fill="#D9D9D9"/>
<rect x="75.5664" y="0.632812" width="1.45632" height="1.38565" fill="#D9D9D9"/>
<rect x="63.9082" y="2.02148" width="1.45632" height="1.38565" fill="#D9D9D9"/>
<rect x="68.2832" y="2.02148" width="1.45632" height="1.38565" fill="#D9D9D9"/>
<rect x="69.7305" y="2.02148" width="1.45632" height="1.38565" fill="#D9D9D9"/>
<rect x="71.1895" y="2.02148" width="1.45632" height="1.38565" fill="#D9D9D9"/>
<rect x="72.6523" y="2.02148" width="1.45632" height="1.38565" fill="#D9D9D9"/>
<rect x="77.0273" y="2.02148" width="1.45632" height="1.38565" fill="#D9D9D9"/>
<rect x="62.4395" y="3.40625" width="1.45632" height="1.38565" fill="#D9D9D9"/>
<rect x="66.8223" y="3.40625" width="1.45632" height="1.38565" fill="#D9D9D9"/>
<rect x="68.2832" y="3.40625" width="1.45632" height="1.38565" fill="#D9D9D9"/>
<rect x="69.7305" y="3.40625" width="1.45632" height="1.38565" fill="#D9D9D9"/>
<rect x="71.1895" y="3.40625" width="1.45632" height="1.38565" fill="#D9D9D9"/>
<rect x="72.6523" y="3.40625" width="1.45632" height="1.38565" fill="#D9D9D9"/>
<rect x="74.1133" y="3.40625" width="1.45632" height="1.38565" fill="#D9D9D9"/>
<rect x="78.4863" y="3.40625" width="1.45632" height="1.38565" fill="#D9D9D9"/>
<rect x="65.3613" y="4.79297" width="1.45632" height="1.38565" fill="#D9D9D9"/>
<rect x="66.8223" y="4.79297" width="1.45632" height="1.38565" fill="#D9D9D9"/>
<rect x="68.2832" y="4.79297" width="1.45632" height="1.38565" fill="#D9D9D9"/>
<rect x="72.6523" y="4.79297" width="1.45632" height="1.38565" fill="#D9D9D9"/>
<rect x="74.1133" y="4.79297" width="1.45632" height="1.38565" fill="#D9D9D9"/>
<rect x="75.5664" y="4.79297" width="1.45632" height="1.38565" fill="#D9D9D9"/>
<rect x="63.9082" y="6.17969" width="1.45632" height="1.38565" fill="#D9D9D9"/>
<rect x="65.3613" y="6.17969" width="1.45632" height="1.38565" fill="#D9D9D9"/>
<rect x="66.8223" y="6.17969" width="1.45632" height="1.38565" fill="#D9D9D9"/>
<rect x="74.1133" y="6.17969" width="1.45632" height="1.38565" fill="#D9D9D9"/>
<rect x="75.5664" y="6.17969" width="1.45632" height="1.38565" fill="#D9D9D9"/>
<rect x="77.0273" y="6.17969" width="1.45632" height="1.38565" fill="#D9D9D9"/>
<rect x="60.9941" y="7.56641" width="1.45632" height="1.38565" fill="#D9D9D9"/>
<rect x="62.4395" y="7.56641" width="1.45632" height="1.38565" fill="#D9D9D9"/>
<rect x="63.9082" y="7.56641" width="1.45632" height="1.38565" fill="#D9D9D9"/>
<rect x="65.3613" y="7.56641" width="1.45632" height="1.38565" fill="#D9D9D9"/>
<rect x="75.5664" y="7.56641" width="1.45632" height="1.38565" fill="#D9D9D9"/>
<rect x="77.0273" y="7.56641" width="1.45632" height="1.38565" fill="#D9D9D9"/>
<rect x="78.4863" y="7.56641" width="1.45632" height="1.38565" fill="#D9D9D9"/>
<rect x="79.9336" y="7.56641" width="1.45632" height="1.38565" fill="#D9D9D9"/>
<rect x="58.0723" y="8.95312" width="1.45632" height="1.38565" fill="#D9D9D9"/>
<rect x="59.541" y="8.95312" width="1.45632" height="1.38565" fill="#D9D9D9"/>
<rect x="60.9941" y="8.95312" width="1.45632" height="1.38565" fill="#D9D9D9"/>
<rect x="62.4395" y="8.95312" width="1.45632" height="1.38565" fill="#D9D9D9"/>
<rect x="63.9082" y="8.95312" width="1.45632" height="1.38565" fill="#D9D9D9"/>
<rect x="65.3613" y="8.95312" width="1.45632" height="1.38565" fill="#D9D9D9"/>
<rect x="66.8223" y="8.95312" width="1.45632" height="1.38565" fill="#D9D9D9"/>
<rect x="68.2832" y="8.95312" width="1.45632" height="1.38565" fill="#D9D9D9"/>
<rect x="69.7305" y="8.95312" width="1.45632" height="1.38565" fill="#D9D9D9"/>
<rect x="71.1895" y="8.95312" width="1.45632" height="1.38565" fill="#D9D9D9"/>
<rect x="72.6523" y="8.95312" width="1.45632" height="1.38565" fill="#D9D9D9"/>
<rect x="74.1133" y="8.95312" width="1.45632" height="1.38565" fill="#D9D9D9"/>
<rect x="75.5664" y="8.95312" width="1.45632" height="1.38565" fill="#D9D9D9"/>
<rect x="77.0273" y="8.95312" width="1.45632" height="1.38565" fill="#D9D9D9"/>
<rect x="78.4863" y="8.95312" width="1.45632" height="1.38565" fill="#D9D9D9"/>
<rect x="79.9336" y="8.95312" width="1.45632" height="1.38565" fill="#D9D9D9"/>
<rect x="81.3945" y="8.95312" width="1.45632" height="1.38565" fill="#D9D9D9"/>
<rect x="82.8555" y="8.95312" width="1.45632" height="1.38565" fill="#D9D9D9"/>
<rect x="56.6191" y="10.3418" width="1.45632" height="1.38565" fill="#D9D9D9"/>
<rect x="58.0723" y="10.3418" width="1.45632" height="1.38565" fill="#D9D9D9"/>
<rect x="59.541" y="10.3418" width="1.45632" height="1.38565" fill="#D9D9D9"/>
<rect x="60.9941" y="10.3418" width="1.45632" height="1.38565" fill="#D9D9D9"/>
<rect x="62.4395" y="10.3418" width="1.45632" height="1.38565" fill="#D9D9D9"/>
<rect x="63.9082" y="10.3418" width="1.45632" height="1.38565" fill="#D9D9D9"/>
<rect x="65.3613" y="10.3418" width="1.45632" height="1.38565" fill="#D9D9D9"/>
<rect x="66.8223" y="10.3418" width="1.45632" height="1.38565" fill="#D9D9D9"/>
<rect x="68.2832" y="10.3418" width="1.45632" height="1.38565" fill="#D9D9D9"/>
<rect x="69.7305" y="10.3418" width="1.45632" height="1.38565" fill="#D9D9D9"/>
<rect x="71.1895" y="10.3418" width="1.45632" height="1.38565" fill="#D9D9D9"/>
<rect x="72.6523" y="10.3418" width="1.45632" height="1.38565" fill="#D9D9D9"/>
<rect x="74.1133" y="10.3418" width="1.45632" height="1.38565" fill="#D9D9D9"/>
<rect x="75.5664" y="10.3418" width="1.45632" height="1.38565" fill="#D9D9D9"/>
<rect x="77.0273" y="10.3418" width="1.45632" height="1.38565" fill="#D9D9D9"/>
<rect x="78.4863" y="10.3418" width="1.45632" height="1.38565" fill="#D9D9D9"/>
<rect x="79.9336" y="10.3418" width="1.45632" height="1.38565" fill="#D9D9D9"/>
<rect x="81.3945" y="10.3418" width="1.45632" height="1.38565" fill="#D9D9D9"/>
<rect x="82.8555" y="10.3418" width="1.45632" height="1.38565" fill="#D9D9D9"/>
<rect x="84.3086" y="10.3418" width="1.45632" height="1.38565" fill="#D9D9D9"/>
<rect x="77.0234" y="53.8789" width="1.45632" height="1.38565" transform="rotate(-180 77.0234 53.8789)" fill="#D9D9D9"/>
<rect x="72.6543" y="53.8789" width="1.45632" height="1.38565" transform="rotate(-180 72.6543 53.8789)" fill="#D9D9D9"/>
<rect x="71.1953" y="53.8789" width="1.45632" height="1.38565" transform="rotate(-180 71.1953 53.8789)" fill="#D9D9D9"/>
<rect x="66.8184" y="53.8789" width="1.45632" height="1.38565" transform="rotate(-180 66.8184 53.8789)" fill="#D9D9D9"/>
<rect x="78.4766" y="52.4902" width="1.45632" height="1.38565" transform="rotate(-180 78.4766 52.4902)" fill="#D9D9D9"/>
<rect x="74.1016" y="52.4902" width="1.45632" height="1.38565" transform="rotate(-180 74.1016 52.4902)" fill="#D9D9D9"/>
<rect x="72.6543" y="52.4902" width="1.45632" height="1.38565" transform="rotate(-180 72.6543 52.4902)" fill="#D9D9D9"/>
<rect x="71.1953" y="52.4902" width="1.45632" height="1.38565" transform="rotate(-180 71.1953 52.4902)" fill="#D9D9D9"/>
<rect x="69.7324" y="52.4902" width="1.45632" height="1.38565" transform="rotate(-180 69.7324 52.4902)" fill="#D9D9D9"/>
<rect x="65.3574" y="52.4902" width="1.45632" height="1.38565" transform="rotate(-180 65.3574 52.4902)" fill="#D9D9D9"/>
<rect x="79.9453" y="51.1055" width="1.45632" height="1.38565" transform="rotate(-180 79.9453 51.1055)" fill="#D9D9D9"/>
<rect x="75.5625" y="51.1055" width="1.45632" height="1.38565" transform="rotate(-180 75.5625 51.1055)" fill="#D9D9D9"/>
<rect x="74.1016" y="51.1055" width="1.45632" height="1.38565" transform="rotate(-180 74.1016 51.1055)" fill="#D9D9D9"/>
<rect x="72.6543" y="51.1055" width="1.45632" height="1.38565" transform="rotate(-180 72.6543 51.1055)" fill="#D9D9D9"/>
<rect x="71.1953" y="51.1055" width="1.45632" height="1.38565" transform="rotate(-180 71.1953 51.1055)" fill="#D9D9D9"/>
<rect x="69.7324" y="51.1055" width="1.45632" height="1.38565" transform="rotate(-180 69.7324 51.1055)" fill="#D9D9D9"/>
<rect x="68.2715" y="51.1055" width="1.45632" height="1.38565" transform="rotate(-180 68.2715 51.1055)" fill="#D9D9D9"/>
<rect x="63.8984" y="51.1055" width="1.45632" height="1.38565" transform="rotate(-180 63.8984 51.1055)" fill="#D9D9D9"/>
<rect x="77.0234" y="49.7188" width="1.45632" height="1.38565" transform="rotate(-180 77.0234 49.7188)" fill="#D9D9D9"/>
<rect x="75.5625" y="49.7188" width="1.45632" height="1.38565" transform="rotate(-180 75.5625 49.7188)" fill="#D9D9D9"/>
<rect x="74.1016" y="49.7188" width="1.45632" height="1.38565" transform="rotate(-180 74.1016 49.7188)" fill="#D9D9D9"/>
<rect x="69.7324" y="49.7188" width="1.45632" height="1.38565" transform="rotate(-180 69.7324 49.7188)" fill="#D9D9D9"/>
<rect x="68.2715" y="49.7188" width="1.45632" height="1.38565" transform="rotate(-180 68.2715 49.7188)" fill="#D9D9D9"/>
<rect x="66.8184" y="49.7188" width="1.45632" height="1.38565" transform="rotate(-180 66.8184 49.7188)" fill="#D9D9D9"/>
<rect x="78.4766" y="48.334" width="1.45632" height="1.38565" transform="rotate(-180 78.4766 48.334)" fill="#D9D9D9"/>
<rect x="77.0234" y="48.334" width="1.45632" height="1.38565" transform="rotate(-180 77.0234 48.334)" fill="#D9D9D9"/>
<rect x="75.5625" y="48.334" width="1.45632" height="1.38565" transform="rotate(-180 75.5625 48.334)" fill="#D9D9D9"/>
<rect x="68.2715" y="48.334" width="1.45632" height="1.38565" transform="rotate(-180 68.2715 48.334)" fill="#D9D9D9"/>
<rect x="66.8184" y="48.334" width="1.45632" height="1.38565" transform="rotate(-180 66.8184 48.334)" fill="#D9D9D9"/>
<rect x="65.3574" y="48.334" width="1.45632" height="1.38565" transform="rotate(-180 65.3574 48.334)" fill="#D9D9D9"/>
<rect x="81.3984" y="46.9453" width="1.45632" height="1.38565" transform="rotate(-180 81.3984 46.9453)" fill="#D9D9D9"/>
<rect x="79.9453" y="46.9453" width="1.45632" height="1.38565" transform="rotate(-180 79.9453 46.9453)" fill="#D9D9D9"/>
<rect x="78.4766" y="46.9453" width="1.45632" height="1.38565" transform="rotate(-180 78.4766 46.9453)" fill="#D9D9D9"/>
<rect x="77.0234" y="46.9453" width="1.45632" height="1.38565" transform="rotate(-180 77.0234 46.9453)" fill="#D9D9D9"/>
<rect x="66.8184" y="46.9453" width="1.45632" height="1.38565" transform="rotate(-180 66.8184 46.9453)" fill="#D9D9D9"/>
<rect x="65.3574" y="46.9453" width="1.45632" height="1.38565" transform="rotate(-180 65.3574 46.9453)" fill="#D9D9D9"/>
<rect x="63.8984" y="46.9453" width="1.45632" height="1.38565" transform="rotate(-180 63.8984 46.9453)" fill="#D9D9D9"/>
<rect x="62.4512" y="46.9453" width="1.45632" height="1.38565" transform="rotate(-180 62.4512 46.9453)" fill="#D9D9D9"/>
<rect x="84.3125" y="45.5586" width="1.45632" height="1.38565" transform="rotate(-180 84.3125 45.5586)" fill="#D9D9D9"/>
<rect x="82.8438" y="45.5586" width="1.45632" height="1.38565" transform="rotate(-180 82.8438 45.5586)" fill="#D9D9D9"/>
<rect x="81.3906" y="45.5586" width="1.45632" height="1.38565" transform="rotate(-180 81.3906 45.5586)" fill="#D9D9D9"/>
<rect x="79.9453" y="45.5586" width="1.45632" height="1.38565" transform="rotate(-180 79.9453 45.5586)" fill="#D9D9D9"/>
<rect x="78.4766" y="45.5586" width="1.45632" height="1.38565" transform="rotate(-180 78.4766 45.5586)" fill="#D9D9D9"/>
<rect x="77.0234" y="45.5586" width="1.45632" height="1.38565" transform="rotate(-180 77.0234 45.5586)" fill="#D9D9D9"/>
<rect x="75.5625" y="45.5586" width="1.45632" height="1.38565" transform="rotate(-180 75.5625 45.5586)" fill="#D9D9D9"/>
<rect x="74.1016" y="45.5586" width="1.45632" height="1.38565" transform="rotate(-180 74.1016 45.5586)" fill="#D9D9D9"/>
<rect x="72.6484" y="45.5586" width="1.45632" height="1.38565" transform="rotate(-180 72.6484 45.5586)" fill="#D9D9D9"/>
<rect x="71.1953" y="45.5586" width="1.45632" height="1.38565" transform="rotate(-180 71.1953 45.5586)" fill="#D9D9D9"/>
<rect x="69.7324" y="45.5586" width="1.45632" height="1.38565" transform="rotate(-180 69.7324 45.5586)" fill="#D9D9D9"/>
<rect x="68.2715" y="45.5586" width="1.45632" height="1.38565" transform="rotate(-180 68.2715 45.5586)" fill="#D9D9D9"/>
<rect x="66.8184" y="45.5586" width="1.45632" height="1.38565" transform="rotate(-180 66.8184 45.5586)" fill="#D9D9D9"/>
<rect x="65.3574" y="45.5586" width="1.45632" height="1.38565" transform="rotate(-180 65.3574 45.5586)" fill="#D9D9D9"/>
<rect x="63.8984" y="45.5586" width="1.45632" height="1.38565" transform="rotate(-180 63.8984 45.5586)" fill="#D9D9D9"/>
<rect x="62.4512" y="45.5586" width="1.45632" height="1.38565" transform="rotate(-180 62.4512 45.5586)" fill="#D9D9D9"/>
<rect x="60.9902" y="45.5586" width="1.45632" height="1.38565" transform="rotate(-180 60.9902 45.5586)" fill="#D9D9D9"/>
<rect x="59.5293" y="45.5586" width="1.45632" height="1.38565" transform="rotate(-180 59.5293 45.5586)" fill="#D9D9D9"/>
<rect x="85.7656" y="44.168" width="1.45632" height="1.38565" transform="rotate(-180 85.7656 44.168)" fill="#D9D9D9"/>
<rect x="84.3125" y="44.168" width="1.45632" height="1.38565" transform="rotate(-180 84.3125 44.168)" fill="#D9D9D9"/>
<rect x="82.8438" y="44.168" width="1.45632" height="1.38565" transform="rotate(-180 82.8438 44.168)" fill="#D9D9D9"/>
<rect x="81.3984" y="44.168" width="1.45632" height="1.38565" transform="rotate(-180 81.3984 44.168)" fill="#D9D9D9"/>
<rect x="79.9453" y="44.168" width="1.45632" height="1.38565" transform="rotate(-180 79.9453 44.168)" fill="#D9D9D9"/>
<rect x="78.4766" y="44.168" width="1.45632" height="1.38565" transform="rotate(-180 78.4766 44.168)" fill="#D9D9D9"/>
<rect x="77.0234" y="44.168" width="1.45632" height="1.38565" transform="rotate(-180 77.0234 44.168)" fill="#D9D9D9"/>
<rect x="75.5625" y="44.168" width="1.45632" height="1.38565" transform="rotate(-180 75.5625 44.168)" fill="#D9D9D9"/>
<rect x="74.1016" y="44.168" width="1.45632" height="1.38565" transform="rotate(-180 74.1016 44.168)" fill="#D9D9D9"/>
<rect x="72.6484" y="44.168" width="1.45632" height="1.38565" transform="rotate(-180 72.6484 44.168)" fill="#D9D9D9"/>
<rect x="71.1953" y="44.168" width="1.45632" height="1.38565" transform="rotate(-180 71.1953 44.168)" fill="#D9D9D9"/>
<rect x="69.7324" y="44.168" width="1.45632" height="1.38565" transform="rotate(-180 69.7324 44.168)" fill="#D9D9D9"/>
<rect x="68.2715" y="44.168" width="1.45632" height="1.38565" transform="rotate(-180 68.2715 44.168)" fill="#D9D9D9"/>
<rect x="66.8184" y="44.168" width="1.45632" height="1.38565" transform="rotate(-180 66.8184 44.168)" fill="#D9D9D9"/>
<rect x="65.3574" y="44.168" width="1.45632" height="1.38565" transform="rotate(-180 65.3574 44.168)" fill="#D9D9D9"/>
<rect x="63.8984" y="44.168" width="1.45632" height="1.38565" transform="rotate(-180 63.8984 44.168)" fill="#D9D9D9"/>
<rect x="62.4512" y="44.168" width="1.45632" height="1.38565" transform="rotate(-180 62.4512 44.168)" fill="#D9D9D9"/>
<rect x="60.9902" y="44.168" width="1.45632" height="1.38565" transform="rotate(-180 60.9902 44.168)" fill="#D9D9D9"/>
<rect x="59.5293" y="44.168" width="1.45632" height="1.38565" transform="rotate(-180 59.5293 44.168)" fill="#D9D9D9"/>
<rect x="58.0762" y="44.168" width="1.45632" height="1.38565" transform="rotate(-180 58.0762 44.168)" fill="#D9D9D9"/>
<path d="M17.6744 31.5107L15.1638 23.5473L14.1569 23.0243V22.8151H18.2759V23.0243L17.1775 23.5212L18.6813 28.5555H18.7466L21.0219 22.7497H21.7934L24.0556 28.5555H24.1209L25.6378 23.5342L24.5132 23.0243V22.8151H27.4684V23.0243L26.5923 23.495L24.0294 31.5107H23.271L20.9304 25.7049H20.8388L18.4328 31.5107H17.6744ZM28.2006 31.4453V31.2361L29.3121 30.7V23.5604L28.2006 23.0243V22.8151H35.3271V25.0772H35.1179L34.1502 23.5342H31.2866V26.6333H33.3003L34.0325 25.5087H34.2418V28.4509H34.0325L33.3003 27.3525H31.2866V30.7261H34.4641L35.484 28.7778H35.6932V31.4453H28.2006ZM40.0693 31.5761C39.494 31.5761 38.984 31.5194 38.5394 31.4061C38.1036 31.284 37.6808 31.1184 37.271 30.9092L37.1403 28.6993H37.3756L38.3041 30.3077C38.5394 30.4995 38.7922 30.6477 39.0625 30.7523C39.3414 30.8569 39.6247 30.9092 39.9124 30.9092C40.3832 30.9092 40.7667 30.8002 41.0631 30.5823C41.3595 30.3556 41.5077 30.0244 41.5077 29.5885C41.5077 29.2921 41.438 29.048 41.2985 28.8562C41.1677 28.6645 40.9454 28.4857 40.6316 28.3201C40.3178 28.1458 39.8863 27.9365 39.3371 27.6925C38.7181 27.4222 38.243 27.0997 37.9118 26.7248C37.5805 26.35 37.4149 25.8836 37.4149 25.3257C37.4149 24.977 37.5021 24.6457 37.6764 24.3319C37.8595 24.0093 38.0992 23.726 38.3956 23.4819C38.7007 23.2291 39.0363 23.033 39.4025 22.8935C39.7773 22.754 40.1609 22.6843 40.5532 22.6843C40.9977 22.6843 41.4249 22.7366 41.8346 22.8412C42.2443 22.9458 42.6235 23.094 42.9722 23.2858L43.103 25.378H42.8807L41.9654 23.9004C41.7387 23.726 41.5164 23.5953 41.2985 23.5081C41.0893 23.4122 40.8495 23.3643 40.5793 23.3643C40.2219 23.3643 39.9255 23.4776 39.6901 23.7042C39.4548 23.9309 39.3371 24.2316 39.3371 24.6065C39.3371 24.9639 39.4635 25.2603 39.7163 25.4957C39.9778 25.7223 40.4267 25.9795 41.0631 26.2672C41.8564 26.6333 42.4405 27.0081 42.8153 27.3917C43.1902 27.7753 43.3776 28.2809 43.3776 28.9085C43.3776 29.4665 43.2163 29.9459 42.8938 30.3469C42.5712 30.7479 42.1572 31.053 41.6515 31.2622C41.1459 31.4715 40.6185 31.5761 40.0693 31.5761ZM46.2186 31.4453V31.2361L47.6047 30.7V23.5342H45.7348L44.6887 25.6918H44.4795V22.8151H52.7044V25.6918H52.4951L51.4491 23.5342H49.5792V30.7L50.9652 31.2361V31.4453H46.2186ZM57.0217 31.4453V31.2361L58.1332 30.7V23.5604L57.0217 23.0243V22.8151H61.4807C62.5181 22.8151 63.3985 22.985 64.1221 23.325C64.8456 23.665 65.3948 24.1314 65.7697 24.7242C66.1532 25.317 66.345 25.9882 66.345 26.7379C66.345 27.4179 66.2186 28.0455 65.9658 28.6209C65.7217 29.1962 65.3774 29.6931 64.9328 30.1115C64.4882 30.53 63.9652 30.8569 63.3637 31.0923C62.7622 31.3276 62.104 31.4453 61.3892 31.4453H57.0217ZM60.9446 23.5342H60.1077V30.7261H61.1276C62.1389 30.7261 62.9191 30.4036 63.4683 29.7585C64.0175 29.1047 64.2921 28.2329 64.2921 27.1433C64.2921 26.0449 64.0088 25.1688 63.4421 24.515C62.8842 23.8611 62.0517 23.5342 60.9446 23.5342ZM72.4104 31.5761C71.652 31.5761 70.9851 31.454 70.4098 31.2099C69.8344 30.9571 69.3855 30.5518 69.0629 29.9939C68.7404 29.4272 68.5791 28.6732 68.5791 27.7317V23.5604L67.4546 23.0243V22.8151H71.6781V23.0243L70.5536 23.5604V27.7448C70.5536 28.4683 70.6626 29.0393 70.8805 29.4577C71.1072 29.8675 71.4079 30.1595 71.7828 30.3338C72.1663 30.5082 72.5891 30.5954 73.0511 30.5954C73.4347 30.5954 73.7921 30.5169 74.1234 30.36C74.4546 30.2031 74.7205 29.9503 74.921 29.6016C75.1215 29.2442 75.2218 28.7778 75.2218 28.2024V23.5342L73.9926 23.0243V22.8151H77.2617V23.0243L76.1371 23.5473V27.7317C76.1371 28.6732 75.9802 29.4272 75.6664 29.9939C75.3525 30.5518 74.9167 30.9571 74.3588 31.2099C73.8008 31.454 73.1514 31.5761 72.4104 31.5761ZM78.3848 31.4453V31.2361L79.4963 30.7V23.5735L78.3848 23.0243V22.8151H80.8692L85.9428 28.5424V23.5473L84.4521 23.0243V22.8151H87.9565V23.0243L86.8581 23.5604V31.5107H86.0474L80.4116 25.208V30.7L81.9023 31.2361V31.4453H78.3848ZM93.6761 31.5761C93.0484 31.5761 92.46 31.4715 91.9108 31.2622C91.3703 31.0443 90.8909 30.7436 90.4724 30.36C90.0627 29.9764 89.7402 29.5275 89.5048 29.0131C89.2782 28.4901 89.1648 27.9235 89.1648 27.3133C89.1648 26.642 89.2956 26.0274 89.5571 25.4695C89.8186 24.9029 90.1804 24.4103 90.6424 23.9919C91.1045 23.5735 91.6319 23.2509 92.2246 23.0243C92.8174 22.7976 93.4407 22.6843 94.0945 22.6843C94.5566 22.6843 94.9488 22.7104 95.2714 22.7628C95.6027 22.8151 95.8947 22.8892 96.1475 22.985C96.409 23.0809 96.6662 23.1899 96.919 23.312L97.0628 25.6134H96.8275L95.5721 23.7173C95.3368 23.5691 95.1101 23.4689 94.8922 23.4166C94.6742 23.3555 94.4258 23.325 94.1468 23.325C93.5976 23.325 93.1008 23.4819 92.6562 23.7958C92.2116 24.1096 91.8585 24.5498 91.597 25.1165C91.3355 25.6744 91.2047 26.3282 91.2047 27.0779C91.2047 27.8624 91.3311 28.5381 91.5839 29.1047C91.8367 29.6626 92.1767 30.0941 92.6039 30.3992C93.0397 30.7043 93.5235 30.8569 94.0553 30.8569C94.2035 30.8569 94.3648 30.8525 94.5391 30.8438C94.7135 30.8264 94.8878 30.8002 95.0622 30.7654V28.3463L93.8984 27.7317V27.5225H98.0043V27.7317L97.0236 28.3593V30.4777C96.7534 30.7043 96.4264 30.9005 96.0429 31.0661C95.668 31.223 95.2714 31.3494 94.853 31.4453C94.4432 31.5325 94.051 31.5761 93.6761 31.5761ZM98.9701 31.4453V31.2361L100.082 30.7V23.5604L98.9701 23.0243V22.8151H106.097V25.0772H105.887L104.92 23.5342H102.056V26.6333H104.07L104.802 25.5087H105.011V28.4509H104.802L104.07 27.3525H102.056V30.7261H105.234L106.254 28.7778H106.463V31.4453H98.9701ZM112.447 31.5761C111.802 31.5761 111.205 31.4671 110.656 31.2492C110.107 31.0225 109.627 30.713 109.217 30.3208C108.816 29.9198 108.503 29.449 108.276 28.9085C108.049 28.3681 107.936 27.7753 107.936 27.1302C107.936 26.4851 108.049 25.8923 108.276 25.3518C108.503 24.8113 108.816 24.345 109.217 23.9527C109.627 23.5517 110.107 23.2422 110.656 23.0243C111.205 22.7976 111.802 22.6843 112.447 22.6843C113.101 22.6843 113.703 22.7976 114.252 23.0243C114.801 23.2422 115.276 23.5517 115.677 23.9527C116.087 24.345 116.405 24.8113 116.632 25.3518C116.858 25.8923 116.972 26.4851 116.972 27.1302C116.972 27.7753 116.858 28.3681 116.632 28.9085C116.405 29.449 116.087 29.9198 115.677 30.3208C115.276 30.713 114.801 31.0225 114.252 31.2492C113.703 31.4671 113.101 31.5761 112.447 31.5761ZM112.656 30.8961C113.092 30.8961 113.476 30.7566 113.807 30.4777C114.147 30.1987 114.409 29.8064 114.592 29.3008C114.783 28.7952 114.879 28.2024 114.879 27.5225C114.879 26.6856 114.762 25.9533 114.526 25.3257C114.3 24.698 113.99 24.2142 113.598 23.8742C113.206 23.5255 112.765 23.3512 112.277 23.3512C111.841 23.3512 111.453 23.4907 111.113 23.7696C110.773 24.0399 110.503 24.4278 110.303 24.9334C110.111 25.439 110.015 26.0318 110.015 26.7117C110.015 27.5486 110.133 28.2809 110.368 28.9085C110.603 29.5362 110.922 30.0244 111.323 30.3731C111.724 30.7218 112.168 30.8961 112.656 30.8961ZM118.162 31.4453V31.2361L119.274 30.7V23.5735L118.162 23.0243V22.8151H120.647L125.72 28.5424V23.5473L124.23 23.0243V22.8151H127.734V23.0243L126.636 23.5604V31.5107H125.825L120.189 25.208V30.7L121.68 31.2361V31.4453H118.162Z" fill="white"/>
<defs>
<filter id="filter0_ii_1248_1805" x="1.6718" y="9.44719" width="142.004" height="36.6115" filterUnits="userSpaceOnUse" color-interpolation-filters="sRGB">
<feFlood flood-opacity="0" result="BackgroundImageFix"/>
<feBlend mode="normal" in="SourceGraphic" in2="BackgroundImageFix" result="shape"/>
<feColorMatrix in="SourceAlpha" type="matrix" values="0 0 0 0 0 0 0 0 0 0 0 0 0 0 0 0 0 0 127 0" result="hardAlpha"/>
<feOffset dx="-2.21882" dy="-2.21882"/>
<feGaussianBlur stdDeviation="1.82339"/>
<feComposite in2="hardAlpha" operator="arithmetic" k2="-1" k3="1"/>
<feColorMatrix type="matrix" values="0 0 0 0 0.176471 0 0 0 0 0.133333 0 0 0 0 0.105882 0 0 0 0.25 0"/>
<feBlend mode="normal" in2="shape" result="effect1_innerShadow_1248_1805"/>
<feColorMatrix in="SourceAlpha" type="matrix" values="0 0 0 0 0 0 0 0 0 0 0 0 0 0 0 0 0 0 127 0" result="hardAlpha"/>
<feOffset dx="3.32823" dy="3.32823"/>
<feGaussianBlur stdDeviation="1.82339"/>
<feComposite in2="hardAlpha" operator="arithmetic" k2="-1" k3="1"/>
<feColorMatrix type="matrix" values="0 0 0 0 0.176471 0 0 0 0 0.133333 0 0 0 0 0.105882 0 0 0 0.25 0"/>
<feBlend mode="normal" in2="effect1_innerShadow_1248_1805" result="effect2_innerShadow_1248_1805"/>
</filter>
<linearGradient id="paint0_linear_1248_1805" x1="5" y1="12.7754" x2="17.4067" y2="71.3389" gradientUnits="userSpaceOnUse">
<stop stop-color="#EB8C2A"/>
<stop offset="1" stop-color="#754515"/>
</linearGradient>
</defs>
</svg>
