<svg width="165" height="44" viewBox="0 0 165 44" fill="none" xmlns="http://www.w3.org/2000/svg">
<path d="M5.08489 37.8739V38.6991H5.91016H159.127H159.953V37.8739V4.95117V4.1259H159.127H5.91016H5.08489V4.95117V37.8739Z" fill="#6B3C24" stroke="url(#paint0_linear_1214_3356)" stroke-width="1.65054"/>
<path d="M2.22524 15.1951H4.75776V3.79877H12.3553V1.26626H11.089V0H0.958984V13.9288H2.22524V15.1951Z" fill="#D9D9D9"/>
<path d="M163.04 15.1951H160.508V3.79877H152.91V1.26626H154.177V0H164.307V13.9288H163.04V15.1951Z" fill="#D9D9D9"/>
<path d="M163.04 27.8557L160.508 27.8557L160.508 39.252L152.91 39.252L152.91 41.7845L154.177 41.7845L154.177 43.0508L164.307 43.0508L164.307 29.1219L163.04 29.1219L163.04 27.8557Z" fill="#D9D9D9"/>
<path d="M2.22524 27.8557L4.75776 27.8557L4.75776 39.252L12.3553 39.252L12.3553 41.7845L11.089 41.7845L11.089 43.0508L0.958984 43.0508L0.958986 29.1219L2.22524 29.1219L2.22524 27.8557Z" fill="#D9D9D9"/>
<path d="M28.0358 28.3789V28.1358L29.3274 27.5128V19.2163L28.0358 18.5933V18.3501H32.8982C33.6276 18.3501 34.2759 18.4362 34.8432 18.6085C35.4206 18.7705 35.8714 19.0187 36.1955 19.353C36.5298 19.6772 36.697 20.0925 36.697 20.599C36.697 21.1157 36.4994 21.5918 36.1044 22.0274C35.7194 22.4629 35.1623 22.7669 34.4329 22.9391C35.4155 23.0708 36.1854 23.3595 36.7426 23.8052C37.3098 24.2408 37.5935 24.7929 37.5935 25.4614C37.5935 26.0186 37.4061 26.52 37.0313 26.9658C36.6565 27.4014 36.1398 27.7458 35.4814 27.999C34.833 28.2523 34.0935 28.3789 33.2629 28.3789H28.0358ZM32.1384 19.1859H31.6218V22.8327H32.2296C32.8982 22.8327 33.4199 22.6757 33.7947 22.3616C34.1695 22.0375 34.3569 21.6019 34.3569 21.0549C34.3569 19.8089 33.6174 19.1859 32.1384 19.1859ZM32.6703 23.5773H31.6218V27.5432H32.7766C33.5263 27.5432 34.1087 27.3558 34.5241 26.981C34.9495 26.6061 35.1623 26.125 35.1623 25.5374C35.1623 24.8688 34.9445 24.3775 34.5089 24.0635C34.0834 23.7393 33.4706 23.5773 32.6703 23.5773ZM44.3497 28.5309C43.6001 28.5309 42.9062 28.4042 42.268 28.151C41.6298 27.8876 41.0726 27.528 40.5965 27.0721C40.1306 26.6061 39.7659 26.0591 39.5025 25.4311C39.2391 24.803 39.1074 24.1141 39.1074 23.3645C39.1074 22.6149 39.2391 21.9261 39.5025 21.298C39.7659 20.6699 40.1306 20.128 40.5965 19.6721C41.0726 19.2061 41.6298 18.8465 42.268 18.5933C42.9062 18.3299 43.6001 18.1982 44.3497 18.1982C45.1095 18.1982 45.8085 18.3299 46.4466 18.5933C47.0848 18.8465 47.6369 19.2061 48.1029 19.6721C48.579 20.128 48.9488 20.6699 49.2122 21.298C49.4755 21.9261 49.6072 22.6149 49.6072 23.3645C49.6072 24.1141 49.4755 24.803 49.2122 25.4311C48.9488 26.0591 48.579 26.6061 48.1029 27.0721C47.6369 27.528 47.0848 27.8876 46.4466 28.151C45.8085 28.4042 45.1095 28.5309 44.3497 28.5309ZM44.5928 27.7407C45.0993 27.7407 45.5451 27.5786 45.93 27.2545C46.3251 26.9303 46.629 26.4745 46.8417 25.8869C47.0646 25.2994 47.176 24.6105 47.176 23.8204C47.176 22.8479 47.0393 21.997 46.7657 21.2676C46.5024 20.5382 46.1427 19.976 45.6869 19.5809C45.231 19.1757 44.7195 18.9731 44.1522 18.9731C43.6457 18.9731 43.1949 19.1352 42.7998 19.4594C42.4048 19.7734 42.0907 20.2242 41.8577 20.8117C41.6349 21.3993 41.5234 22.0881 41.5234 22.8783C41.5234 23.8508 41.6602 24.7017 41.9337 25.4311C42.2072 26.1604 42.577 26.7277 43.0429 27.1329C43.5089 27.5381 44.0256 27.7407 44.5928 27.7407ZM50.9909 28.3789V28.1358L52.2825 27.5128V19.2315L50.9909 18.5933V18.3501H53.878L59.7737 25.0056V19.2011L58.0415 18.5933V18.3501H62.1137V18.5933L60.8374 19.2163V28.4549H59.8953L53.3462 21.1308V27.5128L55.0784 28.1358V28.3789H50.9909ZM63.3673 28.3789V28.1358L64.6589 27.5128V19.2163L63.3673 18.5933V18.3501H68.245V18.5933L66.9534 19.2163V27.5128L68.245 28.1358V28.3789H63.3673ZM66.9534 23.3189L71.1168 19.1555L69.9924 18.5933V18.3501H73.5784V18.5933L72.5756 19.0187L69.0503 22.4072L73.2745 27.6951L74.3382 28.1358V28.3789H70.9649L66.9534 23.3189ZM84.2669 28.5309C83.5375 28.5309 82.8537 28.4093 82.2155 28.1662C81.5875 27.9129 81.0303 27.5634 80.5441 27.1177C80.068 26.672 79.6932 26.1503 79.4196 25.5526C79.1563 24.9448 79.0246 24.2864 79.0246 23.5773C79.0246 22.7972 79.1765 22.0831 79.4804 21.4347C79.7843 20.7763 80.2047 20.2039 80.7416 19.7177C81.2785 19.2315 81.8914 18.8566 82.5802 18.5933C83.2691 18.3299 83.9934 18.1982 84.7531 18.1982C85.29 18.1982 85.7459 18.2286 86.1207 18.2894C86.5056 18.3501 86.845 18.4362 87.1388 18.5477C87.4427 18.6591 87.7415 18.7857 88.0353 18.9276L88.2024 21.6019H87.9289L86.4702 19.3986C86.1967 19.2264 85.9333 19.1099 85.68 19.0491C85.4268 18.9782 85.1381 18.9428 84.8139 18.9428C84.1757 18.9428 83.5983 19.1251 83.0817 19.4898C82.565 19.8545 82.1548 20.366 81.8509 21.0245C81.547 21.6728 81.395 22.4326 81.395 23.3037C81.395 24.2154 81.5419 25.0005 81.8357 25.659C82.1294 26.3073 82.5245 26.8087 83.0209 27.1633C83.5274 27.5179 84.0896 27.6951 84.7075 27.6951C84.8798 27.6951 85.0672 27.6901 85.2698 27.6799C85.4724 27.6597 85.675 27.6293 85.8776 27.5888V24.7777L84.5252 24.0635V23.8204H89.2965V24.0635L88.1568 24.7929V27.2545C87.8428 27.5179 87.4629 27.7458 87.0172 27.9382C86.5816 28.1206 86.1207 28.2675 85.6344 28.3789C85.1583 28.4802 84.7025 28.5309 84.2669 28.5309ZM96.1183 28.5309C95.237 28.5309 94.4621 28.389 93.7935 28.1054C93.1249 27.8116 92.6032 27.3406 92.2284 26.6923C91.8536 26.0338 91.6662 25.1575 91.6662 24.0635V19.2163L90.3594 18.5933V18.3501H95.2674V18.5933L93.9606 19.2163V24.0787C93.9606 24.9195 94.0873 25.583 94.3405 26.0693C94.6039 26.5454 94.9534 26.8847 95.389 27.0873C95.8347 27.2899 96.326 27.3912 96.8629 27.3912C97.3086 27.3912 97.724 27.3001 98.1089 27.1177C98.4938 26.9354 98.8028 26.6416 99.0358 26.2364C99.2688 25.8211 99.3853 25.2791 99.3853 24.6105V19.1859L97.957 18.5933V18.3501H101.756V18.5933L100.449 19.2011V24.0635C100.449 25.1575 100.267 26.0338 99.9019 26.6923C99.5372 27.3406 99.0307 27.8116 98.3824 28.1054C97.7341 28.389 96.9794 28.5309 96.1183 28.5309ZM102.014 28.3789V28.1358L102.941 27.6192L106.907 18.2742H108.244L112.164 27.5888L113.198 28.1358V28.3789H108.396V28.1358L109.718 27.5888L108.685 25.0664H105.083L104.05 27.5888L105.311 28.1358V28.3789H102.014ZM105.433 24.2306H108.335L106.892 20.6902L105.433 24.2306ZM114.161 28.3789V28.1358L115.453 27.5128V19.2163L114.161 18.5933V18.3501H119.358C120.421 18.3501 121.257 18.573 121.865 19.0187C122.483 19.4543 122.792 20.0571 122.792 20.8269C122.792 21.3841 122.605 21.8653 122.23 22.2705C121.855 22.6656 121.364 22.9796 120.756 23.2126L123.567 27.528L124.661 28.1358V28.3789H121.364L118.552 23.7292H117.747V27.4976L118.887 28.1358V28.3789H114.161ZM118.355 19.1859H117.747V22.9846H118.446C119.074 22.9846 119.571 22.8074 119.935 22.4528C120.3 22.0983 120.482 21.6373 120.482 21.0701C120.482 20.4724 120.3 20.0115 119.935 19.6873C119.581 19.353 119.054 19.1859 118.355 19.1859ZM125.201 28.3789V28.1358L126.493 27.5128V19.2163L125.201 18.5933V18.3501H130.383C131.588 18.3501 132.611 18.5477 133.452 18.9428C134.293 19.3378 134.931 19.8798 135.367 20.5686C135.813 21.2575 136.035 22.0375 136.035 22.9087C136.035 23.6988 135.889 24.4282 135.595 25.0968C135.311 25.7653 134.911 26.3428 134.394 26.829C133.878 27.3152 133.27 27.6951 132.571 27.9686C131.872 28.2422 131.107 28.3789 130.276 28.3789H125.201ZM129.76 19.1859H128.787V27.5432H129.973C131.148 27.5432 132.054 27.1684 132.692 26.4187C133.331 25.659 133.65 24.646 133.65 23.3797C133.65 22.1033 133.321 21.0853 132.662 20.3255C132.014 19.5658 131.046 19.1859 129.76 19.1859Z" fill="white"/>
<defs>
<linearGradient id="paint0_linear_1214_3356" x1="5.91016" y1="4.95117" x2="20.0708" y2="71.7943" gradientUnits="userSpaceOnUse">
<stop stop-color="#EB8C2A"/>
<stop offset="1" stop-color="#754515"/>
</linearGradient>
</defs>
</svg>
