<svg width="164" height="44" viewBox="0 0 164 44" fill="none" xmlns="http://www.w3.org/2000/svg">
<path d="M4.17473 37.9227V38.748H5H158.217H159.042V37.9227V5V4.17473H158.217H5H4.17473V5V37.9227Z" fill="#6B3C24" stroke="url(#paint0_linear_1343_8)" stroke-width="1.65054"/>
<path d="M1.26626 15.1951H3.79877V3.79877H11.3963V1.26626H10.1301V0H0V13.9288H1.26626V15.1951Z" fill="#D9D9D9"/>
<path d="M162.081 15.1951H159.549V3.79877H151.951V1.26626H153.218V0H163.348V13.9288H162.081V15.1951Z" fill="#D9D9D9"/>
<path d="M162.081 27.8557L159.549 27.8557L159.549 39.252L151.951 39.252L151.951 41.7845L153.218 41.7845L153.218 43.0508L163.348 43.0508L163.348 29.1219L162.081 29.1219L162.081 27.8557Z" fill="#D9D9D9"/>
<path d="M1.26626 27.8557L3.79878 27.8557L3.79877 39.252L11.3963 39.252L11.3963 41.7845L10.1301 41.7845L10.1301 43.0508L0 43.0508L1.2177e-06 29.1219L1.26626 29.1219L1.26626 27.8557Z" fill="#D9D9D9"/>
<path d="M34.6382 26V25.7569L35.9298 25.1339L36.2489 16.8374L34.9117 16.2144V15.9712H38.6801L41.7343 23.037L44.7581 15.9712H48.405V16.2144L47.083 16.6854L47.3413 25.1339L48.4961 25.7569V26H43.892V25.7569L45.1076 25.1491L44.9557 17.9314L41.4912 26.076H40.6403L37.1454 17.9618L36.9478 25.1491L38.2698 25.7569V26H34.6382ZM49.8199 26V25.7569L51.1115 25.1339V16.8374L49.8199 16.2144V15.9712H54.6975V16.2144L53.4059 16.8374V25.1339L54.6975 25.7569V26H49.8199ZM56.036 26V25.7569L57.3276 25.1339V16.8526L56.036 16.2144V15.9712H58.923L64.8187 22.6267V16.8222L63.0865 16.2144V15.9712H67.1588V16.2144L65.8824 16.8374V26.076H64.9403L58.3912 18.7519V25.1339L60.1235 25.7569V26H56.036ZM70.3711 26V25.7569L71.9818 25.1339V16.807H69.8089L68.5933 19.3142H68.3502V15.9712H77.9079V19.3142H77.6648L76.4492 16.807H74.2763V25.1339L75.8869 25.7569V26H70.3711ZM82.9249 26V25.7569L84.2165 25.1339V16.8374L82.9249 16.2144V15.9712H87.6961V16.2144L86.5109 16.8374V20.4234H90.72V16.8374L89.5044 16.2144V15.9712H94.2908V16.2144L93.0144 16.8374V25.1339L94.2908 25.7569V26H89.5044V25.7569L90.72 25.1339V21.2591H86.5109V25.1339L87.6961 25.7569V26H82.9249ZM95.627 26V25.7569L96.9186 25.1339V16.8374L95.627 16.2144V15.9712H103.908V18.6H103.665L102.541 16.807H99.2131V20.4082H101.553L102.404 19.1014H102.647V22.5203H102.404L101.553 21.2439H99.2131V25.1643H102.905L104.091 22.9002H104.334V26H95.627ZM105.97 26V25.7569L107.261 25.1339V16.8374L105.97 16.2144V15.9712H111.167C112.23 15.9712 113.066 16.1941 113.674 16.6398C114.292 17.0754 114.601 17.6782 114.601 18.448C114.601 19.0052 114.413 19.4864 114.038 19.8916C113.664 20.2866 113.172 20.6007 112.564 20.8337L115.376 25.1491L116.47 25.7569V26H113.172L110.361 21.3503H109.556V25.1187L110.695 25.7569V26H105.97ZM110.164 16.807H109.556V20.6057H110.255C110.883 20.6057 111.379 20.4285 111.744 20.0739C112.109 19.7194 112.291 19.2584 112.291 18.6912C112.291 18.0935 112.109 17.6326 111.744 17.3084C111.389 16.9741 110.863 16.807 110.164 16.807ZM122.239 26.152C121.49 26.152 120.796 26.0253 120.157 25.7721C119.519 25.5087 118.962 25.1491 118.486 24.6932C118.02 24.2272 117.655 23.6802 117.392 23.0522C117.129 22.4241 116.997 21.7352 116.997 20.9856C116.997 20.236 117.129 19.5471 117.392 18.9191C117.655 18.291 118.02 17.7491 118.486 17.2932C118.962 16.8272 119.519 16.4676 120.157 16.2144C120.796 15.951 121.49 15.8193 122.239 15.8193C122.999 15.8193 123.698 15.951 124.336 16.2144C124.974 16.4676 125.526 16.8272 125.992 17.2932C126.469 17.7491 126.838 18.291 127.102 18.9191C127.365 19.5471 127.497 20.236 127.497 20.9856C127.497 21.7352 127.365 22.4241 127.102 23.0522C126.838 23.6802 126.469 24.2272 125.992 24.6932C125.526 25.1491 124.974 25.5087 124.336 25.7721C123.698 26.0253 122.999 26.152 122.239 26.152ZM122.482 25.3618C122.989 25.3618 123.435 25.1997 123.82 24.8756C124.215 24.5514 124.518 24.0955 124.731 23.508C124.954 22.9205 125.066 22.2316 125.066 21.4415C125.066 20.469 124.929 19.6181 124.655 18.8887C124.392 18.1593 124.032 17.5971 123.576 17.202C123.121 16.7968 122.609 16.5942 122.042 16.5942C121.535 16.5942 121.084 16.7563 120.689 17.0805C120.294 17.3945 119.98 17.8453 119.747 18.4328C119.524 19.0204 119.413 19.7092 119.413 20.4994C119.413 21.4719 119.55 22.3228 119.823 23.0522C120.097 23.7815 120.466 24.3488 120.932 24.754C121.398 25.1592 121.915 25.3618 122.482 25.3618Z" fill="white"/>
<defs>
<linearGradient id="paint0_linear_1343_8" x1="5" y1="5" x2="19.1607" y2="71.8431" gradientUnits="userSpaceOnUse">
<stop stop-color="#EB8C2A"/>
<stop offset="1" stop-color="#754515"/>
</linearGradient>
</defs>
</svg>
