<svg width="22" height="32" viewBox="0 0 22 32" fill="none" xmlns="http://www.w3.org/2000/svg">
<g clip-path="url(#clip0_386_192)">
<mask id="mask0_386_192" style="mask-type:luminance" maskUnits="userSpaceOnUse" x="0" y="0" width="22" height="31">
<path d="M21.0547 0H0V30.625H21.0547V0Z" fill="white"/>
</mask>
<g mask="url(#mask0_386_192)">
<path fill-rule="evenodd" clip-rule="evenodd" d="M12.5218 2.40799C13.6349 2.40799 14.679 2.5572 15.6457 2.83395C14.6993 0.628136 12.7342 0 10.5472 0C8.35593 0 6.38741 0.630605 5.44311 2.84694C6.40273 2.56047 7.44233 2.40799 8.55165 2.40799H12.5218ZM8.29704 4.62254C3.0115 4.62254 0 8.78063 0 13.9099V19.1788C0 19.6919 0.428477 20.0976 0.957031 20.0976H20.0976C20.6262 20.0976 21.0547 19.6919 21.0547 19.1788V13.9099C21.0547 8.78063 17.5528 4.62254 12.2672 4.62254H8.29704ZM10.5199 13.9555C12.3698 13.9555 13.8695 12.4558 13.8695 10.6058C13.8695 8.75591 12.3698 7.25624 10.5199 7.25624C8.66992 7.25624 7.17026 8.75591 7.17026 10.6058C7.17026 12.4558 8.66992 13.9555 10.5199 13.9555ZM0 23.1946C0 22.6817 0.428477 22.266 0.957031 22.266H20.0976C20.6262 22.266 21.0547 22.6817 21.0547 23.1946V28.7671C21.0547 29.7929 20.1978 30.6246 19.1406 30.6246H1.91406C0.856955 30.6246 0 29.7929 0 28.7671V23.1946Z" fill="#E33E3F"/>
</g>
</g>
<defs>
<clipPath id="clip0_386_192">
<rect width="22" height="32" fill="white"/>
</clipPath>
</defs>
</svg>
