<svg width="32" height="32" viewBox="0 0 32 32" fill="none" xmlns="http://www.w3.org/2000/svg">
<g clip-path="url(#clip0_386_185)">
<path d="M32 0H0V32H32V0Z" fill="#AB9FF2"/>
<path fill-rule="evenodd" clip-rule="evenodd" d="M13.9099 20.5375C12.7181 22.3637 10.7211 24.6748 8.06371 24.6748C6.80751 24.6748 5.59961 24.1576 5.59961 21.9112C5.59961 16.1902 13.4106 7.33398 20.658 7.33398C24.7809 7.33398 26.4238 10.1945 26.4238 13.4428C26.4238 17.6124 23.718 22.3799 21.0284 22.3799C20.1748 22.3799 19.7561 21.9112 19.7561 21.1678C19.7561 20.9739 19.7883 20.7638 19.8527 20.5375C18.9347 22.1052 17.1632 23.5596 15.5043 23.5596C14.2964 23.5596 13.6844 22.8001 13.6844 21.7335C13.6844 21.3456 13.765 20.9416 13.9099 20.5375ZM20.1528 13.3302C20.1528 14.2767 19.5944 14.75 18.9697 14.75C18.3355 14.75 17.7865 14.2767 17.7865 13.3302C17.7865 12.3836 18.3355 11.9103 18.9697 11.9103C19.5944 11.9103 20.1528 12.3836 20.1528 13.3302ZM23.7021 13.3302C23.7021 14.2768 23.1436 14.75 22.5189 14.75C21.8847 14.75 21.3357 14.2768 21.3357 13.3302C21.3357 12.3837 21.8847 11.9104 22.5189 11.9104C23.1436 11.9104 23.7021 12.3837 23.7021 13.3302Z" fill="#FFFDF8"/>
</g>
<defs>
<clipPath id="clip0_386_185">
<rect width="32" height="32" fill="white"/>
</clipPath>
</defs>
</svg>
